<svg width="102" height="102" viewBox="0 0 102 102" fill="none" xmlns="http://www.w3.org/2000/svg">
<path d="M101.559 5.82407V100.085C101.172 100.524 100.683 100.861 100.135 101.066C99.5864 101.271 98.996 101.337 98.4159 101.259C96.3159 101.177 94.2039 101.238 92.0979 101.237C89.2149 101.237 88.7669 100.785 88.7659 97.8871C88.7659 83.3231 88.7619 68.7587 88.7539 54.1941C88.8001 53.5152 88.7047 52.8342 88.4739 52.1941C85.1853 45.1061 81.8616 38.0327 78.5029 30.9741C78.3499 30.6521 77.9739 30.2181 77.6909 30.2101C75.4149 30.1481 73.1359 30.1751 70.8809 30.1751L72.0719 38.4621C72.1439 38.4761 72.3179 38.5071 72.4899 38.5431C73.6104 38.7035 74.6536 39.207 75.4764 39.9843C76.2992 40.7615 76.8611 41.7745 77.0849 42.8841C77.3862 44.0226 77.3274 45.2265 76.9166 46.3303C76.5058 47.4341 75.7633 48.3835 74.7909 49.0481C74.3514 49.4509 74.0893 50.0115 74.0619 50.6071C74.0069 55.5531 74.0879 60.5001 74.0119 65.4461C73.9389 70.1161 71.8749 73.7201 67.5119 75.5241C66.8681 75.6917 66.3121 76.098 65.9568 76.6605C65.6016 77.223 65.4736 77.8997 65.5989 78.5531C65.6329 79.1451 65.7229 79.7351 65.7549 80.3281C65.7664 80.9977 66.0119 81.6422 66.4488 82.1497C66.8857 82.6573 67.4865 82.996 68.1469 83.1071C70.6949 83.8371 73.5059 82.5311 75.1119 79.7131C76.5317 77.1252 77.094 74.1537 76.7179 71.2261C76.6059 70.0901 76.8969 69.1701 78.0539 68.8401C79.2729 68.4931 80.0439 69.1401 80.5279 70.2401C82.3146 74.1386 82.8931 78.4828 82.1889 82.7131C80.2629 93.8501 71.4889 101.179 60.1889 101.233C54.0079 101.262 47.8259 101.21 41.6449 101.246C36.8459 101.367 32.1436 99.884 28.2819 97.0321C20.0819 90.9451 18.6199 82.0551 18.3899 72.7251C18.3499 71.1141 20.2539 70.4441 21.5579 71.4651C22.0959 71.8861 22.5189 72.4511 23.0499 72.8821C25.8149 75.1251 28.4849 77.5111 31.4119 79.5211C33.6459 81.0561 35.0939 80.3211 35.9489 77.7211C36.1009 77.2581 36.1769 76.7691 36.2869 76.2931C36.0319 76.1601 35.8779 76.0611 35.7119 75.9931C30.6809 74.0031 28.2239 70.4151 28.2199 65.0331C28.2199 60.3161 28.2029 55.5981 28.2329 50.8811C28.2803 50.485 28.2142 50.0836 28.0425 49.7236C27.8708 49.3635 27.6005 49.0596 27.2629 48.8471C26.3939 48.272 25.7155 47.4516 25.3138 46.4901C24.9121 45.5286 24.8053 44.4694 25.0069 43.4471C25.1474 42.346 25.6158 41.3126 26.3512 40.4812C27.0867 39.6498 28.0552 39.0588 29.1309 38.7851L30.1629 38.4791C30.5709 35.6921 30.9519 33.0891 31.3539 30.3361C29.4179 30.3361 27.4169 30.4001 25.4239 30.3101C25.0037 30.2562 24.5781 30.3544 24.2239 30.5869C23.8698 30.8195 23.6105 31.171 23.4929 31.5781C20.3999 38.2531 17.2279 44.8921 14.1509 51.5781C13.7 52.5622 13.4592 53.6296 13.4439 54.7121C13.3989 69.2761 13.4159 83.8401 13.4109 98.4051C13.4109 100.675 12.8389 101.235 10.5699 101.241C8.36992 101.247 6.16992 101.241 3.97592 101.241C1.06092 101.241 0.669922 100.841 0.669922 97.9081C0.671255 67.9981 0.671922 38.0894 0.671922 8.18207C0.671922 7.72407 0.671922 7.26207 0.684922 6.80807C0.688979 5.98291 0.855693 5.16665 1.17552 4.40599C1.49536 3.64532 1.96203 2.95519 2.54884 2.37506C3.13566 1.79493 3.8311 1.3362 4.59538 1.02511C5.35966 0.714014 6.17777 0.556666 7.00292 0.562066C7.83986 0.542883 8.67213 0.692036 9.45032 1.00067C10.2285 1.30931 10.9368 1.77114 11.5331 2.35875C12.1293 2.94636 12.6015 3.64777 12.9215 4.42136C13.2415 5.19494 13.4028 6.02493 13.3959 6.86207C13.4559 9.24207 13.4139 11.6251 13.4149 14.0061C13.4149 15.9201 13.4149 17.8341 13.4149 19.6871C14.6539 20.1341 15.1799 19.6681 15.6409 18.6601C17.5799 14.4221 19.5949 10.2181 21.6069 6.01407C23.2709 2.53907 26.9069 1.05407 30.0069 2.54307C30.8133 2.90715 31.5362 3.43302 32.131 4.08805C32.7257 4.74309 33.1795 5.51332 33.4643 6.35099C33.749 7.18865 33.8586 8.07589 33.7863 8.95767C33.714 9.83945 33.4613 10.697 33.0439 11.4771C31.9269 13.8771 30.7639 16.2621 29.6309 18.6581C29.4679 19.0021 29.3589 19.3701 29.1779 19.8511C32.7489 19.8511 36.1329 19.8691 39.5169 19.8291C39.9627 19.7624 40.3874 19.5952 40.7589 19.3401C43.8756 17.5132 47.422 16.5478 51.0346 16.5429C54.6473 16.538 58.1963 17.4937 61.3179 19.3121C61.7304 19.5865 62.1999 19.7633 62.6909 19.8291C66.0709 19.8731 69.4519 19.8531 72.9849 19.8531C72.7399 19.2771 72.5629 18.8201 72.3539 18.3781C71.2399 16.0241 70.1269 13.6691 68.9929 11.3241C68.2499 9.8856 68.0716 8.22131 68.4929 6.65807C68.8158 5.42939 69.5062 4.32857 70.4716 3.50279C71.437 2.67701 72.6315 2.16562 73.8954 2.037C75.1592 1.90839 76.4323 2.16867 77.5442 2.78305C78.6562 3.39743 79.5541 4.33662 80.1179 5.47507C82.2626 9.86907 84.3546 14.2884 86.3939 18.7331C86.8739 19.7801 87.4399 20.1161 88.5939 19.6681V18.1951C88.5939 14.4851 88.5549 10.7751 88.6119 7.06607C88.5949 5.53965 89.1258 4.05774 90.1082 2.88933C91.0905 1.72092 92.4593 0.943457 93.9659 0.698066C95.4277 0.48608 96.9183 0.771014 98.1988 1.50719C99.4793 2.24337 100.476 3.38817 101.028 4.75807C101.185 5.12207 101.381 5.46907 101.558 5.82407H101.559ZM22.6349 77.8881L22.3169 78.0361C22.7897 80.4397 23.3953 82.8154 24.1309 85.1521C26.7059 92.0911 31.6399 96.5621 39.1099 97.0251C46.738 97.4865 54.3868 97.4955 62.0159 97.0521C69.6819 96.6121 74.7779 92.1521 77.5159 85.0161C77.687 84.5441 77.8266 84.0614 77.9339 83.5711C78.0339 83.1361 78.0949 82.6891 78.1729 82.2471C76.7256 84.2454 74.7255 85.7769 72.4189 86.6531C67.0039 88.5031 62.0989 85.5691 61.7519 79.9041C61.5619 76.8041 62.1469 73.6431 62.4609 70.5181C62.5829 69.3081 62.9209 68.1181 63.1609 66.9181C62.2652 67.3794 61.4841 68.0355 60.8749 68.8381C58.2089 72.8191 55.5999 76.8381 53.0119 80.8721C52.4119 81.8111 51.7909 82.6841 50.5519 82.4421C49.2859 82.1951 49.0919 81.1631 48.9789 80.0351C48.7721 77.5573 47.8038 75.2042 46.2068 73.2986C44.6098 71.3929 42.4623 70.028 40.0589 69.3911C40.0196 69.5192 39.9974 69.6521 39.9929 69.7861C40.0269 70.1491 40.0999 70.5091 40.1379 70.8721C40.4929 74.2821 40.4679 77.6521 38.7489 80.7571C38.3943 81.4938 37.8929 82.1504 37.2754 82.6863C36.6579 83.2223 35.9373 83.6264 35.158 83.8738C34.3787 84.1212 33.557 84.2067 32.7434 84.1251C31.9299 84.0434 31.1416 83.7964 30.4269 83.3991C28.7873 82.4963 27.2119 81.4816 25.7119 80.3621C24.6369 79.6071 23.6569 78.7161 22.6349 77.8861V77.8881ZM51.9099 74.7161C52.4579 73.8591 52.9389 73.0891 53.4379 72.3311C55.4535 68.9978 57.9638 65.9902 60.8829 63.4111C62.252 62.1067 64.0057 61.2793 65.8829 61.0521C67.8279 60.9291 68.6969 62.0041 68.1829 63.8821C67.8129 65.2471 67.3829 66.5951 67.0359 67.9661C66.7479 69.1151 66.5499 70.2851 66.2359 71.8141C68.7899 70.2751 69.9359 68.3571 69.9639 65.8551C70.0179 60.9131 69.9829 55.9701 69.9789 51.0271C69.9657 50.7664 69.9383 50.5067 69.8969 50.2491H32.0969C32.0969 54.6771 32.0819 58.9771 32.1059 63.2761C32.0664 64.6009 32.14 65.9267 32.3259 67.2391C32.4981 68.3372 32.9784 69.3639 33.7108 70.1999C34.4433 71.0359 35.398 71.647 36.4639 71.9621C36.1169 70.3981 35.5159 68.9361 35.1209 67.4211C34.879 66.6807 34.9232 65.8765 35.2449 65.1671C35.501 64.9004 35.8164 64.698 36.1656 64.5764C36.5147 64.4547 36.8876 64.4173 37.2539 64.4671C43.2789 65.7671 48.4479 68.3931 51.4989 74.1141C51.5989 74.3021 51.7379 74.4701 51.9089 74.7211L51.9099 74.7161ZM82.3009 30.3361C82.5909 31.0081 82.7739 31.4681 82.9849 31.9151C85.9279 38.1551 88.9059 44.3801 91.7919 50.6461C92.2574 51.6754 92.5033 52.7904 92.5139 53.9201C92.5609 67.8421 92.5449 81.7641 92.5449 95.6851V97.2681H97.4589V95.8291C97.4589 66.4744 97.4589 37.1194 97.4589 7.76407C97.473 7.39735 97.467 7.03013 97.4409 6.66407C97.3847 6.06667 97.1122 5.51038 96.6746 5.09974C96.2371 4.6891 95.6647 4.45238 95.0649 4.43407C94.442 4.41739 93.835 4.63209 93.3611 5.03673C92.8872 5.44137 92.5801 6.00723 92.4989 6.62507C92.4632 7.03638 92.4542 7.44958 92.4719 7.86207C92.4719 15.5101 92.4719 23.1577 92.4719 30.8051C92.4719 31.2171 92.6189 31.7381 92.4249 32.0191C91.9689 32.6801 91.4249 33.5631 90.7689 33.7191C90.2129 33.8501 89.3539 33.1841 88.8029 32.6811C88.4029 32.3121 88.3549 31.5811 88.0109 31.1101C87.751 30.7304 87.3544 30.4659 86.9039 30.3721C85.4459 30.2861 83.9809 30.3371 82.3039 30.3371L82.3009 30.3361ZM19.7259 30.2881C17.0389 30.4581 13.9849 29.0601 12.9209 32.9881C12.8119 33.3881 11.6159 33.8441 11.0889 33.6941C10.4889 33.5231 9.98892 32.7521 9.59692 32.1461C9.40592 31.8541 9.54192 31.3461 9.54192 30.9311C9.54192 23.2851 9.54192 15.6391 9.54192 7.99307C9.54192 7.58107 9.56292 7.16707 9.52792 6.75707C9.49404 6.13265 9.22306 5.54472 8.77032 5.11335C8.31759 4.68199 7.71725 4.43973 7.09192 4.43607C6.46944 4.43244 5.86762 4.65924 5.40236 5.0728C4.9371 5.48637 4.6413 6.05745 4.57192 6.67607C4.544 7.04204 4.53765 7.40934 4.55292 7.77607C4.55292 37.0781 4.55292 66.3797 4.55292 95.6811V97.2011H9.46492V95.5081C9.46492 81.5441 9.47392 67.5801 9.49192 53.6161C9.50269 52.6209 9.71887 51.6388 10.1269 50.7311C12.0359 46.5311 14.0429 42.3771 16.0099 38.2041C17.2309 35.6141 18.4419 33.0191 19.7229 30.2871L19.7259 30.2881ZM67.7229 38.4871C67.9131 36.0152 67.5556 33.5319 66.6759 31.2141C66.6133 30.9067 66.4352 30.635 66.1783 30.4549C65.9214 30.2748 65.6053 30.2001 65.2949 30.2461C62.7339 30.3011 60.1699 30.2661 57.6079 30.2661C50.6979 30.2661 43.7879 30.2561 36.8789 30.2901C36.4259 30.2901 35.7079 30.5111 35.5639 30.8321C34.5587 33.2501 34.1366 35.8707 34.3319 38.4821L67.7229 38.4871ZM50.8629 46.2421H70.2079C70.6189 46.2692 71.0315 46.2605 71.4409 46.2161C72.4859 46.0291 73.2629 45.4711 73.2469 44.3281C73.253 43.8392 73.073 43.3662 72.7434 43.0051C72.4139 42.644 71.9593 42.4216 71.4719 42.3831C71.0629 42.3367 70.6506 42.327 70.2399 42.3541C57.3886 42.3541 44.5376 42.3541 31.6869 42.3541C31.2299 42.3541 30.6319 42.1951 30.3449 42.4211C29.6637 42.8583 29.1272 43.4874 28.8029 44.2291C28.5409 45.2291 29.3029 45.9291 30.2879 46.1911C30.6939 46.259 31.1068 46.2754 31.5169 46.2401C37.9656 46.2401 44.4139 46.2401 50.8619 46.2401L50.8629 46.2421ZM88.6289 23.7401H86.9919C72.3389 23.7401 57.6849 23.7881 43.0329 23.6891C40.8159 23.6741 39.6829 24.8401 38.3609 26.3581H88.6299L88.6289 23.7401ZM82.8219 19.8621C80.8289 15.6411 78.9569 11.6391 77.0499 7.65307C76.9282 7.3179 76.7385 7.01152 76.4928 6.75321C76.247 6.49489 75.9504 6.29022 75.6217 6.15207C75.2929 6.01391 74.9392 5.94526 74.5826 5.95042C74.2261 5.95558 73.8745 6.03445 73.5499 6.18207C72.2789 6.76607 71.8599 8.14007 72.5799 9.69307C74.0386 12.8424 75.5323 15.9757 77.0609 19.0931C77.1769 19.2881 77.3345 19.4553 77.5223 19.5826C77.7102 19.71 77.9238 19.7945 78.1479 19.8301C79.6029 19.9161 81.0669 19.8651 82.8169 19.8651L82.8219 19.8621ZM19.2749 19.8651C21.0509 19.8651 22.5559 19.8991 24.0569 19.8381C24.2425 19.816 24.4208 19.7529 24.579 19.6533C24.7371 19.5536 24.871 19.42 24.9709 19.2621C26.5589 15.9851 28.1319 12.6981 29.6339 9.38007C29.7706 9.10231 29.8506 8.8001 29.8692 8.49108C29.8878 8.18206 29.8447 7.87244 29.7423 7.58029C29.6399 7.28814 29.4803 7.01933 29.2728 6.78956C29.0653 6.55979 28.8141 6.37367 28.5339 6.24207C27.9774 5.9528 27.3298 5.89286 26.7297 6.07509C26.1296 6.25731 25.6246 6.66722 25.3229 7.21707C23.2949 11.3331 21.3589 15.4931 19.2789 19.8651H19.2749ZM13.4979 26.4651C19.4589 26.4651 25.2719 26.3301 31.0729 26.5341C33.2809 26.6111 34.2589 25.6091 35.1029 23.8341H13.4989L13.4979 26.4651Z" fill="white"/>
</svg>
