<svg width="56" height="57" viewBox="0 0 56 57" fill="none" xmlns="http://www.w3.org/2000/svg">
<path d="M48 0.51709H8C3.58172 0.51709 0 4.09881 0 8.51709V48.5171C0 52.9354 3.58172 56.5171 8 56.5171H48C52.4183 56.5171 56 52.9354 56 48.5171V8.51709C56 4.09881 52.4183 0.51709 48 0.51709Z" fill="#9B9B9B"/>
<path d="M42.833 11.8501H13.166C12.6799 11.8501 12.2136 12.0432 11.8699 12.387C11.5261 12.7307 11.333 13.197 11.333 13.6831V43.3501C11.333 43.8362 11.5261 44.3025 11.8699 44.6462C12.2136 44.99 12.6799 45.1831 13.166 45.1831H29.133V32.2671H24.8V27.2671H29.133V23.5171C29.0432 22.6366 29.1472 21.7472 29.4376 20.9112C29.7279 20.0752 30.1977 19.3128 30.8139 18.6775C31.4301 18.0423 32.1778 17.5495 33.0046 17.2339C33.8314 16.9182 34.7172 16.7872 35.6 16.8501C36.8971 16.8421 38.1936 16.9089 39.483 17.0501V21.5501H36.833C34.733 21.5501 34.333 22.5501 34.333 24.0001V27.2171H39.333L38.683 32.2171H34.333V45.1831H42.833C43.3191 45.1831 43.7854 44.99 44.1291 44.6462C44.4729 44.3025 44.666 43.8362 44.666 43.3501V13.6831C44.666 13.197 44.4729 12.7307 44.1291 12.387C43.7854 12.0432 43.3191 11.8501 42.833 11.8501V11.8501Z" fill="#FAFAFA"/>
</svg>
