<svg width="24" height="20" viewBox="0 0 24 20" fill="none" xmlns="http://www.w3.org/2000/svg">
<path d="M16.4777 2.33105C15.0912 2.37608 13.9867 2.90405 13.1946 3.90055L11.7108 5.7672L10.1309 3.98118C9.78466 3.58974 9.39453 3.25703 9.00244 3.01878C8.26688 2.57842 7.4339 2.36435 6.45605 2.36435C6.30581 2.36435 6.15039 2.36956 5.99354 2.37987C4.82279 2.51201 3.89911 3.00658 3.17169 3.89062C2.35505 4.98142 1.96185 6.16487 2.00272 7.40427C2.04532 8.61152 2.41759 9.73647 3.14079 10.8434L3.1456 10.8508C4.08242 12.2986 5.29097 13.3971 6.23918 14.1924L6.28058 14.2281C7.71934 15.5034 9.40139 16.6742 11.5539 17.897C13.4656 16.8094 15.0803 15.697 16.4817 14.5026L16.5069 14.4814C17.9981 13.2525 19.1127 12.0499 20.0149 10.6967L20.0352 10.6668C21.012 9.25729 21.3452 7.83591 21.0821 6.19725C20.8357 5.06588 20.4721 4.27347 19.9396 3.70617L19.9132 3.67752C19.0952 2.77148 18.0414 2.33105 16.6914 2.33105H16.4777ZM16.4477 0.331055H16.6914C18.5852 0.331055 20.179 0.987305 21.3977 2.33731C22.2602 3.25606 22.7477 4.41856 23.0477 5.82481C23.4039 7.96231 22.9915 9.9123 21.679 11.8061C20.704 13.2686 19.4852 14.6186 17.779 16.0248C16.1289 17.4311 14.3102 18.6498 12.229 19.8123C11.9852 19.9436 11.7977 19.9998 11.554 19.9998C11.3102 19.9998 11.1227 19.9436 10.879 19.8123C8.49771 18.4811 6.60396 17.1873 4.95396 15.7248C3.79146 14.7498 2.49771 13.5311 1.46646 11.9373C0.547709 10.5311 0.06021 9.06855 0.00396037 7.4748C-0.0523007 5.76856 0.49146 4.11856 1.59771 2.65606C2.64771 1.3623 4.05396 0.574804 5.81646 0.387304C7.41022 0.274817 8.81646 0.574806 10.0352 1.30606C10.654 1.68106 11.1977 2.16855 11.629 2.65606C12.7915 1.19356 14.4415 0.387304 16.4477 0.331055Z" fill="#383838"/>
</svg>
