<svg width="56" height="57" viewBox="0 0 56 57" fill="none" xmlns="http://www.w3.org/2000/svg">
<path d="M48 0.51709H8C3.58172 0.51709 0 4.09881 0 8.51709V48.5171C0 52.9354 3.58172 56.5171 8 56.5171H48C52.4183 56.5171 56 52.9354 56 48.5171V8.51709C56 4.09881 52.4183 0.51709 48 0.51709Z" fill="#9B9B9B"/>
<path d="M36.9 17.6171C36.4373 17.617 35.9889 17.7773 35.6311 18.0708C35.2734 18.3643 35.0284 18.7727 34.9381 19.2265C34.8477 19.6803 34.9175 20.1514 35.1356 20.5596C35.3536 20.9677 35.7064 21.2876 36.1339 21.4647C36.5613 21.6419 37.037 21.6653 37.4798 21.5311C37.9226 21.3968 38.3052 21.1132 38.5623 20.7285C38.8195 20.3438 38.9353 19.8819 38.89 19.4214C38.8447 18.9609 38.6411 18.5303 38.314 18.2031C37.939 17.828 37.4304 17.6172 36.9 17.6171ZM44.566 21.6501C44.5335 20.2672 44.2744 18.8991 43.799 17.6001C43.3753 16.4887 42.7159 15.4823 41.866 14.6501C41.0408 13.7957 40.032 13.1401 38.916 12.7331C37.6204 12.2435 36.2507 11.9787 34.866 11.9501C33.1 11.8501 32.533 11.8501 28 11.8501C23.467 11.8501 22.9 11.8501 21.133 11.9501C19.7483 11.9787 18.3786 12.2435 17.083 12.7331C15.9691 13.1443 14.9612 13.7993 14.133 14.6501C13.2786 15.4754 12.6231 16.4841 12.216 17.6001C11.7264 18.8957 11.4616 20.2654 11.433 21.6501C11.333 23.4171 11.333 23.9831 11.333 28.5171C11.333 33.0511 11.333 33.6171 11.433 35.3841C11.4616 36.7688 11.7264 38.1385 12.216 39.4341C12.6232 40.5497 13.2787 41.5581 14.133 42.3831C14.9612 43.2339 15.9691 43.8889 17.083 44.3001C18.3786 44.7897 19.7483 45.0545 21.133 45.0831C22.9 45.1831 23.466 45.1831 28 45.1831C32.534 45.1831 33.1 45.1831 34.867 45.0831C36.2517 45.0545 37.6214 44.7897 38.917 44.3001C40.033 43.8931 41.0418 43.2375 41.867 42.3831C42.7206 41.554 43.3807 40.5467 43.8 39.4331C44.2754 38.1341 44.5345 36.766 44.567 35.3831C44.567 33.6161 44.667 33.0501 44.667 28.5161C44.667 23.9821 44.667 23.4161 44.567 21.6491L44.566 21.6501ZM41.566 35.1831C41.5538 36.2411 41.362 37.2893 40.999 38.2831C40.7329 39.0085 40.3055 39.664 39.749 40.2001C39.2086 40.7509 38.5548 41.1774 37.833 41.4501C36.8392 41.8131 35.791 42.0049 34.733 42.0171C33.066 42.1001 32.45 42.1171 28.066 42.1171C23.682 42.1171 23.066 42.1171 21.399 42.0171C20.3006 42.0376 19.2069 41.8685 18.166 41.5171C17.4758 41.2305 16.8518 40.805 16.333 40.2671C15.7799 39.7315 15.3579 39.0755 15.1 38.3501C14.6929 37.3419 14.4671 36.2698 14.433 35.1831C14.433 33.5161 14.333 32.9001 14.333 28.5161C14.333 24.1321 14.333 23.5161 14.433 21.8491C14.4403 20.7674 14.6377 19.6955 15.016 18.6821C15.3097 17.9791 15.7602 17.3524 16.333 16.8501C16.8393 16.2772 17.465 15.8222 18.166 15.5171C19.182 15.1504 20.2529 14.9586 21.333 14.9501C23 14.9501 23.616 14.8501 28 14.8501C32.384 14.8501 33 14.8501 34.667 14.9501C35.725 14.9623 36.7732 15.1541 37.767 15.5171C38.5242 15.7981 39.2039 16.255 39.75 16.8501C40.2961 17.362 40.7229 17.9878 41 18.6831C41.3702 19.6981 41.5617 20.7697 41.566 21.8501C41.649 23.5171 41.666 24.1331 41.666 28.5171C41.666 32.9011 41.65 33.5171 41.566 35.1831ZM28 19.9671C25.8823 19.9752 23.8433 20.7705 22.2793 22.1984C20.7154 23.6263 19.7382 25.5847 19.5379 27.6929C19.3376 29.8011 19.9284 31.9085 21.1955 33.6054C22.4625 35.3023 24.3153 36.4673 26.3936 36.8741C28.4719 37.2809 30.6272 36.9004 32.4405 35.8064C34.2538 34.7125 35.5955 32.9833 36.2048 30.9552C36.8142 28.927 36.6475 26.7447 35.7373 24.8325C34.8271 22.9204 33.2384 21.415 31.28 20.6091C30.2396 20.1814 29.1249 19.9632 28 19.9671ZM28 34.0671C26.6222 34.0668 25.2938 33.554 24.2732 32.6285C23.2525 31.7031 22.6126 30.431 22.4778 29.0599C22.3431 27.6887 22.7232 26.3164 23.5442 25.21C24.3652 24.1035 25.5683 23.342 26.9197 23.0735C28.2711 22.805 29.674 23.0488 30.8556 23.7573C32.0372 24.4659 32.913 25.5887 33.3126 26.9072C33.7123 28.2257 33.6072 29.6458 33.0179 30.8911C32.4285 32.1365 31.397 33.1181 30.124 33.6451C29.4506 33.9239 28.7288 34.0673 28 34.0671Z" fill="#FAFAFA"/>
</svg>
