<svg width="307" height="235" viewBox="0 0 307 235" fill="none" xmlns="http://www.w3.org/2000/svg">
<g filter="url(#filter0_d_1_29)">
<path d="M247 -18H60C54.4772 -18 50 -13.5228 50 -8V155C50 160.523 54.4772 165 60 165H247C252.523 165 257 160.523 257 155V-8C257 -13.5228 252.523 -18 247 -18Z" fill="#FF7E2E"/>
</g>
<path d="M75.0859 95.262V116.613C75.0859 116.613 90.7859 121.658 110.705 116.613V95.262C110.705 95.262 95.1009 90.084 75.0859 95.262ZM103.604 111.295C103.604 111.295 92.5389 113.395 82.1739 111.295V100.65C89.258 99.3482 96.5199 99.3482 103.604 100.65V111.295Z" fill="white"/>
<path d="M156.769 95.262V116.613C156.769 116.613 172.464 121.658 192.388 116.613V95.262C192.388 95.262 176.788 90.084 156.769 95.262ZM185.289 111.295C185.289 111.295 174.223 113.395 163.858 111.295V100.65C170.942 99.3481 178.205 99.3481 185.289 100.65V111.295Z" fill="white"/>
<path d="M115.719 94.977C127.531 92.1805 139.833 92.1805 151.646 94.977V101.84C146.93 100.716 142.127 99.995 137.289 99.685V118.915H130.216V99.685C130.216 99.685 121.322 100.09 115.716 102.05L115.719 94.977Z" fill="white"/>
<path d="M234.914 94.2069V101.14C234.914 101.14 219.437 98.6189 204.38 100.159V118.915H197.517V94.2069C197.517 94.2069 212.224 91.4759 234.917 94.2069" fill="white"/>
<path d="M84.8031 140.88C83.6305 140.893 82.4634 140.717 81.3471 140.358C80.3785 140.05 79.4688 139.581 78.6561 138.971C77.9465 138.439 77.3556 137.766 76.9211 136.993C76.5257 136.299 76.315 135.515 76.3091 134.716C76.3119 133.895 76.5365 133.09 76.9591 132.387C77.4199 131.616 78.0322 130.946 78.7591 130.418C79.5786 129.82 80.4907 129.36 81.4591 129.057C82.5478 128.712 83.6842 128.542 84.8261 128.552C86.0003 128.539 87.1686 128.721 88.2831 129.091C89.249 129.408 90.1546 129.886 90.9621 130.504C91.6635 131.042 92.2495 131.716 92.6851 132.486C93.0793 133.172 93.2901 133.947 93.2971 134.738C93.2946 135.559 93.07 136.364 92.6471 137.067C92.1902 137.834 91.5827 138.502 90.8611 139.028C90.0442 139.623 89.1351 140.08 88.1701 140.38C87.0814 140.725 85.945 140.895 84.8031 140.885V140.88ZM78.0951 134.716C78.0964 135.382 78.2631 136.038 78.5801 136.624C78.9207 137.257 79.3901 137.811 79.9581 138.251C80.5931 138.748 81.3089 139.132 82.0741 139.386C82.9544 139.675 83.8765 139.817 84.8031 139.805C85.7484 139.818 86.6889 139.667 87.5831 139.36C88.352 139.099 89.069 138.705 89.7011 138.195C90.2523 137.749 90.7077 137.196 91.0401 136.569C91.354 135.991 91.5163 135.344 91.5117 134.687C91.5072 134.029 91.3359 133.384 91.0141 132.811C90.6679 132.179 90.195 131.626 89.6251 131.186C88.9877 130.696 88.2719 130.317 87.5081 130.065C86.6375 129.777 85.7251 129.635 84.8081 129.646C83.8634 129.634 82.9235 129.782 82.0281 130.083C81.2589 130.338 80.5419 130.73 79.9111 131.239C79.3601 131.686 78.9047 132.239 78.5721 132.865C78.2666 133.434 78.1045 134.069 78.1001 134.715" fill="white"/>
<path d="M106.562 139.8C107.528 139.828 108.492 139.68 109.406 139.363C110.087 139.12 110.706 138.728 111.217 138.216C111.657 137.76 111.98 137.205 112.16 136.598C112.337 136.003 112.428 135.386 112.428 134.766V128.637H114.214V134.766C114.218 135.563 114.08 136.355 113.806 137.104C113.529 137.847 113.078 138.514 112.492 139.048C111.807 139.653 111.003 140.108 110.132 140.383C108.985 140.742 107.787 140.911 106.586 140.883C105.362 140.913 104.142 140.735 102.978 140.357C102.102 140.07 101.298 139.6 100.618 138.979C100.044 138.439 99.6088 137.769 99.3479 137.026C99.0932 136.3 98.9637 135.536 98.9649 134.766V128.637H100.725V134.766C100.724 135.399 100.819 136.028 101.006 136.633C101.192 137.238 101.52 137.79 101.963 138.243C102.472 138.748 103.087 139.134 103.763 139.373C104.665 139.683 105.616 139.828 106.57 139.801" fill="white"/>
<path d="M133.882 129.698H127.428V140.793H125.643V129.698H119.188V128.637H133.882V129.698Z" fill="white"/>
<path d="M139.137 140.794V128.637H145.285C146.564 128.616 147.839 128.777 149.073 129.117C150.043 129.385 150.958 129.825 151.773 130.417C152.46 130.924 153.019 131.583 153.406 132.344C153.771 133.075 153.96 133.881 153.958 134.698C153.97 135.573 153.759 136.436 153.346 137.206C152.921 137.973 152.322 138.629 151.599 139.124C150.766 139.689 149.842 140.107 148.868 140.358C147.698 140.662 146.492 140.809 145.284 140.795L139.137 140.794ZM152.172 134.694C152.179 133.997 152.023 133.307 151.714 132.682C151.396 132.058 150.937 131.516 150.374 131.099C149.726 130.623 148.995 130.272 148.219 130.063C147.263 129.803 146.276 129.679 145.286 129.694H140.923V139.732H145.285C146.288 139.748 147.289 139.618 148.256 139.347C149.034 139.13 149.765 138.77 150.411 138.285C150.965 137.868 151.414 137.325 151.719 136.702C152.025 136.079 152.18 135.392 152.171 134.698" fill="white"/>
<path d="M167.227 140.88C166.054 140.893 164.887 140.717 163.771 140.358C162.802 140.05 161.892 139.581 161.079 138.971C160.369 138.439 159.779 137.766 159.344 136.993C158.949 136.299 158.738 135.515 158.733 134.716C158.736 133.895 158.96 133.09 159.383 132.387C159.844 131.616 160.456 130.946 161.183 130.418C162.002 129.82 162.915 129.36 163.883 129.057C164.972 128.712 166.108 128.542 167.25 128.552C168.424 128.539 169.592 128.721 170.706 129.091C171.672 129.408 172.577 129.886 173.385 130.504C174.085 131.041 174.671 131.713 175.107 132.481C175.501 133.166 175.713 133.942 175.72 134.733C175.717 135.554 175.492 136.359 175.069 137.062C174.612 137.83 174.005 138.497 173.283 139.023C172.466 139.618 171.557 140.075 170.592 140.375C169.503 140.72 168.367 140.89 167.225 140.88H167.227ZM160.517 134.716C160.518 135.382 160.685 136.038 161.002 136.624C161.343 137.257 161.812 137.811 162.38 138.251C163.015 138.746 163.731 139.128 164.496 139.381C165.376 139.67 166.298 139.812 167.225 139.8C168.17 139.813 169.111 139.662 170.005 139.355C170.774 139.094 171.491 138.7 172.124 138.19C172.675 137.743 173.13 137.19 173.463 136.564C173.777 135.986 173.939 135.339 173.935 134.682C173.93 134.024 173.759 133.379 173.437 132.806C173.089 132.176 172.615 131.624 172.044 131.186C171.407 130.696 170.691 130.317 169.928 130.065C169.057 129.777 168.145 129.635 167.228 129.646C166.283 129.634 165.343 129.782 164.448 130.083C163.679 130.339 162.962 130.73 162.332 131.239C161.781 131.685 161.325 132.238 160.993 132.865C160.687 133.434 160.525 134.069 160.521 134.715" fill="white"/>
<path d="M188.93 140.88C187.757 140.893 186.59 140.717 185.474 140.358C184.506 140.05 183.596 139.581 182.783 138.971C182.073 138.439 181.483 137.766 181.048 136.993C180.653 136.299 180.442 135.515 180.436 134.716C180.439 133.895 180.663 133.09 181.086 132.387C181.547 131.616 182.159 130.946 182.886 130.418C183.706 129.82 184.618 129.36 185.586 129.057C186.675 128.713 187.811 128.542 188.953 128.552C190.127 128.539 191.296 128.721 192.41 129.091C193.376 129.408 194.282 129.886 195.089 130.504C195.79 131.041 196.375 131.713 196.811 132.481C197.205 133.167 197.416 133.942 197.423 134.733C197.421 135.554 197.196 136.359 196.773 137.062C196.316 137.829 195.709 138.496 194.988 139.023C194.171 139.618 193.261 140.075 192.296 140.375C191.207 140.72 190.071 140.89 188.929 140.88H188.93ZM182.221 134.716C182.222 135.382 182.388 136.038 182.705 136.624C183.046 137.257 183.515 137.811 184.083 138.251C184.718 138.748 185.434 139.132 186.2 139.386C187.08 139.675 188.002 139.817 188.929 139.805C189.874 139.818 190.815 139.667 191.709 139.36C192.478 139.099 193.195 138.705 193.827 138.195C194.379 137.749 194.834 137.196 195.167 136.569C195.481 135.992 195.644 135.344 195.639 134.687C195.635 134.029 195.463 133.384 195.141 132.811C194.795 132.179 194.322 131.626 193.752 131.186C193.115 130.696 192.399 130.317 191.635 130.065C190.764 129.777 189.852 129.635 188.935 129.646C187.99 129.634 187.05 129.782 186.155 130.083C185.386 130.338 184.669 130.73 184.038 131.239C183.487 131.685 183.032 132.238 182.699 132.865C182.393 133.434 182.231 134.069 182.227 134.715" fill="white"/>
<path d="M203.344 140.793V128.637H210.997C211.729 128.629 212.457 128.742 213.152 128.971C213.761 129.17 214.335 129.464 214.852 129.844C215.3 130.173 215.678 130.59 215.962 131.068C216.216 131.487 216.354 131.965 216.362 132.455C216.362 132.897 216.262 133.333 216.069 133.73C215.867 134.144 215.59 134.517 215.252 134.83C214.879 135.171 214.452 135.449 213.99 135.652C213.462 135.884 212.903 136.037 212.331 136.106L216.77 140.797H214.755L210.495 136.311H205.13V140.797L203.344 140.793ZM205.13 135.245H211.048C211.538 135.251 212.025 135.173 212.489 135.014C212.894 134.876 213.271 134.664 213.599 134.389C213.893 134.142 214.135 133.84 214.313 133.499C214.481 133.176 214.568 132.818 214.568 132.454C214.566 132.083 214.464 131.72 214.274 131.402C214.072 131.058 213.804 130.758 213.484 130.52C213.128 130.256 212.732 130.054 212.31 129.92C211.853 129.77 211.375 129.695 210.894 129.697H205.13V135.245Z" fill="white"/>
<path d="M233.138 130.914C232.522 130.476 231.83 130.157 231.098 129.973C230.149 129.72 229.171 129.599 228.19 129.612C226.993 129.534 225.795 129.743 224.695 130.22C224.373 130.362 224.098 130.593 223.903 130.886C223.708 131.179 223.601 131.521 223.595 131.873C223.581 132.199 223.685 132.518 223.889 132.773C224.137 133.044 224.445 133.252 224.789 133.381C225.296 133.581 225.821 133.73 226.358 133.827C226.996 133.953 227.749 134.078 228.616 134.203C229.584 134.34 230.456 134.494 231.231 134.665C231.911 134.806 232.574 135.021 233.208 135.307C233.691 135.518 234.119 135.837 234.459 136.24C234.756 136.633 234.909 137.117 234.892 137.61C234.903 138.136 234.731 138.65 234.407 139.065C234.042 139.508 233.579 139.86 233.055 140.092C232.398 140.39 231.703 140.595 230.989 140.7C230.12 140.837 229.241 140.904 228.362 140.9C225.825 140.967 223.316 140.358 221.092 139.136L221.985 138.16C222.351 138.412 222.739 138.63 223.145 138.81C223.632 139.029 224.136 139.209 224.651 139.349C225.233 139.509 225.825 139.63 226.424 139.709C227.083 139.797 227.748 139.84 228.413 139.838C229.563 139.887 230.712 139.71 231.794 139.316C232.137 139.213 232.438 139.005 232.656 138.72C232.873 138.436 232.995 138.09 233.005 137.732C233.015 137.383 232.892 137.043 232.66 136.782C232.37 136.485 232.017 136.256 231.627 136.114C231.073 135.898 230.501 135.735 229.917 135.626C229.237 135.489 228.446 135.352 227.546 135.215C226.592 135.067 225.759 134.913 225.046 134.753C224.421 134.623 223.813 134.422 223.235 134.153C222.8 133.96 222.419 133.663 222.125 133.288C221.87 132.925 221.74 132.49 221.755 132.047C221.747 131.509 221.913 130.983 222.227 130.547C222.576 130.076 223.036 129.698 223.566 129.447C224.213 129.133 224.899 128.908 225.607 128.779C226.464 128.618 227.335 128.541 228.207 128.548C229.294 128.534 230.378 128.657 231.434 128.916C232.331 129.143 233.194 129.491 233.997 129.952L233.138 130.914Z" fill="white"/>
<defs>
<filter id="filter0_d_1_29" x="0" y="-48" width="307" height="283" filterUnits="userSpaceOnUse" color-interpolation-filters="sRGB">
<feFlood flood-opacity="0" result="BackgroundImageFix"/>
<feColorMatrix in="SourceAlpha" type="matrix" values="0 0 0 0 0 0 0 0 0 0 0 0 0 0 0 0 0 0 127 0" result="hardAlpha"/>
<feOffset dy="20"/>
<feGaussianBlur stdDeviation="25"/>
<feColorMatrix type="matrix" values="0 0 0 0 0 0 0 0 0 0 0 0 0 0 0 0 0 0 0.502 0"/>
<feBlend mode="normal" in2="BackgroundImageFix" result="effect1_dropShadow_1_29"/>
<feBlend mode="normal" in="SourceGraphic" in2="effect1_dropShadow_1_29" result="shape"/>
</filter>
</defs>
</svg>
