<svg width="195" height="49" viewBox="0 0 195 49" fill="none" xmlns="http://www.w3.org/2000/svg">
<path d="M98.2329 4.792L87.4249 19.792C89.9649 20.198 91.6919 20.335 93.1779 18.13C96.3519 13.422 99.8489 8.93 103.22 4.358C103.568 3.886 103.88 3.175 104.346 3.035C107.942 1.957 111.574 1 115.197 0L115.528 0.715C113.146 4.043 110.779 7.381 108.379 10.696C104.092 16.616 99.7489 22.496 95.5159 28.454C95.1806 29.0186 94.6919 29.4765 94.1067 29.7744C93.5215 30.0723 92.8638 30.198 92.2099 30.137C89.8939 30.037 87.5699 30.111 84.5739 30.111L90.0739 22.224H76.2539C76.5708 21.4942 76.9335 20.7851 77.3399 20.101C80.2292 16.087 83.1372 12.087 86.0639 8.101C86.4439 7.584 86.9029 6.912 87.4489 6.763C90.8969 5.819 94.3909 5 97.8689 4.145L98.2329 4.792Z" fill="#BFBFBF"/>
<path d="M81.2396 33.3621C80.2796 33.8971 79.0656 34.2201 78.4096 35.0091C76.5706 37.2181 74.9146 39.5861 73.2836 41.9581C72.9341 42.5171 72.4337 42.9661 71.8401 43.2533C71.2465 43.5404 70.5839 43.654 69.9286 43.5811C67.7626 43.4891 65.5886 43.5571 62.8286 43.5571C64.0456 41.7491 64.9136 40.4411 65.8006 39.1461C66.2801 38.5868 66.7101 37.9868 67.0856 37.3531C69.4486 32.0841 73.6596 31.2141 78.9856 31.5151C86.4226 31.9361 93.9016 31.5891 101.362 31.6511C102.337 31.7858 103.292 32.0463 104.201 32.4261C103.913 33.3827 103.526 34.3062 103.044 35.1811C101.368 37.6081 99.5976 39.9731 97.7886 42.3031C97.3874 42.89 96.7809 43.3053 96.0886 43.4671C93.5256 43.5941 90.9536 43.5221 87.7026 43.5221L94.2476 34.1841C92.2836 33.0761 91.2656 34.0721 90.3706 35.3021C88.0276 38.5251 85.7206 41.7731 83.3806 45.0021C83.0426 45.4691 82.6806 46.1211 82.2036 46.2501C78.9616 47.1321 75.6876 47.8981 72.4236 48.7011L71.9986 48.1011L81.8556 34.3011L81.2436 33.3641" fill="#BFBFBF"/>
<path d="M46.5099 29.671C46.1799 31.399 45.3219 32.051 43.8579 32.041C41.7159 32.021 39.5579 32.173 37.4349 31.995C36.557 31.8797 35.6643 32.0115 34.8572 32.3756C34.0501 32.7397 33.3605 33.3216 32.8659 34.056C31.2799 36.192 29.7149 38.341 28.1399 40.488L28.6399 41.215H38.0699C37.8279 43.026 36.9239 43.539 35.5969 43.542C29.9099 43.554 24.2219 43.552 18.5359 43.581C16.9779 43.589 16.6639 42.809 16.9359 41.442C18.0879 35.694 25.6599 29.442 31.4359 29.472C35.7939 29.496 40.1519 29.477 44.5099 29.496C45.1319 29.496 45.7539 29.602 46.5019 29.671" fill="#BFBFBF"/>
<path d="M31.9956 27.387C34.1756 24.366 36.6256 21.65 38.2796 18.514C40.7196 13.89 44.1966 12.206 49.2116 13.044C50.7935 13.1691 52.3822 13.1801 53.9656 13.077L45.2066 25.39H52.5066L52.8606 26.244C52.0846 26.787 51.3176 27.784 50.5296 27.802C44.7066 27.938 38.8786 27.884 33.0526 27.867C32.7976 27.867 32.5436 27.644 31.9946 27.387" fill="#BFBFBF"/>
<path d="M74.8806 26.222C74.2176 26.758 73.5626 27.747 72.8886 27.761C66.8016 27.882 60.7116 27.832 54.1436 27.832C54.7596 26.767 55.1166 26.017 55.5916 25.351C58.1986 21.696 60.8066 18.039 63.4916 14.44C63.9379 13.7874 64.6182 13.3316 65.3916 13.167C68.4806 13.029 71.5776 13.089 74.6726 13.112C74.9216 13.112 75.1726 13.368 75.7046 13.664L67.4676 25.201L74.6076 25.533L74.8796 26.221" fill="#BFBFBF"/>
<path d="M151.471 32.543C150.776 33.0589 149.992 33.4423 149.159 33.674C146.809 33.835 144.441 33.764 142.08 33.754C141.287 33.6959 140.501 33.9287 139.869 34.4088C139.236 34.889 138.8 35.5834 138.643 36.362H146.589L146.911 37.17C146.173 37.587 145.46 38.298 144.693 38.363C142.568 38.541 140.417 38.388 138.284 38.497C137.507 38.5358 136.758 38.7991 136.128 39.255C135.688 39.598 135.594 40.387 135.347 40.978C135.889 41.2602 136.47 41.46 137.071 41.571C139.339 41.641 141.611 41.599 143.88 41.599L144.256 42.247C143.641 42.679 143.033 43.473 142.409 43.485C137.247 43.585 132.082 43.553 126.918 43.539C125.325 43.539 124.946 42.563 125.545 41.322C127.187 37.6703 129.804 34.542 133.109 32.281C133.609 31.9589 134.189 31.7801 134.784 31.764C140.223 31.726 145.663 31.741 151.103 31.741L151.47 32.541" fill="#BFBFBF"/>
<path d="M169.966 42.524C170.789 42.1077 171.667 41.812 172.574 41.646C177.274 41.481 177.274 41.526 176.309 36.874C175.709 33.974 177.509 31.854 181.068 31.694C184.968 31.519 188.887 31.615 192.797 31.623C193.411 31.6647 194.021 31.7496 194.623 31.877C194.685 32.1304 194.748 32.3837 194.81 32.637C194.092 33.0498 193.331 33.3822 192.541 33.628C191.662 33.7347 190.774 33.7461 189.893 33.662C188.099 33.624 187.554 34.488 187.893 36.194C189.07 42.045 187.802 43.544 181.755 43.545H170.299L169.966 42.522" fill="#BFBFBF"/>
<path d="M22.0298 12.4289C20.5386 12.7936 19.1302 13.4384 17.8798 14.3289C12.6958 18.2289 7.62877 22.2869 2.47977 26.2389C1.93997 26.4984 1.35681 26.6557 0.759766 26.7029L1.68477 27.8149C3.45277 27.9409 5.22077 28.2209 6.77077 26.7719C7.22744 26.2999 7.82642 25.9907 8.47577 25.8919C11.2598 25.8009 14.0478 25.8509 16.8348 25.8509C16.7448 26.1116 16.6544 26.3726 16.5638 26.6339C17.4028 27.0619 18.2238 27.8089 19.0838 27.8589C21.8849 28.0124 24.6923 28.0151 27.4938 27.8669C28.2768 27.8279 29.5318 27.2569 29.7098 26.6669C31.3788 21.1769 32.8598 15.6259 34.5598 9.49695C30.0138 10.5449 25.9968 11.3889 22.0308 12.4289H22.0298ZM12.0388 22.6919L19.0268 17.2119C19.8788 22.2309 17.2348 24.2799 12.0388 22.6919Z" fill="#BFBFBF"/>
<path d="M173.056 32.009C172.273 31.7964 171.467 31.6799 170.656 31.662C165.556 31.624 160.463 31.569 155.37 31.684C154.389 31.7729 153.482 32.242 152.843 32.991C150.558 35.882 148.435 38.903 146.284 41.898C146 42.4439 145.773 43.0172 145.605 43.609C150.023 43.071 154.93 45.59 157.434 39.562C157.856 40.594 157.883 41.407 158.199 42.085C158.465 42.656 159.049 43.466 159.524 43.485C162.378 43.616 165.24 43.55 168.171 43.55C168.284 43.0381 168.313 42.5112 168.256 41.99C167.506 39.974 168.52 39.305 170.224 38.441C171.776 37.4794 173.106 36.1979 174.124 34.682C175.015 33.532 174.585 32.401 173.061 32.006L173.056 32.009ZM159.561 37.429C160.211 34.178 161.581 33.243 164.705 33.918C164.41 36.418 162.525 37.709 159.561 37.429Z" fill="#BFBFBF"/>
<path d="M126.872 32.039C125.948 31.7981 124.997 31.6725 124.042 31.665C120.505 31.618 116.931 31.959 113.442 31.551C109.012 31.034 106.053 32.481 103.953 36.408C102.434 38.8817 100.774 41.2657 98.98 43.548C101.816 43.548 103.88 43.437 105.916 43.582C106.678 43.7218 107.465 43.6012 108.15 43.2395C108.835 42.8778 109.379 42.2961 109.693 41.588C109.978 40.9918 110.446 40.5019 111.028 40.189C111.61 39.8762 112.276 39.7568 112.931 39.848C115.649 39.848 118.379 39.748 121.084 39.481C122.522 39.3237 123.898 38.81 125.087 37.9865C126.276 37.163 127.24 36.0557 127.893 34.765C128.639 33.481 128.385 32.447 126.873 32.039H126.872ZM113.116 37.6C114.189 34.119 115.449 33.278 118.403 33.946C118.175 36.346 116.533 37.527 113.116 37.6Z" fill="#BFBFBF"/>
<path d="M62.7686 31.612C60.3386 31.657 57.8916 31.458 55.4826 31.687C54.0546 31.8215 52.6844 32.3178 51.5016 33.129C47.8016 35.799 44.2546 38.672 40.6616 41.485C40.1106 41.916 39.6336 42.442 39.1226 42.923L39.4146 43.664C40.3871 43.6275 41.3502 43.4593 42.2776 43.164C45.5846 41.593 48.8006 40.494 51.9876 43.4C52.2096 43.6 52.6876 43.563 53.0516 43.563C55.3346 43.563 57.6236 43.634 59.8986 43.481C60.263 43.4329 60.611 43.2999 60.9147 43.0927C61.2183 42.8855 61.469 42.6098 61.6466 42.288C62.5876 39.346 63.3136 36.337 64.1466 33.361C64.5046 32.084 64.0756 31.588 62.7646 31.613L62.7686 31.612ZM47.2746 39.458L52.9186 34.944C53.1536 39.466 51.8296 40.544 47.2746 39.458Z" fill="#BFBFBF"/>
</svg>
