<svg width="226" height="72" viewBox="0 0 226 72" fill="none" xmlns="http://www.w3.org/2000/svg">
<path d="M145.963 17.476L146.425 21.076C146.749 20.0715 146.923 19.0251 146.942 17.97C147.442 19.015 147.122 19.856 147.271 20.828C147.69 20.1557 147.975 19.4086 148.109 18.628C148.574 18.541 148.455 18.899 148.496 19.135C148.674 19.404 148.16 19.973 148.874 20.011L149.542 18.58C150.034 21.134 150.509 23.6 150.987 26.064C150.996 26.109 151.06 26.15 151.056 26.189C150.788 29.102 151.756 32.007 150.484 34.978C149.582 37.4946 148.488 39.9382 147.211 42.287C146.639 42.787 145.894 42.62 145.224 42.741C145.048 42.841 145.324 43.019 145.224 42.848C145.181 42.768 145.198 42.722 145.276 42.715C146.024 42.647 146.776 42.627 147.522 42.559C148.862 42.3168 150.121 41.7446 151.185 40.894C151.921 40.406 152.668 40.269 152.785 41.294C152.931 42.578 154.017 43.723 153.304 45.137C152.752 46.3476 151.842 47.3597 150.696 48.037C150.043 48.3233 149.414 48.6617 148.815 49.049C148.145 49.579 147.534 49.031 147.004 48.615C144.992 47.034 144.372 47.056 142.404 48.825C140.703 50.4012 138.61 51.4913 136.343 51.981C134.55 52.356 132.983 53.327 131.257 53.895C128.407 54.834 125.413 55.088 122.518 55.806C122.33 55.853 121.165 56.212 121.218 55.032C121.236 54.665 120.527 54.942 120.118 54.556C120.437 54.5364 120.751 54.4734 121.052 54.369C122.391 53.644 123.725 54.003 125.077 54.298C125.27 54.34 125.537 54.167 125.737 54.042C129.284 51.9449 132.656 49.5662 135.821 46.929C135.865 46.7993 135.938 46.6813 136.035 46.5838C136.131 46.4863 136.248 46.4118 136.377 46.366C136.686 46.2994 137.005 46.2994 137.313 46.366C137.138 46.3198 136.957 46.3026 136.777 46.315C136.277 46.2 135.72 46.834 135.259 46.203C135.273 45.669 135.472 45.1565 135.823 44.7534C136.173 44.3504 136.653 44.0819 137.18 43.994C137.606 43.9055 138.01 43.7312 138.366 43.4818C138.723 43.2323 139.025 42.9129 139.254 42.543C140.207 41.2535 140.936 39.8127 141.411 38.281C142.226 35.389 143.144 32.525 143.941 29.628C144.745 26.9499 144.855 24.1114 144.261 21.379C144.812 21.522 144.726 22.064 145.049 22.406C145.072 21.988 145.092 21.628 145.113 21.269C144.988 21.091 145.075 20.955 145.198 20.823C145.406 20.584 145.479 20.268 145.665 20.018C145.694 19.156 145.723 18.2943 145.752 17.433C145.843 17.333 145.913 17.339 145.952 17.474" fill="#BFBFBF"/>
<path d="M20.935 44.32C21.035 43.07 22.002 42.133 22.106 40.86C22.875 41.936 22.606 43.276 23.286 44.34C23.441 44.583 23.359 45.008 23.797 44.94C24.235 44.872 24.604 44.473 24.343 44.122C23.829 43.431 24.188 43.272 24.734 42.965C25.762 42.386 24.526 41.178 25.35 40.409C25.596 40.0869 25.7721 39.717 25.867 39.323C26.233 39.139 26.425 39.446 26.667 39.608C26.788 40.946 27.239 42.273 26.732 43.634C26.632 43.912 26.937 44.153 27.173 44.334C27.563 44.634 27.368 44.634 27.081 44.945C26.427 45.661 27.559 45.79 27.834 46.355C26.753 46.945 25.934 47.789 24.455 47.607C23.7715 47.525 23.079 47.6444 22.4625 47.9507C21.846 48.257 21.3325 48.7368 20.985 49.331C24.851 51.321 26.558 52.377 30.147 50.831C28.729 52.282 28.97 54.287 28.256 55.975C27.9517 56.4718 27.7544 57.0266 27.6768 57.6039C27.5991 58.1813 27.6428 58.7685 27.805 59.328C28.067 59.987 27.525 60.154 27.033 60.269C23.7 61.043 20.433 61.969 16.909 61.813C12.109 61.599 7.30001 61.774 2.49501 61.739C1.94401 61.739 1.11101 62.192 0.977012 60.991C0.846012 59.819 1.50901 59.675 2.36801 59.465C5.6374 58.7761 8.94748 58.2967 12.278 58.03C12.754 57.977 13.259 58 13.549 57.519C13.332 56.795 11.949 57.843 12.14 56.55C12.274 55.87 12.863 55.438 13.087 54.807C13.2397 54.8226 13.3939 54.8045 13.5388 54.7538C13.6836 54.7031 13.8156 54.6212 13.9252 54.5138C14.0349 54.4065 14.1196 54.2763 14.1733 54.1326C14.227 53.9888 14.2484 53.835 14.236 53.682C14.395 53.445 14.429 53.229 14.136 53.067C13.075 53.458 13.255 51.624 12.17 52.129C12.338 51.397 13.219 51.896 13.286 51.266C13.309 51.049 14.095 50.923 13.361 50.597C13.004 50.438 12.661 50.066 12.938 49.677C13.215 49.288 13.638 49.596 13.999 49.724C14.099 49.76 14.252 49.655 14.388 49.612C14.344 49.012 13.793 49.218 13.512 49.025C12.929 48.625 12.735 48.205 13.426 47.866C14.009 47.58 13.952 47.097 13.998 46.674C14.055 46.157 12.964 45.243 14.572 45.341C14.841 45.358 14.543 44.967 14.54 44.773C14.4701 43.0395 14.6431 41.3046 15.054 39.619C15.28 40.119 15.34 40.566 15.536 40.637C16.177 40.869 15.25 42.173 16.217 41.8C16.5411 41.592 16.7889 41.2846 16.9234 40.9238C17.0579 40.563 17.0718 40.1684 16.963 39.799C16.8863 38.6667 17.1142 37.5345 17.623 36.52C18.1164 37.7967 18.4789 39.1201 18.705 40.47C18.778 41.416 19.093 41.76 19.932 41.89C18.953 42.974 18.953 42.974 20.279 43.69C20.403 44 20.135 44.721 20.938 44.318" fill="#BFBFBF"/>
<path d="M78.578 22.2639C79.1729 24.7791 80.0761 27.2111 81.267 29.5049C81.414 29.7679 81.367 29.9879 81.044 30.0169C80.119 30.0999 79.253 30.8569 78.263 30.2359C77.7752 30.0098 77.2365 29.916 76.701 29.9639C74.5174 29.8733 72.3481 29.5665 70.225 29.0479C69.291 28.8149 68.302 28.2269 67.387 29.1669C67.172 29.3879 66.943 29.2269 66.765 29.0359C66.5777 28.8126 66.3774 28.6006 66.165 28.4009C64.718 27.1729 64.102 27.3309 63.553 29.1709C61.311 27.5809 58.967 28.5429 56.653 28.8859C55.474 29.0599 54.353 29.5149 53.373 28.2579C52.873 27.6159 52.152 28.0819 51.849 28.7009C51.656 29.1243 51.3093 29.4586 50.8791 29.6359C50.4489 29.8132 49.9673 29.8204 49.532 29.6559C48.0534 29.348 46.6583 28.726 45.441 27.8319C45.0697 27.6343 44.7821 27.3094 44.6311 26.9169C44.4801 26.5243 44.4758 26.0904 44.619 25.6949C44.808 25.2239 45.037 24.6579 45.747 24.7679C46.389 24.8679 46.916 25.0179 47.091 25.8299C47.491 27.6739 47.809 27.8669 49.653 27.7349C51.236 27.6219 52.826 27.1929 54.393 27.8629C54.65 27.9729 55.04 28.0399 55.173 27.7289C55.387 27.2289 54.863 26.8459 54.796 26.2829C55.774 25.8989 56.596 26.6739 57.479 26.7489C57.58 26.5124 57.608 26.2512 57.5594 25.9986C57.5107 25.7461 57.3877 25.5139 57.206 25.3319C56.468 24.4849 56.53 24.0659 57.642 23.6559C58.17 23.4605 58.6275 23.1117 58.9558 22.6543C59.284 22.1968 59.468 21.6517 59.484 21.0889C59.724 18.8629 59.776 18.8689 62.149 18.8069C60.325 16.3829 58 16.0879 55.121 16.5879C55.735 15.8103 56.5163 15.1808 57.4068 14.7463C58.2973 14.3118 59.2742 14.0833 60.265 14.0779C62.557 14.1309 62.565 14.1249 63.171 11.8889C63.1939 11.6961 63.2671 11.5128 63.3833 11.3572C63.4995 11.2017 63.6546 11.0795 63.833 11.0029C64.4216 10.843 65.0407 10.8324 65.6344 10.9721C66.2281 11.1118 66.7775 11.3974 67.233 11.8029C67.6224 12.065 67.9081 12.4548 68.0406 12.905C68.1732 13.3553 68.1443 13.8377 67.959 14.2689C67.659 15.1689 67.354 16.0689 66.996 17.1329C68.1881 16.755 69.3363 16.2504 70.421 15.6279C70.5809 16.6298 70.5164 17.6548 70.2321 18.6287C69.9478 19.6027 69.4508 20.5014 68.777 21.2599C67.8243 22.2372 67.2241 23.5038 67.071 24.8599C68.778 23.8409 69.825 21.9729 72.021 21.8849C71.5558 22.5142 71.2624 23.2539 71.1699 24.031C71.0773 24.8081 71.1886 25.5959 71.493 26.3169C72.272 25.5329 72.608 24.4479 73.519 23.8429C74.728 23.0429 75.032 23.1289 75.446 24.4579C75.8185 25.4771 76.4611 26.3758 77.305 27.0579C77.4705 25.4016 77.901 23.7827 78.58 22.2629" fill="#BFBFBF"/>
<path d="M134.74 44.729C134.74 42.81 134.715 41.116 134.751 39.423C134.767 38.679 134.51 38.44 133.751 38.4C129.459 38.172 129.46 38.152 129.46 42.385C129.46 44.765 129.41 47.146 129.485 49.523C129.544 49.928 129.468 50.3411 129.269 50.6989C129.071 51.0567 128.76 51.3395 128.385 51.504C127.031 52.176 126.007 53.489 124.233 53.357C123.29 53.287 122.988 53.052 122.998 52.099C123.041 48.117 123.012 44.135 123.009 40.152C123.009 39.114 122.986 38.11 121.902 37.494C121.548 37.294 121.402 34.073 121.639 33.7C121.865 33.35 122.228 33.413 122.557 33.412C128.724 33.408 134.891 33.4046 141.057 33.402C141.726 33.402 142.097 33.547 141.848 34.317C141.031 36.845 140.548 39.497 138.93 41.717C138.722 42.126 138.421 42.4812 138.052 42.7545C137.684 43.0278 137.256 43.2118 136.804 43.292C135.942 43.365 135.596 44.192 134.742 44.727" fill="#BFBFBF"/>
<path d="M51.8008 16.874C52.2424 16.9458 52.6734 17.0721 53.0838 17.25C53.4998 17.512 54.4778 17.366 54.1898 18.189C53.9418 18.896 53.2898 19.667 52.3998 19.247C51.3648 18.76 50.9638 19.178 50.5198 20.005C50.1016 20.755 49.4847 21.375 48.7368 21.797C50.3318 18.39 51.2528 14.765 54.6368 12.597C55.8368 11.828 57.0658 10.797 56.9738 8.89701C56.9208 7.80401 58.0938 7.37601 59.6388 7.90401C60.8294 8.31705 62.088 8.49898 63.3468 8.44001C67.9781 8.32445 72.5069 7.05216 76.5208 4.73901C77.9402 3.79237 79.5406 3.15051 81.2208 2.85401C83.023 2.63358 84.8497 2.96482 86.4598 3.80401C91.1278 6.21101 95.9018 5.98801 100.778 4.75301C104.795 3.78597 108.943 3.48196 113.058 3.85301C111.084 4.01401 109.106 4.12901 107.148 4.43301C105.324 4.72917 103.56 5.3188 101.925 6.17901C97.6093 8.51832 92.5753 9.16032 87.8108 7.97901C87.2304 7.80633 86.6183 7.76769 86.0208 7.86601C87.6678 8.92101 89.4208 9.49501 90.7868 10.689C92.2278 11.962 93.3942 13.5152 94.2148 15.254C93.1148 14.772 92.2768 14.46 91.4888 14.048C83.8296 10.133 75.2143 8.47891 66.6498 9.27901C61.0498 9.68701 55.9388 11.206 52.3948 16.006C52.2238 16.238 52.0688 16.481 51.8018 16.873" fill="#BFBFBF"/>
<path d="M181.304 60.662C180.843 61.048 180.29 60.896 179.775 60.896C176.357 60.896 172.938 60.876 169.52 60.862C169.566 60.236 169.632 59.611 169.654 58.984C169.691 57.899 169.43 56.784 170.607 55.99C171.107 55.653 171.084 54.852 171.085 54.215C171.091 49.502 171.103 44.788 171.08 40.075C171.16 39.5918 171.1 39.0959 170.907 38.6459C170.714 38.1958 170.396 37.8103 169.991 37.535C169.697 37.368 169.547 37.076 169.773 36.821C170.034 36.527 170.306 36.855 170.516 36.994C171.658 37.6518 172.618 38.583 173.311 39.704C173.702 40.4501 174.356 41.0245 175.146 41.316C175.509 37.716 173.689 35.444 170.965 33.431C172.914 33.431 174.865 33.423 176.814 33.437C177.267 33.437 177.455 33.843 177.657 34.164C178.437 35.3959 179.074 36.7123 179.557 38.088C177.757 37.788 177.715 38.788 177.734 40.088C177.804 44.703 177.758 49.32 177.777 53.936C177.777 55.105 177.786 56.225 179.188 56.836C179.953 57.17 179.579 58.169 179.509 58.82C179.355 60.261 179.816 60.909 181.302 60.659" fill="#BFBFBF"/>
<path d="M94.0842 45.021C92.0302 44.256 90.2332 43.229 88.1502 43.178C87.7172 43.167 87.6092 42.878 87.5842 42.489C87.5462 41.909 87.4842 41.328 87.4052 40.753C87.1562 39.005 86.2702 38.136 84.7052 38.079C83.0052 38.017 81.8502 38.664 81.8052 40.419C81.7532 42.658 80.7172 43.308 78.7642 43.535C77.7725 43.7613 76.816 44.1212 75.9212 44.605C75.4762 44.791 75.0462 45.005 75.0582 44.247C75.0932 42.072 74.8282 39.872 75.4932 37.742C75.8316 36.5663 76.5023 35.5133 77.4248 34.7097C78.3472 33.9061 79.4822 33.386 80.6932 33.212C83.2211 32.7058 85.8241 32.7028 88.3532 33.203C91.4962 33.813 93.2242 35.638 93.8422 38.818C94.088 40.8749 94.1683 42.9483 94.0822 45.018" fill="#BFBFBF"/>
<path d="M171.443 17.08C170.834 17.226 170.197 17.199 169.603 17.002C169.009 16.805 168.481 16.4458 168.081 15.965C167.221 15.008 165.887 14.765 164.728 14.282C163.122 13.7322 161.567 13.0442 160.08 12.226C158.76 11.2622 157.823 9.86318 157.435 8.27593C157.047 6.68868 157.231 5.01524 157.957 3.55098C158.107 3.29598 158.257 2.95098 158.557 2.98398C159.041 3.03698 158.865 3.50298 158.897 3.80698C159.005 4.81898 158.997 5.85098 159.205 6.84198C159.308 7.38431 159.53 7.89699 159.856 8.3431C160.181 8.78922 160.601 9.15769 161.086 9.42198C161.861 6.27798 161.986 2.98098 164.063 0.000976562C164.311 1.00439 164.277 2.05705 163.963 3.04198C163.55 4.84186 163.398 6.69182 163.512 8.53498C163.52 9.09533 163.645 9.64785 163.879 10.157C164.113 10.6661 164.451 11.1205 164.872 11.491C165.549 12.049 166.127 12.303 166.224 10.985C166.328 9.92303 166.521 8.87169 166.801 7.84198C166.838 7.46918 166.965 7.11091 167.17 6.79756C167.376 6.48421 167.654 6.22503 167.981 6.04198C167.898 7.00198 167.823 7.78998 167.765 8.57898C167.719 9.20598 167.665 9.83598 167.676 10.463C167.685 10.835 167.73 11.331 168.169 11.416C168.669 11.516 168.728 10.998 168.879 10.654C169.949 7.89623 171.239 5.22897 172.737 2.67798C172.796 2.54538 172.862 2.41648 172.937 2.29198C173.259 1.91098 173.468 1.08198 174.028 1.37098C174.615 1.67098 174.064 2.33598 173.891 2.78398C173.332 4.23098 172.609 5.61898 172.14 7.09098C171.928 7.75498 171.148 9.02798 172.986 8.94698C173.453 8.92698 173.43 9.39498 173.408 9.72398C173.321 11.3786 173.649 13.0287 174.363 14.524C174.682 15.231 174.57 15.524 173.756 15.373C173.565 15.338 173.371 15.323 173.179 15.296C171.342 15.03 171.092 15.283 171.449 17.081" fill="#BFBFBF"/>
<path d="M121.041 5.89902C121.724 5.53402 122.227 5.92302 122.72 6.14302C125.986 7.55168 128.886 9.68807 131.2 12.389C135.34 17.2812 138.81 22.702 141.521 28.509C141.847 29.0518 142.01 29.6764 141.992 30.309C141.137 30.309 140.276 30.288 139.417 30.315C138.688 30.338 138.593 29.755 138.375 29.292C137.326 26.7837 135.927 24.4367 134.219 22.321C132.411 20.3547 130.344 18.643 128.075 17.233C127.646 16.952 127.222 16.663 126.786 16.371C126.949 16.178 126.995 16.071 127.061 16.053C129.425 15.576 129.497 15.466 128.461 13.296C127.113 10.5829 125.002 8.32197 122.388 6.79002C121.945 6.51302 121.515 6.21602 121.036 5.90102" fill="#BFBFBF"/>
<path d="M88.2678 50.438C86.9318 50.247 85.5919 50.078 84.2599 49.857C83.5899 49.746 83.3288 50.765 82.4598 50.319C81.6668 49.912 81.0858 49.65 81.5818 48.668C81.6228 48.4793 81.6103 48.2828 81.5456 48.1008C81.4809 47.9189 81.3667 47.7586 81.2158 47.638C81.1349 47.7221 81.0374 47.7885 80.9295 47.8329C80.8215 47.8773 80.7055 47.8988 80.5888 47.896C79.6173 47.4406 78.5366 47.2693 77.4718 47.402C77.3888 47.4112 77.3049 47.4112 77.2218 47.402C77.2438 47.578 77.4378 47.602 77.5138 47.74C77.5307 47.9829 77.4894 48.2264 77.3934 48.4502C77.2974 48.674 77.1495 48.8717 76.9618 49.027C76.8403 49.1049 76.7042 49.1573 76.5618 49.181C75.7978 49.214 75.6168 48.605 75.3558 48.081C74.7558 47.731 73.6128 48.123 73.5268 47.345C73.4508 46.661 74.5038 46.392 75.1038 46.012C78.4757 43.8125 82.5636 42.9924 86.5229 43.721C87.4739 43.886 88.4479 43.921 89.4119 44.01C89.7387 44.1606 90.0375 44.3655 90.2958 44.616C92.3768 45.133 94.4279 45.705 95.8289 47.516C95.9559 47.75 95.8538 48.011 95.9138 48.253C95.9308 48.4448 95.9135 48.6382 95.8628 48.824C95.1738 49.407 95.2949 50.532 94.4159 50.993C93.5339 51.283 92.7039 50.821 91.8419 50.824C90.6419 50.767 89.4688 50.484 88.2698 50.432" fill="#BFBFBF"/>
<path d="M133.445 56.7529C133.876 56.5251 134.228 56.1722 134.455 55.7406C134.681 55.3091 134.772 54.819 134.715 54.3349C134.66 53.5739 134.851 53.0759 135.757 52.9159C137.78 52.5839 139.695 51.7783 141.347 50.5649C141.347 52.0359 141.352 53.2189 141.347 54.4009C141.305 54.8398 141.393 55.2813 141.6 55.6705C141.807 56.0597 142.124 56.3795 142.511 56.5899C142.691 57.7279 142.743 58.8825 142.664 60.0319C142.708 60.6199 142.376 60.7619 141.854 60.7599C139.295 60.7499 136.736 60.7429 134.178 60.7599C133.559 60.7599 133.288 60.5489 133.332 59.9179C133.29 58.8605 133.328 57.8014 133.448 56.7499" fill="#BFBFBF"/>
<path d="M91.6841 23.9929C95.5935 25.3973 99.1664 27.6027 102.174 30.4679C100.879 30.8397 99.6769 31.478 98.6436 32.342C97.6103 33.206 96.7691 34.2766 96.1741 35.4849C94.7741 33.4319 92.9431 31.8499 93.0951 29.1129C93.1881 27.4509 92.1441 25.9129 91.6851 23.9929" fill="#BFBFBF"/>
<path d="M104.009 17.4309C102.939 16.1652 102.327 14.5754 102.273 12.9189C102.215 12.3817 102.286 11.8384 102.48 11.3341C102.674 10.8298 102.985 10.3789 103.388 10.0189C103.909 11.8016 104.632 13.5191 105.542 15.1379C105.901 15.6769 106.122 16.4129 107.042 16.2469C107.379 16.1859 107.59 16.3929 107.511 16.7719C107.311 17.7559 107.963 18.3509 108.595 18.8359C109.841 19.9909 111.207 21.0087 112.67 21.8719C112.896 21.9903 113.079 22.1763 113.193 22.4038C113.308 22.6313 113.349 22.8891 113.31 23.1409C113.222 23.3632 113.057 23.5463 112.845 23.6565C112.632 23.7668 112.388 23.7967 112.155 23.7409C110.248 23.4603 108.492 22.5416 107.174 21.1349C106.934 20.9089 106.725 20.6519 106.299 20.1889C106.514 21.3529 105.95 21.5319 105.225 21.4949C104.078 21.4369 103.09 21.0579 102.853 19.8059C102.702 19.0059 102.446 18.0249 103.706 17.7509C104.05 17.8729 104.195 17.8079 104.006 17.4299" fill="#BFBFBF"/>
<path d="M188.593 37.969C188.593 39.133 188.562 40.298 188.604 41.46C188.631 42.195 188.404 42.518 187.618 42.485C186.36 42.431 184.783 42.917 183.918 42.327C182.938 41.656 183.975 40.09 183.933 38.903C184.007 37.4507 183.938 35.9947 183.727 34.556C183.511 33.637 183.858 33.406 184.758 33.387C188.59 33.308 188.589 33.28 188.589 37.096C188.589 37.3866 188.589 37.6776 188.589 37.969" fill="#BFBFBF"/>
<path d="M95.545 47.909L95.8261 47.522C96.9621 48.61 97.076 50.067 97.26 51.499C97.14 51.722 96.687 51.399 96.699 51.84C95.861 52.6652 95.0659 53.533 94.3171 54.44C94.6854 53.9757 95.1177 53.5659 95.601 53.223C95.853 53.382 96.146 53.184 96.401 53.307C96.601 53.277 96.8821 53.067 96.9511 53.413C97.0201 53.759 96.717 53.856 96.427 53.896C95.6376 54.4528 94.9615 55.155 94.435 55.965C93.5992 57.2824 92.3447 58.2806 90.8731 58.799C91.7881 56.737 92.5131 54.892 91.5291 52.799C91.2997 52.2406 90.8637 51.7921 90.312 51.547C89.925 51.362 89.6981 51.168 90.2661 50.915C90.7601 50.328 91.4361 50.615 92.0371 50.547C92.9221 50.591 93.792 51.228 94.695 50.618C94.62 49.788 94.7371 49.518 95.5411 48.674C96.0581 49.116 96.0581 49.116 95.9811 49.954C96.3741 49.154 95.8001 48.566 95.5411 47.908" fill="#BFBFBF"/>
<path d="M35.7828 36.62L36.4338 32.115C37.5518 33.291 37.1908 34.803 37.6708 36.047C37.8848 36.601 38.5948 37.355 37.8708 38.206C37.6168 38.506 38.2908 38.461 38.5268 38.589C38.8458 38.761 39.4128 38.589 39.4768 39.08C39.5338 39.517 39.0588 39.509 38.7438 39.597C38.6158 39.633 38.4078 39.681 38.4998 39.866C39.2158 41.297 37.9138 40.854 37.3758 41.042C36.6478 41.295 35.8758 41.42 35.1368 41.642C34.0368 41.97 34.2228 41.984 34.2148 40.864C34.2875 39.6076 34.4284 38.3561 34.6368 37.115C35.3418 37.178 35.0168 37.894 35.3668 38.281L35.7378 37.546C35.8079 37.4927 35.8655 37.4246 35.9063 37.3465C35.9471 37.2685 35.9703 37.1824 35.9741 37.0944C35.9779 37.0064 35.9623 36.9186 35.9284 36.8373C35.8945 36.756 35.8431 36.6832 35.7778 36.624" fill="#BFBFBF"/>
<path d="M71.5022 69.363C71.2022 69.92 71.0812 70.863 70.1532 69.979C70.1182 69.946 70.0692 69.872 70.0532 69.879C67.6412 71.032 68.9822 68.908 68.7532 68.291C68.6271 67.6734 68.6146 67.0381 68.7162 66.416C68.7282 66.06 68.5902 65.606 69.1902 65.54C69.2973 65.5184 69.4078 65.5194 69.5146 65.543C69.6213 65.5666 69.7219 65.6123 69.81 65.677C69.898 65.7418 69.9715 65.8243 70.0258 65.9192C70.0801 66.0141 70.1139 66.1193 70.1252 66.228C70.2592 66.741 70.4102 67.249 70.5662 67.802C71.1902 67.345 71.1012 66.641 71.3082 66.077C71.3557 65.8896 71.4751 65.7285 71.6406 65.6286C71.806 65.5286 72.0042 65.4979 72.1922 65.543C72.6602 65.579 72.7032 65.916 72.7052 66.27C72.7122 67.289 72.7192 68.308 72.7052 69.326C72.7052 69.693 72.8132 70.158 72.2862 70.281C71.5002 70.465 71.7412 69.703 71.4992 69.365" fill="#BFBFBF"/>
<path d="M78.3748 67.8399C78.3748 67.3049 78.3748 66.7709 78.3748 66.2399C78.3748 65.8749 78.4438 65.5559 78.9148 65.5509C79.3858 65.5459 79.4658 65.8509 79.4688 66.2259C79.4457 66.8086 79.4531 67.392 79.4908 67.9739C79.5438 68.4409 79.1628 69.2739 79.9048 69.2839C80.8288 69.2909 80.2938 68.3839 80.3838 67.8999C80.4374 67.3683 80.4461 66.833 80.4098 66.2999C80.4098 65.9539 80.4098 65.5889 80.8888 65.5529C81.4438 65.5109 81.5238 65.8829 81.5078 66.3089C81.456 67.6596 81.5566 69.0118 81.8078 70.3399C81.8658 70.6399 81.9198 71.0569 81.4928 71.2129C81.4155 71.2513 81.3299 71.2701 81.2437 71.2677C81.1574 71.2654 81.073 71.2419 80.9979 71.1994C80.9228 71.1568 80.8593 71.0965 80.8129 71.0238C80.7665 70.951 80.7387 70.8679 80.7318 70.7819C80.7203 70.7092 80.6937 70.6397 80.6539 70.5778C80.614 70.5158 80.5617 70.4629 80.5003 70.4223C80.4389 70.3816 80.3697 70.3542 80.2972 70.3418C80.2246 70.3293 80.1502 70.3321 80.0788 70.3499C78.2328 70.7009 78.2588 69.5329 78.3698 68.2809C78.3828 68.1369 78.3698 67.9899 78.3698 67.8439L78.3748 67.8399Z" fill="#BFBFBF"/>
<path d="M160.943 66.218C160.33 67.236 160.672 68.04 160.504 68.776C160.377 69.332 160.385 69.956 159.779 70.284C159.678 70.3515 159.561 70.3904 159.439 70.3963C159.318 70.4023 159.197 70.3753 159.09 70.318C158.85 70.18 158.711 69.851 158.862 69.709C159.869 68.757 159.408 67.548 159.42 66.46C159.433 65.341 160.131 65.478 160.783 65.533C161.403 65.585 162.366 65.114 162.335 66.401C162.31 67.467 162.335 68.534 162.325 69.601C162.325 69.962 162.258 70.293 161.787 70.29C161.316 70.287 161.272 69.959 161.239 69.598C161.323 68.4629 161.224 67.3216 160.945 66.218" fill="#BFBFBF"/>
<path d="M120.873 30.336C117.049 29.894 119.262 32.719 118.338 33.851C117.825 33.6211 117.424 33.1973 117.223 32.6725C117.022 32.1477 117.038 31.5646 117.266 31.051C117.753 29.672 117.354 28.177 117.489 26.561C118.811 27.575 119.535 28.927 120.874 30.337" fill="#BFBFBF"/>
<path d="M51.1929 67.7339C51.4709 67.1129 50.6459 65.7169 51.7189 65.6929C52.6269 65.6729 51.9738 67.0609 52.1518 67.7999C52.1932 68.137 52.2026 68.4771 52.1798 68.8159C52.1928 69.1509 52.3478 69.3559 52.7138 69.3519C53.0798 69.3479 53.2139 69.1309 53.2219 68.7989C53.2299 67.9259 53.2278 67.0519 53.2398 66.1789C53.2398 65.8789 53.2858 65.5849 53.6818 65.5649C54.0778 65.5449 54.1818 65.8049 54.1818 66.1229C54.1303 67.569 54.2349 69.0163 54.4938 70.4399C54.5598 70.7469 54.5619 71.1549 54.0939 71.2459C53.7159 71.3199 53.5808 71.0819 53.5308 70.7569C53.523 70.6837 53.4988 70.6132 53.4601 70.5505C53.4214 70.4879 53.3691 70.4348 53.3071 70.395C53.2451 70.3553 53.175 70.33 53.1019 70.321C53.0288 70.3119 52.9546 70.3195 52.8849 70.3429C51.0389 70.7019 51.0849 69.5279 51.1849 68.2879C51.1979 68.1439 51.1849 67.9969 51.1849 67.7349" fill="#BFBFBF"/>
<path d="M135.551 65.543C135.888 65.5262 136.225 65.5286 136.562 65.55C137.034 65.604 137.154 66.121 136.881 66.243C135.391 66.909 136.375 68.178 136.096 69.123C135.975 69.534 136.346 70.236 135.605 70.268C134.745 70.305 135.105 69.538 134.989 69.081C134.751 68.126 135.632 66.867 134.161 66.215C133.913 66.105 134.069 65.576 134.539 65.543C134.875 65.519 135.214 65.543 135.551 65.543V65.549Z" fill="#BFBFBF"/>
<path d="M151.058 67.865C151.042 67.5281 151.044 67.1906 151.065 66.854C151.114 66.41 150.825 65.776 151.441 65.596C152.094 65.4195 152.783 65.4264 153.433 65.616C153.646 65.674 153.66 65.893 153.633 66.093C153.632 66.1415 153.62 66.1891 153.599 66.2328C153.578 66.2765 153.548 66.3152 153.51 66.3465C153.473 66.3778 153.43 66.401 153.384 66.4145C153.337 66.428 153.288 66.4316 153.24 66.425C151.862 66.278 152.159 67.26 152.146 68.03C152.138 68.56 152.146 69.09 152.138 69.62C152.138 69.975 152.09 70.309 151.608 70.294C151.148 70.28 151.072 69.955 151.064 69.594C151.052 69.016 151.064 68.438 151.064 67.86L151.058 67.865Z" fill="#BFBFBF"/>
<path d="M87.2802 67.812C87.2802 67.472 87.2582 67.131 87.2862 66.793C87.3202 66.38 87.0922 65.754 87.5922 65.63C88.2597 65.5232 88.939 65.5134 89.6092 65.601C89.7942 65.611 89.8692 65.853 89.8482 66.067C89.8489 66.116 89.8394 66.1645 89.8202 66.2096C89.8011 66.2547 89.7727 66.2952 89.7369 66.3287C89.7011 66.3621 89.6587 66.3877 89.6124 66.4038C89.5662 66.4198 89.5171 66.426 89.4682 66.422C87.8782 66.236 88.3062 67.389 88.2682 68.222C88.2432 68.755 88.2572 69.29 88.2422 69.822C88.249 69.8822 88.2424 69.9431 88.223 70.0005C88.2036 70.0579 88.1719 70.1103 88.13 70.1541C88.0881 70.1978 88.0372 70.2319 87.9807 70.2538C87.9242 70.2757 87.8637 70.285 87.8032 70.281C87.7427 70.2883 87.6812 70.2825 87.623 70.2641C87.5649 70.2457 87.5113 70.215 87.4659 70.1742C87.4205 70.1334 87.3844 70.0833 87.36 70.0274C87.3356 69.9715 87.3234 69.911 87.3242 69.85C87.3072 69.171 87.3182 68.492 87.3182 67.814H87.2812" fill="#BFBFBF"/>
<path d="M133.445 56.753C133.459 56.946 133.483 57.14 133.487 57.334C133.558 60.612 133.558 60.612 136.918 60.612C138.423 60.612 139.929 60.583 141.433 60.622C142.26 60.644 142.562 60.307 142.527 59.502C142.484 58.533 142.512 57.56 142.509 56.589C143.165 57.972 142.583 59.46 142.871 60.874L133.154 60.888C133.474 59.525 132.974 58.105 133.445 56.753Z" fill="#BFBFBF"/>
<path d="M110.347 29.872C107.082 29.956 107.082 29.956 107.299 27.182C108.586 27.689 109.285 28.742 110.347 29.872Z" fill="#BFBFBF"/>
<path d="M75.3539 48.085C75.9299 48.143 75.9809 48.958 76.6029 48.95C76.6731 49.0177 76.7205 49.1056 76.7384 49.2015C76.7564 49.2974 76.7439 49.3965 76.7029 49.485C76.5289 49.728 76.2139 49.619 76.0029 49.766C75.1539 49.78 73.8679 50.176 73.6159 49.406C73.3529 48.606 74.9249 48.794 75.3519 48.084" fill="#BFBFBF"/>
<path d="M76.5811 49.516L76.6021 48.949L76.9361 48.926C77.3741 48.486 77.9001 48.665 78.4061 48.72C78.8432 48.8265 79.3028 48.7908 79.7182 48.6181C80.1336 48.4455 80.4832 48.1449 80.7161 47.76L81.2101 47.166C81.3744 47.3247 81.4745 47.5383 81.4913 47.7661C81.5081 47.994 81.4404 48.22 81.3011 48.401C81.0171 49.514 80.444 50.034 79.201 49.663C78.5363 49.5478 77.8599 49.5142 77.187 49.563C76.987 49.51 76.7711 49.706 76.5821 49.518" fill="#BFBFBF"/>
<path d="M26.0881 38.0839C25.5881 37.3839 26.0961 36.936 26.5071 36.45C26.0591 37.289 27.1321 38.1899 26.3721 38.9989C25.6921 38.8759 26.0511 38.4289 26.0871 38.0839" fill="#BFBFBF"/>
<path d="M13.0878 54.8149C14.0058 56.0669 12.2348 55.8569 12.1408 56.5579C12.0528 55.7579 12.1518 55.0579 13.0878 54.8149Z" fill="#BFBFBF"/>
<path d="M92.042 50.667L90.27 50.914C89.682 50.421 88.839 50.999 88.27 50.437H92.041C92.1537 50.4877 92.1917 50.5393 92.155 50.592C92.119 50.645 92.082 50.672 92.044 50.672" fill="#BFBFBF"/>
<path d="M20.9352 44.321C20.7002 44.958 20.2352 45.137 19.7782 44.66C19.1782 44.03 20.2472 44.096 20.2782 43.693L20.9372 44.321" fill="#BFBFBF"/>
<path d="M147.526 42.558C147.155 42.7295 146.752 42.8206 146.343 42.8254C145.935 42.8302 145.53 42.7487 145.155 42.586L147.212 42.286L147.526 42.559" fill="#BFBFBF"/>
<path d="M148.391 19.2159L148.11 18.6259C148.204 18.1353 148.298 17.6446 148.393 17.1539L148.6 17.1709V19.1379C148.576 19.2869 148.5 19.3069 148.39 19.2159" fill="#BFBFBF"/>
<path d="M81.301 48.401C81.2703 47.9896 81.24 47.578 81.21 47.166C81.28 47.037 81.374 46.675 81.495 46.927C81.748 47.458 82.1059 48.065 81.5829 48.668L81.301 48.401Z" fill="#BFBFBF"/>
<path d="M222.716 57.7289L221.484 57.5289C221.809 56.9199 222.317 57.1769 222.695 57.0439C222.702 57.2706 222.709 57.4973 222.716 57.7239" fill="#BFBFBF"/>
<path d="M178.437 69.376C178.06 69.353 177.76 69.286 177.791 68.81C177.814 68.457 178.011 68.31 178.35 68.281C178.72 68.249 179.215 68.319 179.145 67.716C179.089 67.23 178.645 67.356 178.334 67.326C178.023 67.296 177.765 67.203 177.814 66.809C177.854 66.486 178.108 66.45 178.349 66.462C178.96 66.491 179.436 66.403 179.256 65.605L176.691 65.629C176.738 66.6956 176.723 67.7641 176.645 68.829C176.464 70.272 177.206 70.475 178.338 70.329C178.691 70.283 179.198 70.466 179.254 69.893C179.314 69.273 178.795 69.393 178.436 69.376" fill="#BFBFBF"/>
<path d="M177.843 65.279H176.943C176.951 64.964 176.843 64.557 177.315 64.513C177.877 64.46 177.842 64.901 177.846 65.279" fill="#BFBFBF"/>
<path d="M178.896 65.262L178.107 65.279C178.116 65.005 177.999 64.626 178.401 64.579C178.878 64.523 178.919 64.895 178.896 65.262Z" fill="#BFBFBF"/>
<path d="M136.372 46.5839L135.829 46.9299L135.266 46.2049L136.946 46.0449C137.14 46.6339 136.507 46.3449 136.373 46.5839" fill="#BFBFBF"/>
<path d="M96.7138 51.5469C96.8628 51.1539 97.0758 51.4859 97.2598 51.4989C97.2644 51.9223 97.2691 52.3456 97.2738 52.7689L96.7478 52.2059C96.6994 52.1669 96.6598 52.1182 96.6315 52.0628C96.6033 52.0075 96.5869 51.9468 96.5836 51.8847C96.5803 51.8227 96.5901 51.7606 96.6124 51.7026C96.6346 51.6446 96.6688 51.5919 96.7128 51.548" fill="#BFBFBF"/>
<path d="M145.963 17.4759C145.894 17.4786 145.825 17.4645 145.763 17.4349C145.389 17.1069 145.383 16.7049 145.551 16.1429C145.849 16.5211 145.997 16.9956 145.967 17.4759" fill="#BFBFBF"/>
<path d="M26.0879 38.087C26.1599 38.399 26.064 38.764 26.373 39.002L26.673 39.616L25.873 39.331C25.8151 39.1203 25.8048 38.8994 25.8428 38.6842C25.8809 38.4691 25.9663 38.2651 26.093 38.087" fill="#BFBFBF"/>
<path d="M148.391 19.2159L148.601 19.1379C148.701 19.4269 148.573 19.7859 148.875 20.0099L148.531 20.8389C148.332 20.322 148.284 19.7593 148.391 19.2159Z" fill="#BFBFBF"/>
<path d="M14.1362 53.0739C14.4562 53.0909 14.7662 53.2239 15.1362 53.0079C15.0442 53.7149 14.5602 53.5709 14.2362 53.6889L14.1362 53.0739Z" fill="#BFBFBF"/>
<path d="M90.2942 44.62C89.7512 44.781 89.6682 44.27 89.4102 44.014C89.9022 43.928 90.2822 44.005 90.2942 44.62Z" fill="#BFBFBF"/>
<path d="M29.3511 44.517C29.4511 44.007 29.6711 43.666 29.9331 43.749C30.4691 43.92 30.0231 44.138 29.8571 44.293C29.6989 44.3891 29.5288 44.4641 29.3511 44.516" fill="#BFBFBF"/>
<path d="M35.7818 36.62L36.4818 37.048L35.7368 37.548L35.7768 36.625" fill="#BFBFBF"/>
<path d="M174.929 26.199C175.073 25.8428 175.338 25.5493 175.678 25.371C175.724 25.5867 175.706 25.8109 175.628 26.017C175.55 26.223 175.414 26.4022 175.236 26.533L174.929 26.199Z" fill="#BFBFBF"/>
<path d="M145.673 20.021C145.607 20.334 146.065 20.796 145.411 20.94C145.119 20.69 144.804 20.445 145.188 20.029L145.673 20.021Z" fill="#BFBFBF"/>
<path d="M145.187 20.0279L145.41 20.9389L145.12 21.2709C144.891 20.8037 144.796 20.2819 144.847 19.7639C144.932 19.6446 145.012 19.6476 145.088 19.7729C145.134 19.8523 145.168 19.9383 145.188 20.0279" fill="#BFBFBF"/>
<path d="M144.23 18.0659C144.102 17.9316 144.016 17.7636 143.98 17.5816C143.945 17.3997 143.962 17.2114 144.03 17.0389C144.439 17.1099 144.37 17.4989 144.512 17.7389C144.425 17.8549 144.412 18.0389 144.226 18.0649" fill="#BFBFBF"/>
<path d="M186.634 49.186L186.276 49.521C186.026 49.37 185.56 49.238 185.853 48.887C186.044 48.659 186.422 48.932 186.633 49.187" fill="#BFBFBF"/>
<path d="M76.5809 49.517C76.7869 49.48 77.0079 49.23 77.1859 49.561C77.0176 49.683 76.8236 49.765 76.6187 49.8007C76.4139 49.8364 76.2036 49.8249 76.0039 49.767L76.5799 49.517" fill="#BFBFBF"/>
<path d="M104.009 17.431C104.235 17.57 104.555 17.592 104.634 17.931C104.481 18.0078 104.308 18.032 104.14 18C103.972 17.968 103.82 17.8816 103.706 17.754L104.006 17.433" fill="#BFBFBF"/>
<path d="M144.23 18.067L144.516 17.741L144.779 18.631C144.765 18.6938 144.737 18.7524 144.696 18.8018C144.655 18.8513 144.602 18.8901 144.543 18.915C144.434 18.8036 144.35 18.6705 144.296 18.5244C144.242 18.3783 144.22 18.2224 144.23 18.067Z" fill="#BFBFBF"/>
<path d="M144.542 18.914L144.778 18.63L145.089 19.772H144.968L144.847 19.762C144.547 19.549 144.556 19.227 144.541 18.912" fill="#BFBFBF"/>
<path d="M156.268 48.621C159.22 48.621 159.227 48.621 159.197 51.585C159.256 52.503 159.165 53.4246 158.926 54.313C158.768 54.9035 158.407 55.4198 157.908 55.7717C157.408 56.1237 156.8 56.2891 156.191 56.239C155.579 56.2868 154.971 56.1101 154.48 55.742C153.989 55.3739 153.649 54.8396 153.523 54.239C153.232 52.572 153.151 50.8752 153.281 49.188C153.268 48.633 153.689 48.62 154.091 48.62H156.268" fill="#BFBFBF"/>
<path d="M96.7141 51.547C96.7254 51.7664 96.7368 51.9857 96.7481 52.205C96.752 52.2868 96.7307 52.3678 96.6871 52.437C96.3491 52.567 96.3361 53.066 95.9211 53.109C95.1431 53.896 94.3291 54.65 93.5991 55.497C94.4131 54.006 95.0901 52.415 96.7131 51.546" fill="#BFBFBF"/>
<path d="M95.9218 53.11C96.1038 52.803 96.2508 52.455 96.6878 52.438L96.4048 53.311C96.2208 53.3 95.8888 53.645 95.9228 53.111" fill="#BFBFBF"/>
<path d="M224.232 59.647C222.713 59.695 221.192 59.661 219.671 59.661C219.664 59.5276 219.656 59.3966 219.649 59.268C221.286 58.741 223.026 58.943 225.043 58.876C224.374 58.3077 223.574 57.9143 222.716 57.731C222.389 57.514 222.427 57.286 222.695 57.051C222.423 56.751 221.625 56.415 222.636 56.143C222.861 56.107 223.073 56.0131 223.25 55.8703C223.428 55.7276 223.565 55.541 223.649 55.329C222.398 55.004 220.957 55.301 220.221 53.947C220.416 53.699 220.636 53.771 220.884 53.785C221.961 53.848 221.14 53.301 221.057 53.078C221.004 52.937 220.507 53.042 220.657 52.669C220.686 52.6009 220.731 52.5402 220.786 52.4913C220.842 52.4424 220.908 52.4065 220.979 52.3862C221.051 52.3659 221.125 52.3618 221.199 52.374C221.272 52.3862 221.341 52.4146 221.402 52.457C221.912 52.757 222.453 52.691 222.643 52.237C222.833 51.783 222.201 51.563 221.912 51.263C221.695 51.0829 221.457 50.9294 221.203 50.806C221.522 50.693 222.003 50.663 222.097 50.459C222.277 50.047 221.706 50.025 221.52 49.785C221.129 49.285 219.515 49.237 220.834 48.03C221.05 47.83 220.727 47.764 220.552 47.73C220.359 47.696 219.869 47.72 220.109 47.479C221.128 46.457 219.785 45.079 220.734 44.242C220.297 43.635 219.585 44.771 219.124 43.642C218.655 42.7394 218.342 41.7645 218.197 40.758C218.17 39.333 217.427 38.29 217.028 37.045C216.637 39.333 216.053 41.575 216.589 44.004C216.386 43.8413 216.136 43.7498 215.876 43.7437C215.617 43.7376 215.362 43.8171 215.152 43.97C214.861 44.409 215.375 44.77 215.27 45.227C215.134 44.7673 214.909 44.3391 214.607 43.967C214.565 43.947 214.522 43.912 214.479 43.912C214.436 43.912 214.374 43.958 214.379 43.977C214.479 44.892 213.559 45.396 213.468 46.233C213.568 46.492 213.477 46.733 213.218 46.733C212.761 46.733 213.124 46.156 212.791 46.033C211.607 45.5 213.13 44.633 212.452 43.917C211.879 44.843 210.862 45.317 210.742 46.647C210.666 47.49 211.166 49.147 209.249 48.998C209.194 48.998 209.043 49.238 209.073 49.298C209.588 50.329 208.443 49.944 208.207 50.326C208.264 50.4437 208.315 50.5646 208.358 50.688C208.435 51.166 208.193 50.638 208.146 50.75C207.834 50.8132 207.511 50.7771 207.221 50.6466C206.93 50.5162 206.689 50.2981 206.529 50.023C207.393 49.842 207.348 49.011 207.84 48.462C206.94 48.287 206.085 48.252 205.74 47.297C206.299 47.2908 206.846 47.131 207.321 46.835C206.038 46.412 206.038 46.412 206.68 45.49C206.493 45.361 206.402 45.238 206.697 45.133C206.99 44.841 207.465 45.423 207.708 44.933C207.586 43.985 206.369 44.281 206.064 43.508C206.703 43.185 207.355 43.923 208.181 43.327C207.227 43.102 206.814 42.408 206.181 41.98C205.435 41.48 205.691 40.493 205.181 39.829C204.966 39.55 206.141 40.136 205.797 39.537C205.148 38.403 205.438 36.999 204.575 35.937C204.03 36.337 204.283 37.172 203.709 37.537C204.276 38.307 202.857 39 203.499 39.588C204.377 40.388 203.669 40.526 203.163 40.737C202.593 40.9456 202.013 41.1241 201.425 41.272C201.137 40.31 201.498 39.184 200.691 38.317C199.312 39.8 200.545 41.808 199.445 43.259C199.427 43.283 199.711 43.509 199.822 43.659C200.251 44.259 199.642 44.802 199.722 45.384C198.764 45.443 199.337 46.221 199.155 46.642C199.076 46.824 199.593 47.183 199.055 47.281C198.77 47.333 198.355 47.366 198.28 46.881C198.217 46.17 197.754 46.518 197.285 46.653C197.67 46.33 197.73 45.976 197.949 45.726C197.984 45.085 197.708 45.084 197.256 45.373C196.945 45.573 196.671 46.186 196.235 45.511C196.355 45.1986 196.391 44.8601 196.338 44.5296C196.285 44.1992 196.146 43.8885 195.935 43.629C195.823 42.843 196.196 41.944 195.292 41.09C195.387 42.252 194.859 43.144 195.292 44.128C195.666 44.985 194.6 44.841 194.292 45.259C194.141 45.459 193.992 44.859 193.878 44.574C193.338 43.6745 193.078 42.6339 193.134 41.586C193.218 41.086 192.834 40.421 192.862 39.719C192.875 39.342 192.716 38.119 191.81 38.019C190.799 39.961 192.41 42.178 190.771 43.919C190.832 44.043 190.914 44.1553 191.014 44.251C191.392 44.641 191.251 44.941 190.857 45.193C190.557 45.383 190.165 45.663 190.416 45.981C191.678 47.581 189.533 47.236 189.384 48.063C189.084 46.31 188.798 44.67 187.251 43.571C187.536 45.333 187.057 47.071 187.246 48.815C187.324 49.534 186.885 49.129 186.646 49.18C186.305 49.054 186.246 49.227 186.288 49.514C187.228 50.998 186.506 51.449 185.082 51.344C186.173 53.28 183.607 51.844 183.851 52.915C184.509 53.197 185.374 52.815 185.993 53.437C185.724 53.758 184.84 53.872 184.999 53.977C186.707 55.113 184.135 54.87 184.562 55.52L186.108 55.729C185.708 56.464 184.919 56.266 184.5 56.618C184.628 57.229 185.411 56.912 185.717 57.44C185.03 57.7575 184.3 57.9718 183.551 58.076C184.492 59.464 185.964 58.916 187.127 59.322C187.494 59.45 188.01 59.181 188.005 59.83C187.999 60.452 187.46 60.256 187.122 60.256C185.18 60.2657 183.241 60.3993 181.316 60.656C180.7 60.7876 180.062 60.7821 179.448 60.64C176.464 60.066 173.456 60.389 170.455 60.446C170.12 60.5116 169.804 60.6517 169.531 60.856H161.797C165.09 59.095 165.743 56.156 165.797 52.963C165.857 49.272 165.827 45.579 165.81 41.886C165.93 39.9374 165.528 37.9922 164.645 36.251C164.299 35.657 164.484 35.402 165.038 35.157C165.617 34.903 166.243 34.7744 166.875 34.7796C167.507 34.7848 168.13 34.9236 168.705 35.187C170.944 36.0736 172.875 37.5966 174.259 39.568C174.336 38.8398 174.149 38.1082 173.733 37.506C172.726 35.533 170.887 34.493 169.024 33.54C168.01 33.0552 167.15 32.3002 166.538 31.3581C165.925 30.416 165.585 29.3232 165.553 28.2C165.534 27.8606 165.487 27.5234 165.411 27.192C165.332 26.878 165.511 26.471 165.105 26.251C164.498 27.9006 164.421 29.6987 164.886 31.394C165.243 32.605 164.045 33.114 163.473 33.894C163.136 34.355 162.773 34.205 162.333 34C159.254 32.553 156.028 32.694 152.77 33.139C152.483 33.1541 152.209 33.2613 151.988 33.4447C151.767 33.6281 151.611 33.8779 151.543 34.157C151.065 35.8749 150.471 37.5584 149.765 39.196C149.475 39.763 149.207 40.341 148.907 40.958C149.235 41.018 149.344 41.074 149.419 41.046C150.369 40.679 151.265 39.47 152.097 39.77C153.439 40.254 153.697 39.37 154.327 38.775C154.488 38.621 154.884 38.706 155.172 38.694C155.802 38.7209 156.434 38.6874 157.058 38.594C158.068 38.346 158.5 38.894 158.835 39.66C159.179 40.6751 159.307 41.7505 159.212 42.818C159.225 44.795 159.212 44.931 157.299 44.76C155.272 44.577 154.178 45.233 152.969 47.014C151.811 48.714 149.858 50.355 147.243 49.668C146.68 49.52 146.68 49.826 146.68 50.186C146.674 54.286 146.421 58.477 151.28 60.863H142.88C139.712 60.2419 136.456 60.2198 133.28 60.798C133.093 60.827 133.337 60.798 133.16 60.877H126.32C127.233 60.25 127.983 59.4155 128.511 58.442C129.038 57.4685 129.327 56.3838 129.354 55.277C127.302 55.988 125.41 56.747 123.317 56.577C122.317 56.498 121.01 56.277 120.355 56.777C119.555 57.391 120.17 58.771 120.055 59.81C120.045 59.9067 120.045 60.0042 120.055 60.101C120.106 60.667 119.836 60.869 119.287 60.865C117.226 60.85 115.164 60.859 113.103 60.859C114.329 60.2751 115.361 59.3486 116.072 58.1915C116.783 57.0343 117.145 55.6959 117.112 54.338C117.222 49.533 117.233 44.721 117.112 39.916C117.174 38.3387 116.664 36.7922 115.675 35.5618C114.686 34.3313 113.286 33.4999 111.732 33.221C109.542 32.7494 107.286 32.6668 105.067 32.977C100.4 33.577 98.242 36.067 98.186 40.791C98.14 44.676 98.177 48.561 98.157 52.446C98.157 52.791 98.368 53.218 97.943 53.493C97.783 53.4299 97.6402 53.3299 97.5262 53.2011C97.4122 53.0724 97.3302 52.9185 97.287 52.752C97.102 52.522 97.251 52.031 96.742 52.052C96.6239 52.1113 96.5212 52.1972 96.442 52.303C96.3492 52.4339 96.287 52.584 96.26 52.7422C96.233 52.9004 96.2419 53.0627 96.286 53.217C96.412 53.4135 96.468 53.6467 96.445 53.879C96.885 54.579 98.135 53.999 98.332 55.155C98.4834 56.3828 98.959 57.5483 99.7099 58.5314C100.461 59.5146 101.46 60.28 102.605 60.749H89.969C90.374 60.183 91.188 60.212 91.358 59.397H89.833C90.255 58.289 90.733 57.274 91.027 56.209C91.3228 55.4771 91.3525 54.6647 91.1107 53.9132C90.8689 53.1618 90.3711 52.519 89.704 52.097C87.955 50.911 87.69 51.032 87.441 53.127C87.192 55.222 86.324 56.169 84.641 56.215C82.856 56.264 81.928 55.305 81.573 53.209C81.428 52.35 82.017 51.26 81.109 50.662C80.279 50.115 79.214 50.38 78.25 50.354C77.62 50.336 76.988 50.42 76.357 50.429C75.419 50.443 75.026 50.798 75.017 51.836C74.985 55.475 75.443 58.836 79.478 60.804C77.008 60.804 74.921 60.71 72.847 60.836C71.392 60.925 70.847 60.53 70.995 59.011C71.075 58.211 71.485 57.138 70.695 56.551C70.3072 56.2611 70.0012 55.8757 69.8068 55.4323C69.6124 54.9888 69.5364 54.5026 69.586 54.021C69.586 49.3543 69.586 44.6876 69.586 40.021C69.586 39.382 69.501 38.551 69.986 38.221C71.53 37.166 70.916 35.65 71.044 34.285C71.111 33.563 70.762 33.372 70.097 33.378C67.6184 33.4013 65.1397 33.4013 62.661 33.378C61.932 33.37 61.561 33.578 61.629 34.368C61.748 35.694 61.153 37.193 62.657 38.175C62.867 38.312 62.874 38.793 62.931 39.123C63.0865 40.5239 63.1403 41.9343 63.092 43.343C63.111 43.999 62.908 44.329 62.184 44.311C60.727 44.275 59.268 44.298 57.81 44.3C57.383 44.3 56.956 44.214 57.046 43.687C57.411 41.558 55.985 39.076 58.285 37.316C58.406 37.223 58.414 36.963 58.446 36.776C58.958 33.737 58.658 33.376 55.608 33.387C55.5113 33.3969 55.4138 33.3969 55.317 33.387C54.15 33.143 53.742 33.838 53.602 34.807C53.334 35.9947 53.2839 37.2213 53.454 38.427C53.919 40.583 52.997 42.243 51.732 43.917C51.325 44.455 50.397 44.354 50.4 45.23C50.41 48.195 50.4 51.161 50.395 54.13C50.395 54.419 50.395 54.672 50.774 54.801C52.0318 55.1699 53.1634 55.8785 54.0446 56.8488C54.9259 57.8191 55.5225 59.0136 55.769 60.301C56.044 61.615 56.569 61.777 57.745 61.776C112.96 61.7453 168.175 61.7363 223.39 61.749C223.681 61.7336 223.973 61.7352 224.264 61.754C225.084 61.854 225.359 61.521 225.359 60.689C225.359 59.834 225.033 59.605 224.235 59.63L224.232 59.647ZM63.08 51.884C63.073 52.901 62.996 53.919 62.928 54.935C62.909 55.22 62.905 55.64 62.728 55.759C61.246 56.771 61.608 58.287 61.647 59.677C61.68 60.853 60.936 60.787 60.21 60.693C59.527 60.605 58.4 61.218 58.449 59.73C58.473 59.002 58.464 58.273 58.449 57.545C58.442 57.26 58.463 56.802 58.311 56.72C56.347 55.661 57.287 53.792 57.023 52.483C57.023 49.013 57.023 49.013 60.281 49.013C63.088 49.013 63.101 49.013 63.081 51.884H63.08ZM110.681 51.653C110.673 52.4778 110.579 53.2996 110.401 54.105C110.288 54.7357 109.946 55.3026 109.44 55.697C108.935 56.0914 108.302 56.2858 107.663 56.243C107.025 56.286 106.392 56.0949 105.884 55.7054C105.377 55.3159 105.028 54.7548 104.904 54.127C104.621 52.5474 104.528 50.9397 104.626 49.338C104.613 48.724 104.964 48.616 105.463 48.623C106.192 48.634 106.921 48.623 107.651 48.623C110.716 48.623 110.734 48.623 110.682 51.651L110.681 51.653ZM107.675 44.812C104.275 44.812 104.181 44.704 104.697 41.224C105.019 39.053 105.709 38.215 107.277 38.09C107.648 38.0079 108.032 38.0069 108.404 38.0871C108.775 38.1674 109.124 38.3269 109.428 38.5549C109.732 38.7828 109.983 39.0737 110.164 39.4077C110.345 39.7417 110.452 40.1109 110.477 40.49C110.537 40.774 110.607 41.057 110.645 41.344C111.108 44.761 111.06 44.816 107.679 44.816L107.675 44.812ZM189.1 60.184C189.015 60.155 188.938 60.1068 188.875 60.0431C188.811 59.9795 188.764 59.9021 188.735 59.817C188.716 59.7598 188.711 59.6988 188.721 59.6393C188.73 59.5798 188.754 59.5235 188.79 59.475C188.826 59.4266 188.873 59.3875 188.927 59.361C188.981 59.3346 189.041 59.3215 189.101 59.323C189.227 59.3327 189.345 59.3871 189.434 59.4764C189.523 59.5658 189.578 59.6841 189.587 59.81C189.586 59.8689 189.572 59.9269 189.545 59.9796C189.519 60.0322 189.481 60.0783 189.434 60.1143C189.387 60.1503 189.333 60.1754 189.276 60.1876C189.218 60.1998 189.158 60.1989 189.101 60.185L189.1 60.184ZM191.646 60.106C191.134 60.052 190.482 60.231 190.481 59.648C190.481 58.861 191.202 58.919 191.792 58.878C192.273 58.845 192.707 58.831 192.721 59.46C192.743 60.41 191.953 59.907 191.646 60.106ZM195.661 60.006C195.613 60.0116 195.565 60.0116 195.517 60.006C194.904 59.874 194.135 60.391 193.691 59.587C193.58 59.387 193.506 58.999 193.771 58.965C194.471 58.901 195.175 58.8817 195.878 58.907C195.95 58.907 196.05 59.007 196.091 59.089C196.44 59.755 197.402 58.699 197.611 59.616C197.686 59.946 197.54 59.978 195.662 60.006H195.661ZM198.7 59.723C199.414 58.577 200.162 59.295 200.867 59.614C200.169 59.8493 199.419 59.887 198.7 59.723ZM204.446 59.758C203.76 59.765 203.073 59.758 202.387 59.758C202.376 59.5926 202.364 59.426 202.352 59.258C203.072 59.427 203.552 58.81 204.171 58.844C204.418 58.858 204.871 58.062 204.981 58.935C205.029 59.319 205.019 59.747 204.446 59.753V59.758ZM208.723 59.679C208.241 59.696 207.753 59.679 207.277 59.739C206.112 59.896 205.645 59.447 205.958 58.144C206.71 59.17 207.826 58.535 208.726 58.892C209.008 58.971 209.251 59.131 209.24 59.436C209.229 59.763 208.94 59.698 208.723 59.679ZM210.547 59.716C210.447 59.695 210.212 59.684 210.362 59.489C210.478 59.3641 210.63 59.2791 210.797 59.246C210.852 59.232 210.953 59.402 211.017 59.472C210.986 59.5661 210.92 59.6445 210.832 59.6903C210.744 59.7361 210.642 59.7457 210.547 59.717V59.716ZM213.734 59.55C213.071 59.8134 212.333 59.8156 211.668 59.556C212.096 59.291 212.268 59.138 212.307 59.167C212.784 59.511 213.276 58.762 213.721 59.198C213.785 59.261 213.783 59.524 213.734 59.55ZM214.834 59.522C215.034 59.3806 215.274 59.3082 215.518 59.3158C215.762 59.3234 215.998 59.4105 216.188 59.564C215.982 59.688 215.745 59.7499 215.505 59.7425C215.265 59.735 215.032 59.6585 214.834 59.522ZM217.034 59.511C217.001 59.4512 216.983 59.3839 216.983 59.3155C216.983 59.247 217.001 59.1797 217.034 59.12C217.534 58.735 217.865 59.172 218.434 59.402C217.803 59.808 217.4 59.861 217.034 59.512" fill="#BFBFBF"/>
<path d="M201.426 15.231C200.718 15.415 199.938 15.666 199.365 15.056C198.765 14.413 199.165 13.661 199.474 13.018C199.856 12.235 200.352 11.508 200.774 10.741C200.965 10.393 201.381 10.057 200.93 9.52499C199.767 10.132 199.224 11.338 198.341 12.201C198.029 12.501 197.674 12.901 197.216 12.617C196.842 12.382 196.983 11.898 197.07 11.531C197.37 10.259 197.701 8.99399 198.037 7.73099C198.137 7.34899 198.337 6.88199 197.855 6.73099C197.373 6.57999 197.245 7.12499 197.102 7.45199C196.48 8.87399 196.002 10.369 195.274 11.734C193.766 14.5326 191.209 16.6186 188.165 17.534C191.065 12.704 193.465 8.12599 193.073 2.51099C192.881 2.60183 192.716 2.7425 192.597 2.91836C192.478 3.09422 192.407 3.29885 192.394 3.51099C191.764 6.05616 190.89 8.53439 189.783 10.911C188.857 13.1243 187.269 14.9967 185.236 16.271C184.536 16.671 183.711 17.402 182.998 16.793C182.203 16.112 182.844 15.155 183.207 14.393C184.269 12.4828 185.452 10.6424 186.749 8.88299C187.049 8.41099 187.604 7.97199 187.311 7.14299C183.972 9.04299 182.245 12.273 179.967 15.358C177.967 10.569 181.11 8.07799 183.717 5.33499C179.817 6.05799 178.367 9.10699 176.917 12.388C175.495 9.05899 176.83 6.43099 178.86 3.85199C178.495 3.82374 178.127 3.87135 177.781 3.99181C177.435 4.11227 177.118 4.30299 176.849 4.55199C175.793 5.34959 175.004 6.44823 174.584 7.70327C174.165 8.95831 174.136 10.3109 174.5 11.583C174.887 13.035 175.411 14.449 175.823 15.895C176.385 17.867 175.56 18.795 173.523 18.448C171.714 18.148 169.953 17.507 168.069 17.776C167.61 17.841 167.258 17.522 166.896 17.268C163.142 14.636 163.149 14.652 159.32 17.136C158.633 17.581 157.92 18.025 158.049 18.901C158.185 19.84 159.119 19.866 159.849 20.101C160.955 20.454 162.229 20.417 163.202 21.419C162.55 21.5572 161.878 21.5674 161.223 21.449C160.723 21.403 160.057 20.811 159.782 21.317C159.437 21.952 160.199 22.408 160.613 22.858C160.981 23.2563 161.483 23.5054 162.023 23.558C163.904 23.8616 165.643 24.7475 166.995 26.091C169.795 28.519 171.94 28.527 174.925 26.201C175.318 26.044 175.291 26.275 175.232 26.535C174.939 26.917 174.722 27.429 174.338 27.658C173.138 28.375 173.575 28.835 174.412 29.501C176.587 31.2344 178.335 33.4437 179.521 35.959C180.952 39.0778 181.633 42.4879 181.511 45.917C184.377 37.517 183.721 29.764 176.986 22.925C179.407 22.742 181.562 22.6 183.098 20.644C181.019 19.792 178.898 20.044 176.708 20.008C176.83 19.7576 177.001 19.5338 177.21 19.3495C177.419 19.1652 177.662 19.024 177.926 18.9341C178.19 18.8441 178.469 18.8072 178.747 18.8253C179.025 18.8435 179.297 18.9165 179.547 19.04C181.63 19.7121 183.805 20.0604 185.994 20.073C191.173 19.988 196.066 18.213 201.094 17.265C203.256 16.858 204.744 14.97 205.694 12.865C204.425 13.9068 202.978 14.7095 201.423 15.234L201.426 15.231ZM161.723 18.605C161.083 19.157 160.477 18.631 159.684 18.491C160.436 17.907 160.978 17.491 161.684 17.966C161.734 18.0018 161.775 18.0481 161.804 18.1015C161.834 18.155 161.851 18.2144 161.856 18.2754C161.86 18.3364 161.85 18.3976 161.828 18.4545C161.806 18.5115 161.771 18.5629 161.727 18.605H161.723ZM170.557 19.453C170.378 19.453 170.039 19.584 170.096 19.2C170.115 19.071 170.328 18.97 170.39 18.913C170.708 18.908 170.866 19.004 170.909 19.2C170.975 19.5 170.695 19.455 170.558 19.452" fill="#BFBFBF"/>
<path d="M136.373 46.5839L136.946 46.0449C137.144 46.013 137.347 46.0488 137.523 46.1466C137.698 46.2444 137.835 46.3985 137.912 46.5839H136.373Z" fill="#BFBFBF"/>
<path d="M17.502 58.141C18.047 57.907 18.431 57.856 18.783 58.296C18.303 58.641 17.948 58.543 17.502 58.141Z" fill="#BFBFBF"/>
<path d="M84.4848 45.413C86.0973 45.6558 87.6574 46.1683 89.0998 46.929C89.6388 46.945 90.0478 47.365 90.5778 47.407C91.5639 47.888 92.3209 48.738 92.6848 49.773C90.582 49.7816 88.494 49.4212 86.5158 48.708C86.1968 48.6449 85.887 48.5417 85.5938 48.401C84.7938 48.018 84.1638 49.164 83.3068 48.616C82.8818 48.345 82.1938 48.381 82.4208 47.588C82.5948 46.977 82.5208 46.152 83.5558 46.255C84.0388 46.303 84.5258 46.317 85.0098 46.347C85.2448 46.494 85.5358 46.333 85.8308 46.526C85.6228 46.342 85.4228 46.256 85.3218 46.065L84.2138 45.687C84.1358 45.429 84.1838 45.296 84.4848 45.414" fill="#BFBFBF"/>
<path d="M80.7161 47.7609C80.9591 48.4609 80.8831 48.84 79.9911 49.008C78.9741 49.1187 77.9468 49.0915 76.9371 48.9269C76.8791 48.8297 76.8438 48.7206 76.8339 48.6078C76.824 48.4949 76.8399 48.3813 76.8802 48.2755C76.9205 48.1696 76.9843 48.0743 77.0667 47.9966C77.1491 47.9189 77.2481 47.8609 77.3561 47.827C77.4041 47.614 77.2891 47.374 77.4631 47.182C78.0023 46.9472 78.5988 46.8771 79.1778 46.9803C79.7567 47.0835 80.2923 47.3554 80.7171 47.762" fill="#BFBFBF"/>
<path d="M95.5449 47.909C96.7279 49.302 96.6509 50.133 95.0449 51.365C95.3619 50.375 96.2649 49.623 95.5449 48.674V47.908" fill="#BFBFBF"/>
<path d="M77.4622 47.18C77.5312 47.412 77.7182 47.664 77.3552 47.825C76.8802 47.783 76.0552 48.007 76.1472 47.332C76.2332 46.704 76.9792 47.01 77.4622 47.18Z" fill="#BFBFBF"/>
<path d="M92.042 50.667C92.0513 50.5893 92.0513 50.5107 92.042 50.433C92.931 50.46 93.791 50.91 94.702 50.619C93.831 51.433 92.935 50.845 92.045 50.668" fill="#BFBFBF"/>
<path d="M90.5781 47.407C90.0651 47.687 90.0651 47.687 89.1001 46.929C89.2274 46.8582 89.368 46.8144 89.513 46.8002C89.658 46.786 89.8044 46.8019 89.943 46.8467C90.0817 46.8915 90.2096 46.9644 90.3188 47.0608C90.4281 47.1572 90.5163 47.2751 90.5781 47.407Z" fill="#BFBFBF"/>
<path d="M84.4838 45.4129L84.2128 45.6859L82.1128 45.2859C82.8887 45.0216 83.7369 45.0685 84.4788 45.4169" fill="#BFBFBF"/>
<path d="M85.3169 46.0649C85.8641 46.1512 86.3564 46.4466 86.6899 46.8889C86.091 46.8561 85.5106 46.6694 85.0049 46.347L85.3169 46.0649Z" fill="#BFBFBF"/>
<path d="M85.5928 48.4C85.9368 48.394 86.3288 48.24 86.5158 48.707C86.0278 49.147 85.8558 48.635 85.5928 48.4Z" fill="#BFBFBF"/>
<path d="M93.0159 56.867C92.8829 56.967 92.7519 57.141 92.5929 57.172C92.4129 57.208 92.4089 56.998 92.4929 56.904C92.6208 56.7843 92.7621 56.6796 92.9139 56.592L93.0189 56.866" fill="#BFBFBF"/>
<path d="M128.618 66.6009C128.564 66.2632 128.393 65.9555 128.134 65.7322C127.875 65.5089 127.545 65.3845 127.203 65.3809C126.836 65.3708 126.478 65.4986 126.2 65.7393C125.923 65.9799 125.745 66.3159 125.703 66.6809C125.635 67.0572 125.594 67.4378 125.579 67.8199C125.599 68.2599 125.588 68.5529 125.631 68.8369C125.765 69.7239 126.159 70.4369 127.156 70.4609C128.153 70.4849 128.583 69.7769 128.721 68.8899C128.851 68.1282 128.817 67.3474 128.621 66.5999L128.618 66.6009ZM127.216 69.2999C126.439 69.3089 126.65 68.4129 126.642 67.9179C126.634 67.4229 126.462 66.4989 127.206 66.5349C127.95 66.5709 127.575 67.4659 127.715 67.9689C127.57 68.4519 127.91 69.2919 127.215 69.2999" fill="#BFBFBF"/>
<path d="M171.085 67.897C171.103 67.6085 171.101 67.3192 171.079 67.031C170.954 66.145 170.567 65.421 169.573 65.386C168.56 65.351 168.157 66.08 167.999 66.952C167.841 67.7591 167.885 68.593 168.127 69.379C168.211 69.695 168.399 69.9737 168.66 70.1705C168.921 70.3672 169.241 70.4707 169.568 70.4644C169.895 70.4581 170.211 70.3423 170.464 70.1355C170.717 69.9288 170.894 69.643 170.966 69.324C171.06 68.8549 171.127 68.3808 171.166 67.904L171.088 67.898L171.085 67.897ZM170.088 67.856C170.051 68.371 170.25 69.278 169.553 69.291C168.731 69.306 169.185 68.391 168.988 67.906C169.179 67.42 168.736 66.533 169.588 66.543C170.208 66.551 170.126 67.38 170.088 67.856Z" fill="#BFBFBF"/>
<path d="M62.6231 66.002C62.5233 65.832 62.3861 65.687 62.222 65.5778C62.0578 65.4687 61.871 65.3983 61.6756 65.372C61.4802 65.3457 61.2814 65.3641 61.0942 65.426C60.907 65.4879 60.7364 65.5915 60.5951 65.729C59.9951 66.272 59.3951 67.029 60.7491 67.529C60.8491 67.564 60.8071 67.958 60.8281 68.195C60.4401 68.283 59.9191 68.178 59.9621 68.859C59.9542 69.2013 60.0569 69.5369 60.2551 69.816C60.4534 70.0951 60.7364 70.3028 61.0621 70.408C61.3393 70.5073 61.6418 70.511 61.9212 70.4183C62.2007 70.3257 62.4411 70.1422 62.6041 69.897C62.9151 69.2956 63.0786 68.6289 63.0812 67.9518C63.0839 67.2748 62.9255 66.6068 62.6191 66.003L62.6231 66.002ZM61.4341 66.488C61.7141 66.47 61.8341 66.688 61.9191 66.916C61.9601 67.14 61.8711 67.278 61.6431 67.297C61.4151 67.316 61.1431 67.319 61.1111 66.997C61.0831 66.758 61.1201 66.503 61.4341 66.483V66.488ZM61.5941 69.315C61.1051 69.465 61.0781 69.037 60.9731 68.742C60.9204 68.5669 60.879 68.3885 60.8491 68.208H60.8261L60.8451 68.189C60.8451 68.196 60.8451 68.204 60.8451 68.211C61.0261 68.236 61.2061 68.266 61.3881 68.282C61.6881 68.309 61.9701 68.352 61.9511 68.75C61.9585 68.8705 61.9277 68.9903 61.863 69.0923C61.7984 69.1943 61.7032 69.2732 61.5911 69.318" fill="#BFBFBF"/>
<path d="M145.439 68.011C145.439 67.72 145.456 67.4279 145.439 67.1379C145.375 66.2279 145.012 65.487 144.022 65.4C143.003 65.31 142.602 66.016 142.397 66.909C142.222 67.7183 142.259 68.559 142.504 69.35C142.564 69.6641 142.733 69.9473 142.98 70.1505C143.227 70.3538 143.537 70.4643 143.857 70.463C144.202 70.4827 144.543 70.3766 144.816 70.1644C145.089 69.9523 145.276 69.6483 145.342 69.309C145.425 68.8821 145.477 68.4495 145.495 68.015H145.442L145.439 68.011ZM144.503 67.936C144.49 68.476 144.579 69.327 143.885 69.311C143.085 69.293 143.501 68.411 143.337 67.897C143.499 67.411 143.098 66.52 143.915 66.534C144.58 66.545 144.515 67.387 144.504 67.934" fill="#BFBFBF"/>
<path d="M97.6728 65.766C97.527 65.6152 97.3477 65.5011 97.1494 65.4329C96.9511 65.3647 96.7395 65.3445 96.5319 65.3737C96.3242 65.403 96.1265 65.4809 95.9547 65.6013C95.783 65.7216 95.6422 65.8808 95.5438 66.066C95.1238 66.689 94.9098 67.394 96.1268 67.32C96.1268 67.6113 96.1284 67.9026 96.1318 68.194C95.7558 68.294 95.2198 68.153 95.2458 68.842C95.239 69.1338 95.3117 69.422 95.4561 69.6756C95.6006 69.9293 95.8113 70.1389 96.0658 70.282C96.3161 70.438 96.612 70.5043 96.9049 70.4699C97.1978 70.4356 97.4704 70.3026 97.6778 70.093C98.5118 69.381 98.5228 66.437 97.6778 65.762L97.6728 65.766ZM96.1318 67.3H96.1588C96.3308 66.939 96.2138 66.25 96.9728 66.562C97.0471 66.6132 97.107 66.6827 97.1468 66.7638C97.1865 66.8449 97.2048 66.9348 97.1998 67.025C96.9998 67.569 96.5248 67.259 96.1588 67.3C96.1588 67.308 96.1528 67.315 96.1488 67.322L96.1318 67.302V67.3ZM97.2318 68.763C97.2104 68.8759 97.1665 68.9834 97.1028 69.0791C97.039 69.1748 96.9567 69.2567 96.8608 69.32C96.5158 69.476 96.3508 69.175 96.2608 68.895C96.2093 68.6703 96.1759 68.4419 96.1608 68.212H96.1388L96.1588 68.194C96.1588 68.201 96.1588 68.208 96.1588 68.215C96.3408 68.237 96.5218 68.263 96.7038 68.278C97.0118 68.305 97.3108 68.378 97.2288 68.766" fill="#BFBFBF"/>
<path d="M106.84 66.6999C106.703 65.8419 106.122 65.4939 105.151 65.5399C104.375 65.3399 103.911 65.6059 103.987 66.6399C104.058 67.5999 103.995 68.5689 104.009 69.5339C104.009 69.8529 103.941 70.2669 104.452 70.2819C104.924 70.2959 104.988 69.9369 104.972 69.5879C104.944 68.9549 105.029 68.5279 105.816 68.3699C105.997 68.3349 106.168 68.2627 106.319 68.1578C106.471 68.053 106.598 67.9179 106.695 67.761C106.791 67.6041 106.853 67.429 106.878 67.2467C106.903 67.0644 106.89 66.8788 106.839 66.7019L106.84 66.6999ZM105.354 67.4089C105.074 67.4009 104.977 67.1579 104.996 66.8939C105.011 66.6939 105.076 66.509 105.317 66.503C105.603 66.496 105.736 66.6699 105.763 66.9399C105.773 66.9986 105.77 67.0589 105.754 67.1162C105.738 67.1736 105.709 67.2266 105.67 67.2714C105.631 67.3163 105.582 67.3518 105.528 67.3754C105.473 67.399 105.414 67.4102 105.354 67.4079" fill="#BFBFBF"/>
<path d="M54.5051 59.591C54.4863 59.4986 54.4733 59.4051 54.4661 59.311C54.1457 58.4237 53.6188 57.6254 52.9288 56.982C52.2388 56.3386 51.4056 55.8687 50.4981 55.611C49.6369 55.4486 48.8546 55.0034 48.2751 54.346C47.8114 53.7128 47.4984 52.982 47.3597 52.2095C47.2211 51.437 47.2606 50.643 47.4751 49.888C48.0752 48.0985 48.7955 46.3515 49.6311 44.659C49.8275 44.1149 50.1998 43.6518 50.6891 43.343C51.2814 42.9766 51.7715 42.4664 52.1139 41.86C52.4564 41.2536 52.6401 40.5704 52.6481 39.874C52.1831 36.574 53.5481 33.614 53.7671 30.479C53.7626 30.1896 53.7009 29.904 53.5854 29.6387C53.4698 29.3733 53.3029 29.1335 53.0941 28.933C52.9081 28.703 52.5861 28.863 52.4871 29.077C51.8131 30.542 50.3651 31.277 49.4041 32.432C48.5141 33.498 47.7711 34.559 46.3681 34.947C46.1141 35.017 45.6351 35.247 45.8001 35.454C46.7071 36.572 45.5601 36.499 45.0771 36.845C44.6121 37.178 43.9511 37.486 43.7901 37.945C43.1651 39.738 41.6691 40.496 40.1291 41.045C37.4711 41.989 34.4491 41.99 32.2911 44.189C32.2094 44.2431 32.113 44.2707 32.0151 44.268C30.6921 44.395 29.9291 45.288 29.0641 46.187C27.8701 47.426 26.6911 48.803 24.5501 48.371C23.3831 48.135 23.2581 48.371 22.3081 49.171C23.8871 49.946 25.2871 50.771 27.3151 50.55C28.7314 50.4101 30.0743 49.8533 31.1741 48.95C31.2264 48.8791 31.2964 48.8233 31.3772 48.7882C31.458 48.7531 31.5466 48.7399 31.6341 48.75C31.7011 48.758 31.7521 48.798 31.7421 48.811C31.6301 48.951 31.4271 48.762 31.3181 48.925C31.4173 49.2292 31.4426 49.5527 31.392 49.8687C31.3414 50.1846 31.2163 50.484 31.0271 50.742C29.6101 52.525 29.5801 54.803 28.7051 56.765C28.4978 57.1493 28.3747 57.5732 28.3438 58.0088C28.3129 58.4443 28.3751 58.8814 28.5261 59.291C29.0471 60.478 28.3941 60.691 27.4981 60.891C26.2471 61.176 25.0091 61.513 23.7651 61.829C33.4911 62.082 43.1561 62.082 52.8211 62.082C55.4761 62.082 55.4751 62.082 54.5021 59.582L54.5051 59.591ZM34.4871 53.025C33.5151 54.8 34.1931 56.589 34.3961 58.354C34.4911 59.178 34.1961 59.396 33.5161 59.454C32.5541 59.531 31.6301 60.325 30.6221 59.349C30.2683 59.0942 30.0229 58.716 29.9344 58.289C29.8459 57.8621 29.9207 57.4175 30.1441 57.043C31.0441 55.45 31.4211 53.443 33.4791 52.725C33.9041 52.576 34.0601 52.125 34.0551 51.415C34.4791 52.173 34.6821 52.675 34.4881 53.029L34.4871 53.025ZM46.7931 56.029C46.6026 56.1172 46.391 56.1495 46.1828 56.1223C45.9747 56.095 45.7785 56.0093 45.6171 55.875C43.3431 54.55 43.8731 52.475 44.0171 50.475C44.0701 49.757 44.5221 48.875 43.3321 48.6C42.7261 48.592 42.1611 48.533 42.3001 49.492C42.6001 51.542 42.3181 53.652 43.0641 55.667C43.1551 55.9358 43.1795 56.2225 43.1354 56.5028C43.0914 56.7831 42.98 57.0485 42.811 57.2763C42.6419 57.5042 42.4201 57.6876 42.1647 57.8111C41.9092 57.9345 41.6277 57.9942 41.3441 57.985C40.1781 57.9749 39.0146 58.0923 37.8741 58.335C36.4351 58.598 35.7891 58.077 35.6991 56.624C35.6115 56.0533 35.6661 55.4698 35.858 54.9252C36.0498 54.3806 36.3731 53.8918 36.7991 53.502C37.3848 52.9493 37.8484 52.2801 38.1599 51.5375C38.4715 50.7948 38.6241 49.9952 38.6081 49.19C38.6181 48.556 38.7741 48.132 39.4531 48.09C40.748 47.8717 42.0761 47.9594 43.3311 48.346C43.8151 48.369 44.3001 48.405 44.7841 48.411C45.4601 48.419 45.7291 48.754 45.7021 49.417C45.5021 51.3114 45.8967 53.2211 46.8311 54.881C47.0151 55.174 47.3601 55.715 46.7891 56.025" fill="#BFBFBF"/>
</svg>
