<svg width="209" height="64" viewBox="0 0 209 64" fill="none" xmlns="http://www.w3.org/2000/svg">
<path d="M193.133 29.86H188.014C186.814 27.138 185.397 26.303 182.632 27.074C181.767 27.315 180.598 28.132 180.459 28.861C180.325 29.555 181.185 30.714 181.909 31.245C183.024 31.9131 184.203 32.4692 185.428 32.905C186.695 33.428 187.934 34.0154 189.14 34.665C192.93 36.903 193.264 41.082 189.885 43.934C189.105 44.6062 188.217 45.1426 187.259 45.521C183.372 47.0023 179.072 46.9748 175.204 45.444C172.255 44.327 171.053 42.187 171.191 38.751C172.675 38.751 174.179 38.671 175.663 38.801C175.926 38.8781 176.169 39.0119 176.375 39.193C176.581 39.374 176.744 39.598 176.854 39.849C178.109 42.741 182.913 43.761 185.21 41.571C185.498 41.3409 185.723 41.0426 185.867 40.7032C186.01 40.3638 186.066 39.994 186.031 39.6273C185.995 39.2606 185.868 38.9086 185.662 38.6032C185.457 38.2978 185.178 38.0485 184.851 37.878C183.474 37.1186 182.057 36.4356 180.605 35.832C179.218 35.2417 177.875 34.5543 176.585 33.775C175.907 33.3472 175.342 32.7628 174.937 32.071C174.531 31.3792 174.298 30.6002 174.257 29.7996C174.215 28.999 174.367 28.2001 174.698 27.4702C175.03 26.7403 175.532 26.1006 176.162 25.605C179.502 22.679 187.677 22.288 191.062 25.156C192.254 26.164 192.862 27.887 193.73 29.284L193.13 29.859" fill="#BFBFBF"/>
<path d="M167.16 23.794C165.452 29.934 163.828 35.787 162.2 41.634C160.786 46.714 160.7 46.763 155.088 45.845C156.029 42.456 156.965 39.09 157.899 35.723C158.86 32.258 159.886 28.808 160.744 25.316C161.035 24.129 161.512 23.698 162.685 23.771C164.045 23.855 165.415 23.791 167.159 23.791" fill="#BFBFBF"/>
<path d="M195.416 45.764C196.703 41.038 197.99 36.3154 199.277 31.596C199.863 29.463 200.548 27.356 201.055 25.205C201.31 24.122 201.776 23.711 202.867 23.774C204.295 23.856 205.732 23.794 207.423 23.794C205.953 29.145 204.532 34.319 203.112 39.494C202.893 40.294 202.678 41.094 202.461 41.894C201.223 46.462 200.361 46.954 195.416 45.764Z" fill="#BFBFBF"/>
<path d="M162.045 21.413C162.386 16.661 162.997 16.238 168.671 16.827C168.671 21.391 167.529 22.184 162.045 21.413Z" fill="#BFBFBF"/>
<path d="M202.259 21.463C203.506 15.629 202.274 16.642 208.899 16.831C209.187 21.189 207.968 22.039 202.259 21.463Z" fill="#BFBFBF"/>
<path d="M74.9752 16.7519L75.2142 16.2199C74.8643 15.4435 74.4166 14.715 73.8822 14.0519C71.5472 11.8089 69.3362 9.34095 66.6962 7.53195C55.4502 -0.171053 43.0152 -1.48305 30.0602 1.42295C20.2762 3.61695 11.8222 8.16295 6.0602 16.9359C2.5362 22.3079 0.494201 28.1119 1.0172 34.6099C1.7362 43.5809 6.4242 50.3639 13.4822 55.2669C25.3112 63.4859 38.5212 64.9069 52.2452 61.8249C55.8202 60.8821 59.2515 59.4609 62.4462 57.5999C66.0142 55.6769 66.6292 53.1589 65.2402 49.3489C64.2095 46.3016 62.1148 43.7279 59.3402 42.0999C50.4972 36.9429 40.9182 35.5229 30.9582 36.8539C27.2942 37.3439 23.4242 38.1309 21.5632 42.1659C16.3902 39.4779 15.4442 34.0909 19.4132 29.8879C21.9282 27.3112 25.0927 25.462 28.5722 24.5359C30.6185 23.85 32.7878 23.6099 34.9345 23.8319C37.0813 24.0539 39.1556 24.7328 41.0182 25.8229C44.0412 27.5999 49.3382 26.6119 51.7112 24.0229C52.3562 23.4237 52.7845 22.6277 52.9292 21.7593C53.0739 20.8909 52.9269 19.999 52.5112 19.2229C51.6162 17.4809 49.9362 17.1999 48.2242 17.5999C46.2242 18.0709 44.2992 18.8319 42.3032 19.2999C40.5722 19.7069 38.7872 19.8819 37.0272 20.1599L36.9362 19.3359C49.2172 13.8359 61.9832 14.0099 74.9712 16.7519H74.9752ZM49.5482 19.9269C49.4872 22.6949 48.0352 23.4439 46.4172 23.8689C44.4692 24.3809 42.4692 24.7229 41.1242 22.1849L49.5482 19.9259V19.9269ZM32.5482 16.7259C28.3062 19.2659 23.9482 21.4489 19.5282 23.6069C15.6802 25.4869 12.4072 28.1509 11.1892 32.6069C10.0032 36.9409 11.3722 40.5859 14.4952 43.5769C18.3432 47.2629 23.0792 49.2049 28.1552 50.3999C28.4239 50.4579 28.7006 50.4694 28.9732 50.4339C29.2568 50.3491 29.5304 50.2337 29.7892 50.0899C29.4982 49.4029 29.2132 48.7439 28.9382 48.0799C27.9912 45.7929 28.3262 43.7229 30.5192 42.7179C32.9461 41.4855 35.6018 40.7684 38.3192 40.6119C44.2464 40.5262 50.1016 41.9192 55.3552 44.6649C57.9292 46.0289 60.0292 47.8309 60.8112 50.8359C61.5262 53.5839 60.6282 55.7159 58.0262 56.7219C44.1262 62.0939 30.7072 61.2839 18.2262 52.7489C15.1796 50.717 12.6131 48.0447 10.7057 44.9185C8.79844 41.7924 7.59629 38.2876 7.1832 34.6489C6.3232 27.8669 9.1072 22.0959 13.3832 17.1099C20.0232 9.36195 28.7432 5.59995 38.5922 4.51595C46.1913 3.50328 53.9222 4.63378 60.9132 7.77995C62.3292 8.44095 63.6762 9.25495 65.0552 9.99795L64.9862 10.6979C62.1302 10.6979 59.2732 10.6419 56.4192 10.7079C48.0192 10.9079 39.8332 12.3569 32.5472 16.7199" fill="#BFBFBF"/>
<path d="M147.361 16.7581C146.424 20.0371 145.496 23.2841 144.493 26.7971C144.047 26.5411 143.812 26.4261 143.593 26.2791C137.02 21.7891 126.663 22.3361 120.521 27.5011C114.002 32.9841 115.258 41.8401 123.129 45.0241C125.62 46.1076 128.317 46.6333 131.032 46.5642C133.748 46.4951 136.415 45.8329 138.847 44.6241C139.033 44.5487 139.223 44.4865 139.417 44.4381C139.473 44.9861 139.525 45.4961 139.587 46.1041C140.656 46.0446 141.727 46.0529 142.795 46.1291C144.474 46.3531 145.19 45.6701 145.608 44.0211C146.87 39.0551 148.308 34.1361 149.665 29.1941C150.791 25.0881 151.898 20.9771 153.043 16.7591L147.361 16.7581ZM139.896 39.9941C137.433 41.8338 134.468 42.8802 131.396 42.9941C129.478 42.5829 127.595 42.0171 125.768 41.3021C122.085 39.5371 121.129 35.4241 123.38 31.9811C126.692 26.9151 135.791 25.5101 140.497 29.3381C143.754 31.9871 143.469 37.0661 139.897 39.9901" fill="#BFBFBF"/>
<path d="M108.705 23.87L107.73 26.757C107.487 26.6389 107.253 26.5032 107.03 26.351C101.621 21.751 89.3789 22.469 83.6019 27.628C77.6319 32.958 78.5289 41.296 85.7399 44.683C88.2689 45.9282 91.05 46.5765 93.8689 46.5779C96.6879 46.5793 99.4696 45.9338 102 44.691C102.228 44.585 102.462 44.491 102.74 44.375C102.769 44.975 102.792 45.442 102.824 46.102C104.116 46.102 105.346 46.009 106.555 46.127C107.927 46.261 108.49 45.655 108.802 44.373C109.471 41.616 110.253 38.887 111.002 36.151C112.113 32.102 113.238 28.056 114.396 23.869L108.705 23.87ZM103.536 39.67C101.054 41.908 98.0789 42.71 94.7479 43.008C92.8303 42.6019 90.9493 42.039 89.1239 41.325C85.2039 39.441 84.3389 35.025 87.0099 31.53C90.4739 27.002 98.5599 25.713 103.243 28.942C106.907 31.468 107.048 36.504 103.536 39.67Z" fill="#BFBFBF"/>
</svg>
