<svg width="194" height="59" viewBox="0 0 194 59" fill="none" xmlns="http://www.w3.org/2000/svg">
<path d="M0.171875 3.34967V29.1747C0.171875 29.1747 19.1569 35.2747 43.2569 29.1747V3.34967C43.2569 3.34967 24.3819 -2.91433 0.171875 3.34967ZM34.6719 22.7427C34.6719 22.7427 21.2869 25.2847 8.75088 22.7427V9.86567C17.3195 8.29103 26.1033 8.29103 34.6719 9.86567V22.7427Z" fill="#FF7E2E"/>
<path d="M98.9771 3.34972V29.1747C98.9771 29.1747 117.961 35.2747 142.061 29.1747V3.34972C142.061 3.34972 123.186 -2.91328 98.9771 3.34972ZM133.477 22.7427C133.477 22.7427 120.091 25.2847 107.555 22.7427V9.86572C116.124 8.29104 124.908 8.29104 133.477 9.86572V22.7427Z" fill="#FF7E2E"/>
<path d="M49.3208 3.00472C63.609 -0.377874 78.4896 -0.377874 92.7778 3.00472V11.3047C87.0735 9.94561 81.2639 9.07414 75.4118 8.69972V31.9597H66.8558V8.69972C66.8558 8.69972 56.0978 9.18972 49.3208 11.5607V3.00472Z" fill="#FF7E2E"/>
<path d="M193.5 2.07067V10.4597C193.5 10.4597 174.779 7.40967 156.566 9.27067V31.9597H148.266V2.07067C148.266 2.07067 166.055 -1.22933 193.501 2.07067" fill="#FF7E2E"/>
<path d="M11.9269 58.5288C10.5083 58.5448 9.09639 58.3314 7.7459 57.8968C6.57406 57.5247 5.47331 56.9577 4.4899 56.2198C3.63114 55.5772 2.9159 54.7625 2.3899 53.8278C1.91173 52.9882 1.65694 52.0399 1.6499 51.0738C1.65279 50.0789 1.9251 49.1033 2.4379 48.2508C2.99499 47.3183 3.73521 46.5083 4.6139 45.8698C5.60682 45.1458 6.71184 44.5897 7.8849 44.2238C9.20164 43.8071 10.5759 43.6009 11.9569 43.6128C13.3774 43.5967 14.7907 43.8171 16.1389 44.2648C17.3071 44.6487 18.4024 45.2265 19.3789 45.9738C20.2263 46.6233 20.9346 47.4364 21.4619 48.3648C21.9386 49.194 22.1935 50.1322 22.2019 51.0888C22.1986 52.0816 21.9267 53.055 21.4149 53.9058C20.8624 54.8342 20.1277 55.641 19.2549 56.2778C18.2665 56.9978 17.1665 57.5505 15.9989 57.9138C14.6819 58.3309 13.3073 58.5371 11.9259 58.5248L11.9269 58.5288ZM3.8109 51.0728C3.81228 51.8787 4.01363 52.6718 4.3969 53.3808C4.80879 54.1467 5.37667 54.8178 6.0639 55.3508C6.83354 55.9498 7.70053 56.4118 8.6269 56.7168C9.69137 57.0668 10.8065 57.2381 11.9269 57.2238C13.0705 57.2391 14.2082 57.0571 15.2899 56.6858C16.22 56.3702 17.0873 55.8932 17.8519 55.2768C18.5188 54.7368 19.0698 54.0677 19.4719 53.3098C19.8517 52.6112 20.048 51.8278 20.0426 51.0328C20.0372 50.2377 19.8302 49.457 19.4409 48.7638C19.0208 48.0024 18.4482 47.3359 17.7589 46.8058C16.9875 46.2128 16.1212 45.7547 15.1969 45.4508C14.1422 45.1017 13.0368 44.9303 11.9259 44.9438C10.7832 44.929 9.64613 45.1075 8.5629 45.4718C7.63231 45.7813 6.76487 46.2555 6.0019 46.8718C5.33526 47.4119 4.7843 48.0809 4.3819 48.8388C4.01241 49.5269 3.8164 50.2947 3.8109 51.0758" fill="#FF7E2E"/>
<path d="M38.246 57.2237C39.4151 57.2574 40.5807 57.0785 41.686 56.6957C42.5102 56.4013 43.2586 55.9272 43.877 55.3077C44.4093 54.7567 44.8007 54.0854 45.018 53.3507C45.2312 52.6314 45.339 51.885 45.338 51.1347V43.7207H47.498V51.1347C47.5025 52.0992 47.3353 53.0569 47.004 53.9627C46.669 54.8617 46.1242 55.6677 45.415 56.3137C44.5868 57.0459 43.6141 57.596 42.56 57.9287C41.1725 58.3611 39.7238 58.5638 38.271 58.5287C36.7904 58.5664 35.3141 58.3527 33.905 57.8967C32.8459 57.5496 31.8727 56.9814 31.05 56.2297C30.3543 55.5775 29.8255 54.7678 29.508 53.8687C29.1996 52.9902 29.0427 52.0657 29.044 51.1347V43.7207H31.173V51.1347C31.1717 51.9002 31.2864 52.6615 31.513 53.3927C31.74 54.1254 32.1388 54.7932 32.676 55.3407C33.2908 55.9518 34.0337 56.4188 34.851 56.7077C35.9424 57.0824 37.0924 57.2576 38.246 57.2247" fill="#FF7E2E"/>
<path d="M71.292 45.0047H63.485V58.4247H61.325V45.0047H53.519V43.7207H71.292V45.0047Z" fill="#FF7E2E"/>
<path d="M77.6489 58.4247V43.7197H85.0849C86.6321 43.6938 88.175 43.8891 89.6669 44.2997C90.8426 44.6237 91.9503 45.1569 92.9369 45.8737C93.7676 46.486 94.4439 47.2839 94.9119 48.2037C95.3523 49.0882 95.5794 50.0636 95.5749 51.0517C95.59 52.1095 95.3353 53.1536 94.8349 54.0857C94.3204 55.0127 93.5965 55.8068 92.7209 56.4047C91.7148 57.0879 90.5985 57.5927 89.4209 57.8967C88.0058 58.2646 86.548 58.4422 85.0859 58.4247H77.6489ZM93.4159 51.0517C93.4248 50.2083 93.2347 49.3747 92.8609 48.6187C92.4762 47.8634 91.9213 47.2078 91.2399 46.7037C90.4558 46.1285 89.5719 45.7036 88.6329 45.4507C87.477 45.1366 86.2826 44.9865 85.0849 45.0047H79.8089V57.1407H85.0849C86.2991 57.1597 87.5097 57.0028 88.6789 56.6747C89.6202 56.4125 90.5043 55.977 91.2859 55.3907C91.9568 54.8856 92.4992 54.2295 92.8691 53.4757C93.239 52.7218 93.426 51.8913 93.4149 51.0517" fill="#FF7E2E"/>
<path d="M111.62 58.5287C110.201 58.5447 108.79 58.3313 107.44 57.8967C106.268 57.5243 105.167 56.9574 104.184 56.2198C103.325 55.5769 102.61 54.7623 102.084 53.8277C101.606 52.9881 101.351 52.0399 101.345 51.0738C101.347 50.0789 101.619 49.1034 102.132 48.2507C102.689 47.3185 103.429 46.5086 104.308 45.8697C105.301 45.1456 106.406 44.5895 107.58 44.2237C108.896 43.807 110.271 43.6008 111.652 43.6127C113.072 43.5968 114.485 43.8171 115.833 44.2647C117.001 44.6487 118.096 45.2264 119.073 45.9737C119.92 46.6233 120.628 47.4363 121.156 48.3647C121.633 49.194 121.888 50.1322 121.897 51.0887C121.893 52.0817 121.621 53.0551 121.109 53.9057C120.557 54.8345 119.822 55.6415 118.949 56.2777C117.96 56.9978 116.86 57.5505 115.693 57.9137C114.376 58.3309 113.001 58.5371 111.62 58.5247V58.5287ZM103.506 51.0697C103.507 51.8758 103.708 52.6689 104.092 53.3777C104.504 54.1429 105.071 54.8133 105.758 55.3457C106.526 55.9449 107.392 56.4073 108.318 56.7128C109.382 57.0628 110.497 57.2341 111.618 57.2198C112.761 57.2352 113.899 57.0532 114.981 56.6817C115.911 56.3662 116.779 55.8892 117.544 55.2727C118.21 54.7325 118.761 54.0635 119.163 53.3057C119.542 52.6072 119.739 51.8238 119.733 51.0288C119.728 50.2337 119.521 49.453 119.132 48.7597C118.712 47.9984 118.139 47.3319 117.45 46.8017C116.679 46.2085 115.813 45.7501 114.89 45.4457C113.835 45.0966 112.729 44.9252 111.618 44.9387C110.475 44.9241 109.338 45.1026 108.255 45.4667C107.324 45.7763 106.457 46.2505 105.695 46.8667C105.028 47.4067 104.477 48.0757 104.075 48.8337C103.705 49.5219 103.509 50.2897 103.504 51.0707" fill="#FF7E2E"/>
<path d="M137.879 58.5288C136.46 58.5448 135.049 58.3313 133.698 57.8968C132.526 57.5243 131.426 56.9573 130.442 56.2198C129.583 55.5772 128.868 54.7625 128.342 53.8278C127.864 52.9882 127.609 52.0399 127.602 51.0738C127.605 50.0788 127.878 49.1032 128.391 48.2508C128.948 47.3185 129.689 46.5086 130.567 45.8698C131.56 45.1458 132.665 44.5897 133.838 44.2238C135.155 43.8072 136.529 43.601 137.91 43.6128C139.331 43.5967 140.744 43.8171 142.092 44.2648C143.26 44.6485 144.356 45.2263 145.332 45.9738C146.179 46.6233 146.888 47.4364 147.415 48.3648C147.892 49.1941 148.147 50.1322 148.155 51.0888C148.152 52.0816 147.88 53.055 147.368 53.9058C146.816 54.8339 146.081 55.6407 145.209 56.2778C144.22 56.9976 143.12 57.5503 141.952 57.9138C140.635 58.3309 139.26 58.5371 137.879 58.5248V58.5288ZM129.768 51.0728C129.769 51.8787 129.971 52.6718 130.354 53.3808C130.765 54.1464 131.332 54.8174 132.018 55.3508C132.787 55.9501 133.653 56.4125 134.578 56.7178C135.643 57.0678 136.758 57.2391 137.878 57.2248C139.022 57.2402 140.159 57.0582 141.241 56.6868C142.171 56.3714 143.039 55.8944 143.803 55.2778C144.47 54.7378 145.022 54.0688 145.424 53.3108C145.804 52.6122 146 51.8287 145.994 51.0336C145.989 50.2386 145.781 49.4579 145.392 48.7648C144.972 48.0032 144.4 47.3366 143.71 46.8068C142.939 46.2135 142.073 45.7551 141.149 45.4508C140.094 45.1016 138.989 44.9302 137.878 44.9438C136.735 44.929 135.598 45.1075 134.515 45.4718C133.584 45.7813 132.717 46.2555 131.954 46.8718C131.288 47.412 130.737 48.081 130.335 48.8388C129.966 49.5269 129.77 50.2947 129.764 51.0758" fill="#FF7E2E"/>
<path d="M155.313 58.4247V43.7207H164.57C165.455 43.7098 166.336 43.8449 167.177 44.1207C167.913 44.3612 168.606 44.7177 169.229 45.1767C169.772 45.575 170.228 46.0788 170.572 46.6577C170.878 47.1663 171.043 47.7473 171.049 48.3407C171.05 48.8752 170.929 49.4029 170.695 49.8837C170.451 50.3831 170.116 50.8328 169.707 51.2097C169.256 51.6222 168.74 51.958 168.18 52.2037C167.542 52.4842 166.866 52.6692 166.174 52.7527L171.543 58.4267H169.105L163.949 52.9987H157.47V58.4257L155.313 58.4247ZM157.473 51.7137H164.632C165.225 51.721 165.814 51.6263 166.375 51.4337C166.865 51.267 167.32 51.0107 167.717 50.6777C168.073 50.3792 168.366 50.0136 168.581 49.6017C168.784 49.2114 168.89 48.7778 168.89 48.3377C168.888 47.8893 168.765 47.4497 168.535 47.0647C168.291 46.6487 167.966 46.2861 167.579 45.9987C167.149 45.68 166.669 45.435 166.159 45.2737C165.606 45.0923 165.028 45.0011 164.446 45.0037H157.473V51.7137Z" fill="#FF7E2E"/>
<path d="M191.352 46.4748C190.607 45.9456 189.77 45.5597 188.884 45.3368C187.737 45.0315 186.553 44.8848 185.366 44.9008C183.919 44.8071 182.47 45.0594 181.139 45.6368C180.75 45.8087 180.418 46.0884 180.183 46.4428C179.948 46.7972 179.819 47.2115 179.812 47.6368C179.795 48.0301 179.921 48.4161 180.167 48.7238C180.469 49.0522 180.844 49.3041 181.262 49.4588C181.876 49.7008 182.512 49.8813 183.162 49.9978C183.934 50.1498 184.844 50.3014 185.893 50.4528C187.065 50.6188 188.119 50.8051 189.056 51.0118C189.879 51.1822 190.681 51.4428 191.447 51.7888C192.031 52.0439 192.549 52.4298 192.96 52.9168C193.32 53.3924 193.505 53.9776 193.484 54.5738C193.497 55.2104 193.29 55.8321 192.898 56.3338C192.457 56.8696 191.897 57.2949 191.263 57.5758C190.468 57.9368 189.627 58.1846 188.763 58.3118C187.712 58.4771 186.649 58.5571 185.585 58.5508C182.516 58.6313 179.481 57.8949 176.791 56.4168L177.871 55.2368C178.312 55.5417 178.781 55.8052 179.271 56.0238C179.86 56.2882 180.469 56.5062 181.092 56.6758C181.796 56.8695 182.513 57.0148 183.237 57.1108C184.035 57.2171 184.838 57.2692 185.643 57.2668C187.035 57.326 188.424 57.1113 189.733 56.6348C190.148 56.511 190.514 56.2589 190.777 55.9147C191.04 55.5705 191.187 55.1519 191.198 54.7188C191.21 54.2966 191.061 53.8857 190.781 53.5698C190.431 53.2102 190.004 52.9341 189.532 52.7618C188.863 52.5006 188.17 52.3031 187.464 52.1718C186.642 52.0058 185.686 51.8391 184.595 51.6718C183.442 51.4924 182.434 51.3061 181.571 51.1128C180.816 50.9558 180.081 50.7125 179.381 50.3878C178.855 50.154 178.394 49.7949 178.039 49.3418C177.731 48.9036 177.574 48.3771 177.591 47.8418C177.583 47.1926 177.783 46.5578 178.162 46.0308C178.585 45.4628 179.142 45.0075 179.782 44.7048C180.565 44.3249 181.395 44.0531 182.251 43.8968C183.288 43.7017 184.342 43.6079 185.398 43.6168C186.712 43.5999 188.022 43.7494 189.298 44.0618C190.384 44.3361 191.427 44.7577 192.398 45.3148L191.352 46.4748Z" fill="#FF7E2E"/>
</svg>
