<svg width="123" height="30" viewBox="0 0 123 30" fill="none" xmlns="http://www.w3.org/2000/svg">
<path d="M121.25 8.47201C121.02 8.21334 120.764 7.9788 120.486 7.77201C120.6 6.87886 120.521 5.97167 120.255 5.11159C119.988 4.2515 119.541 3.45849 118.942 2.78601C117.497 1.15901 115.034 0.333008 111.619 0.333008H103.334C102.736 0.334652 102.157 0.548963 101.702 0.937671C101.247 1.32638 100.945 1.86417 100.85 2.45501L97.3969 24.333C97.3481 24.6262 97.3638 24.9266 97.4429 25.2131C97.522 25.4996 97.6627 25.7655 97.8551 25.992C98.0475 26.2186 98.287 26.4005 98.5569 26.525C98.8269 26.6496 99.1207 26.7137 99.4179 26.713H102.969L102.86 27.407C102.816 27.6862 102.833 27.9717 102.909 28.2437C102.986 28.5158 103.121 28.768 103.304 28.983C103.488 29.198 103.716 29.3706 103.972 29.489C104.229 29.6075 104.508 29.6689 104.791 29.669H109.104C109.663 29.6736 110.205 29.4788 110.633 29.1195C111.061 28.7602 111.347 28.2601 111.439 27.709L112.293 22.333L112.307 22.26H112.707C118.083 22.26 121.441 19.602 122.421 14.576C122.719 13.5389 122.769 12.4461 122.566 11.3862C122.363 10.3264 121.913 9.32934 121.252 8.47601L121.25 8.47201ZM104.457 17.272L103.504 23.319L103.389 24.044H100.142L103.463 3.00001H111.619C114.2 3.00001 116.042 3.53901 116.942 4.55201C117.367 5.04573 117.663 5.63665 117.804 6.27233C117.946 6.90801 117.928 7.56878 117.753 8.19601L117.728 8.34601C117.712 8.44601 117.697 8.54601 117.67 8.67401C117.412 10.579 116.461 12.3218 114.997 13.568C113.352 14.7126 111.369 15.2686 109.369 15.146H106.942C106.342 15.1439 105.76 15.3573 105.304 15.7475C104.848 16.1376 104.547 16.6786 104.456 17.272H104.457ZM119.802 14.065C119.068 17.836 116.812 19.592 112.702 19.592H112.057C111.498 19.5876 110.955 19.783 110.527 20.143C110.099 20.5031 109.813 21.0042 109.722 21.556L108.856 26.988L105.619 27L106.257 22.955L107.072 17.818H109.369C109.578 17.818 109.763 17.787 109.969 17.779C110.447 17.762 110.924 17.744 111.369 17.689C111.643 17.655 111.894 17.589 112.156 17.544C112.519 17.477 112.883 17.41 113.224 17.316C113.478 17.245 113.715 17.154 113.956 17.069C114.275 16.956 114.589 16.837 114.886 16.697C115.11 16.592 115.323 16.474 115.535 16.354C115.816 16.1947 116.088 16.0205 116.351 15.832C116.541 15.695 116.727 15.555 116.904 15.404C117.156 15.1871 117.395 14.9561 117.62 14.712C117.771 14.551 117.92 14.395 118.064 14.222C118.295 13.927 118.509 13.6184 118.704 13.298C118.804 13.135 118.919 12.984 119.013 12.813C119.283 12.3187 119.515 11.8045 119.707 11.275C119.719 11.243 119.735 11.216 119.746 11.184C119.751 11.169 119.759 11.157 119.764 11.142C120.028 12.0969 120.04 13.104 119.799 14.065H119.802Z" fill="#383838"/>
<path d="M18.3519 6.03223C16.8235 6.03161 15.3207 6.42419 13.9879 7.17223C12.6227 6.4092 11.0817 6.01637 9.51784 6.03272C7.95396 6.04907 6.42153 6.47402 5.07258 7.26542C3.72362 8.05682 2.60503 9.18717 1.82777 10.5443C1.05051 11.9015 0.641602 13.4383 0.641602 15.0022C0.641602 16.5662 1.05051 18.103 1.82777 19.4601C2.60503 20.8173 3.72362 21.9476 5.07258 22.739C6.42153 23.5304 7.95396 23.9554 9.51784 23.9717C11.0817 23.9881 12.6227 23.5953 13.9879 22.8322C15.1844 23.4989 16.5177 23.8827 17.8855 23.9541C19.2534 24.0254 20.6194 23.7825 21.8787 23.2439C23.1381 22.7053 24.2573 21.8853 25.1506 20.847C26.0438 19.8086 26.6873 18.5794 27.0316 17.2537C27.376 15.928 27.4121 14.541 27.1371 13.1992C26.8622 11.8574 26.2835 10.5964 25.4455 9.51297C24.6075 8.42955 23.5324 7.55251 22.3028 6.94914C21.0731 6.34577 19.7216 6.03211 18.3519 6.03223ZM11.6519 20.9422C11.002 21.1746 10.318 21.2973 9.6279 21.3052C7.95611 21.3052 6.35279 20.6411 5.17065 19.459C3.98852 18.2768 3.3244 16.6735 3.3244 15.0017C3.3244 13.3299 3.98852 11.7266 5.17065 10.5445C6.35279 9.36234 7.95611 8.69823 9.6279 8.69823C10.318 8.70615 11.002 8.82883 11.6519 9.06123C10.192 10.6954 9.38507 12.8099 9.38507 15.0012C9.38507 17.1925 10.192 19.3071 11.6519 20.9412V20.9422ZM13.9909 19.5322C13.3781 18.9476 12.8903 18.2446 12.557 17.466C12.2237 16.6874 12.0518 15.8492 12.0518 15.0022C12.0518 14.1553 12.2237 13.3171 12.557 12.5384C12.8903 11.7598 13.3781 11.0569 13.9909 10.4722C14.6037 11.0569 15.0915 11.7598 15.4248 12.5384C15.7581 13.3171 15.93 14.1553 15.93 15.0022C15.93 15.8492 15.7581 16.6874 15.4248 17.466C15.0915 18.2446 14.6037 18.9476 13.9909 19.5322ZM18.3549 21.3052C17.6648 21.2973 16.9808 21.1746 16.3309 20.9422C17.7908 19.3081 18.5977 17.1935 18.5977 15.0022C18.5977 12.8109 17.7908 10.6964 16.3309 9.06223C16.9808 8.82981 17.6648 8.70713 18.3549 8.69923C20.0267 8.69923 21.63 9.36334 22.8121 10.5455C23.9943 11.7276 24.6584 13.3309 24.6584 15.0027C24.6584 16.6745 23.9943 18.2778 22.8121 19.46C21.63 20.6421 20.0267 21.3062 18.3549 21.3062V21.3052Z" fill="#383838"/>
<path d="M58 9.66699L52.021 20.334H48.667V12.334C48.6927 11.8123 48.5834 11.2927 48.3497 10.8256C48.1161 10.3584 47.7659 9.95935 47.333 9.66699H51.333V16.334L55.333 9.66699H58ZM59.312 9.66699L55.343 20.334H58L62 9.66699H59.312ZM74.667 20.334L74.708 18.21L71.667 18.167L70.6 20.334H68.323L74 9.66699H76.667L77.4 20.334H74.667ZM74.667 12.375L72.667 16.334H74.646L74.667 12.375ZM65.444 11.975C66.244 9.97499 68.667 11.92 69 12.115C69.277 11.699 69.751 11.032 70 10.671C69.056 9.58699 65.243 8.53099 63.305 10.922C60 15.006 66.805 16.201 65.61 17.838C64.841 18.893 62.777 18.726 61.277 17.726C61.054 18.143 60.36 19.393 60.36 19.393C61.361 20.0819 62.5643 20.4147 63.777 20.338C65.056 20.338 67.59 20.138 68.322 17.643C69.389 14.003 64.555 14.198 65.443 11.975H65.444ZM46 5.66699H78V6.99999H46V5.66699ZM46 23H78V24.333H46V23Z" fill="#383838"/>
</svg>
