<svg width="21" height="20" viewBox="0 0 21 20" fill="none" xmlns="http://www.w3.org/2000/svg">
<path d="M18.4401 10.9989C18.2131 10.9832 17.9884 10.943 17.7701 10.8789C17.3246 10.7807 16.8868 10.6504 16.4601 10.4889C15.9962 10.3201 15.4862 10.3289 15.0284 10.5135C14.5706 10.6981 14.1972 11.0455 13.9801 11.4889L13.7601 11.9389C12.7861 11.3971 11.8911 10.7241 11.1001 9.93889C10.3149 9.14791 9.64192 8.25289 9.1001 7.27889L9.5201 6.99889C9.96347 6.78181 10.3109 6.40842 10.4955 5.95058C10.6801 5.49274 10.6889 4.9828 10.5201 4.51889C10.3613 4.09131 10.231 3.65369 10.1301 3.20889C10.0801 2.98889 10.0401 2.75889 10.0101 2.52889C9.88867 1.82451 9.51973 1.18663 8.96972 0.730131C8.41972 0.273628 7.7248 0.0285004 7.0101 0.0388915H4.0101C3.57913 0.034845 3.15235 0.123705 2.75881 0.299422C2.36527 0.475139 2.01421 0.733588 1.72953 1.05717C1.44485 1.38076 1.23324 1.76189 1.10909 2.17461C0.984942 2.58733 0.95118 3.02195 1.0101 3.44889C1.54284 7.63827 3.45613 11.5308 6.44775 14.5115C9.43938 17.4923 13.3388 19.3914 17.5301 19.9089H17.9101C18.3049 19.9089 18.6958 19.831 19.0605 19.6796C19.4251 19.5282 19.7563 19.3063 20.035 19.0267C20.3137 18.747 20.5344 18.4151 20.6846 18.05C20.8348 17.6849 20.9114 17.2937 20.9101 16.8989V13.8989C20.8979 13.2043 20.6449 12.5354 20.1944 12.0066C19.744 11.4777 19.1239 11.1215 18.4401 10.9989ZM18.9401 16.9989C18.9399 17.1409 18.9095 17.2812 18.8509 17.4105C18.7923 17.5398 18.7068 17.6552 18.6001 17.7489C18.4884 17.8454 18.3577 17.9174 18.2165 17.9605C18.0753 18.0035 17.9267 18.0166 17.7801 17.9989C14.035 17.5187 10.5563 15.8054 7.89282 13.1292C5.2293 10.453 3.53251 6.96623 3.0701 3.21889C3.05419 3.07241 3.06813 2.92422 3.1111 2.78328C3.15407 2.64234 3.22517 2.51158 3.3201 2.39889C3.41381 2.29222 3.52916 2.20673 3.65848 2.14811C3.7878 2.08948 3.92812 2.05907 4.0701 2.05889H7.0701C7.30265 2.05372 7.52972 2.12977 7.71224 2.27396C7.89477 2.41815 8.02131 2.62146 8.0701 2.84889C8.1101 3.12222 8.1601 3.39222 8.2201 3.65889C8.33627 4.18609 8.49068 4.70412 8.6821 5.20889L7.2821 5.85889C7.1624 5.91381 7.05472 5.99184 6.96526 6.08849C6.87579 6.18514 6.8063 6.29851 6.76077 6.42209C6.71524 6.54567 6.69457 6.67702 6.69995 6.80861C6.70533 6.9402 6.73664 7.06944 6.7921 7.18889C8.2313 10.2716 10.7093 12.7497 13.7921 14.1889C14.0383 14.2879 14.313 14.2892 14.5602 14.1925C14.8073 14.0959 15.0083 13.9086 15.1221 13.6689L15.7421 12.2689C16.2591 12.4538 16.7867 12.6074 17.3221 12.7289C17.5888 12.7889 17.8588 12.8389 18.1321 12.8789C18.3595 12.9277 18.5628 13.0542 18.707 13.2367C18.8512 13.4193 18.9273 13.6463 18.9221 13.8789L18.9401 16.9989Z" fill="#FF7E2E"/>
</svg>
