<svg width="34" height="35" viewBox="0 0 34 35" fill="none" xmlns="http://www.w3.org/2000/svg">
<path d="M17.652 34H15.457C15.3776 33.9728 15.2959 33.9527 15.213 33.94C13.6256 33.828 12.0648 33.4732 10.585 32.888C7.10819 31.5468 4.18777 29.0683 2.29918 25.8558C0.410591 22.6433 -0.334936 18.8862 0.183974 15.196C0.666373 11.39 2.50519 7.88559 5.36297 5.32599C7.14266 3.64812 9.28022 2.39644 11.6143 1.66541C13.9485 0.934372 16.4181 0.743086 18.837 1.10599C21.9952 1.50362 24.9596 2.8459 27.342 4.95699C30.3439 7.51345 32.3155 11.073 32.89 14.974C32.964 15.439 33.017 15.907 33.08 16.374V18.574C33.03 18.974 32.988 19.382 32.927 19.783C32.4058 23.5646 30.5774 27.0444 27.759 29.619C25.3505 31.8726 22.3107 33.3364 19.047 33.814C18.583 33.885 18.117 33.941 17.652 34.005V34ZM16.552 31.234C19.2726 31.235 21.9325 30.4292 24.1953 28.9186C26.458 27.408 28.2221 25.2604 29.2644 22.7473C30.3067 20.2342 30.5804 17.4685 30.051 14.7999C29.5215 12.1312 28.2127 9.67947 26.2899 7.75462C24.3672 5.82977 21.9169 4.51826 19.2488 3.98591C16.5807 3.45356 13.8147 3.72428 11.3005 4.76383C8.78625 5.80338 6.63672 7.56509 5.12365 9.82621C3.61059 12.0873 2.80195 14.7463 2.79997 17.467C2.79958 19.2738 3.15508 21.0631 3.84617 22.7326C4.53726 24.402 5.55041 25.919 6.82777 27.1969C8.10513 28.4749 9.62169 29.4887 11.2909 30.1805C12.96 30.8723 14.7491 31.2286 16.556 31.229" fill="#FF7E2E"/>
<path d="M13.8289 17.506C13.8289 15.9146 13.8289 14.3233 13.8289 12.732C13.8202 12.5609 13.8385 12.3895 13.8829 12.224C13.9293 12.0945 14.0073 11.9787 14.1097 11.8869C14.212 11.795 14.3357 11.7301 14.4694 11.698C14.6031 11.6659 14.7427 11.6675 14.8757 11.7028C15.0086 11.738 15.1307 11.8058 15.2309 11.9C16.4519 12.779 17.6659 13.667 18.8829 14.551C19.8735 15.271 20.8645 15.991 21.8559 16.711C22.0051 16.7798 22.1315 16.8899 22.2201 17.0283C22.3087 17.1667 22.3558 17.3276 22.3558 17.492C22.3558 17.6563 22.3087 17.8172 22.2201 17.9556C22.1315 18.094 22.0051 18.2042 21.8559 18.273C19.6839 19.853 17.5105 21.4316 15.3359 23.009C15.2409 23.0808 15.1406 23.1453 15.0359 23.202C14.9164 23.2711 14.781 23.3081 14.6429 23.3094C14.5049 23.3107 14.3688 23.2763 14.248 23.2094C14.1272 23.1426 14.0258 23.0456 13.9536 22.928C13.8813 22.8103 13.8408 22.6759 13.8359 22.538C13.8069 21.894 13.8219 21.248 13.8209 20.603C13.8209 19.571 13.8209 18.5377 13.8209 17.503" fill="#FF7E2E"/>
</svg>
