<svg width="93" height="93" viewBox="0 0 93 93" fill="none" xmlns="http://www.w3.org/2000/svg">
<path d="M49.558 92.468H43.453C43.2325 92.392 43.0056 92.3358 42.775 92.3C38.3594 91.9889 34.0176 91.0025 29.901 89.3751C20.231 85.6426 12.1086 78.7476 6.85561 69.8118C1.60264 60.8761 -0.47174 50.4257 0.970019 40.1611C2.31138 29.5738 7.42593 19.8255 15.375 12.7051C26.019 3.02405 38.609 -0.851947 52.855 0.968053C61.6401 2.07436 69.8862 5.80842 76.513 11.6811C84.8631 18.7929 90.3465 28.6948 91.944 39.5461C92.144 40.84 92.298 42.1461 92.473 43.4401V49.5461C92.333 50.6681 92.217 51.7931 92.049 52.9101C90.599 63.4292 85.5125 73.1089 77.672 80.2701C70.9722 86.5386 62.5165 90.6098 53.438 91.938C52.148 92.138 50.852 92.292 49.559 92.468H49.558ZM46.51 84.7611C54.0782 84.7617 61.4767 82.5181 67.7699 78.3142C74.0632 74.1102 78.9686 68.1346 81.8658 61.1429C84.7631 54.1512 85.5222 46.4574 84.0471 39.0343C82.572 31.6112 78.9289 24.7922 73.5786 19.4395C68.2282 14.0868 61.4108 10.4407 53.9884 8.96229C46.566 7.48389 38.8719 8.23955 31.8789 11.1337C24.8859 14.0279 18.9081 18.9306 14.7014 25.222C10.4946 31.5134 8.24779 38.9108 8.24502 46.4791C8.2429 56.6298 12.2732 66.3656 19.4492 73.5448C26.6253 80.7241 36.3593 84.7587 46.51 84.7611Z" fill="white"/>
<path d="M38.9251 46.5891C38.9251 42.1624 38.9271 37.7354 38.9311 33.3081C38.9074 32.8321 38.9583 32.3553 39.0821 31.8951C39.5971 30.3501 41.3491 29.9261 42.8321 30.9951C46.2321 33.4401 49.6051 35.9101 52.9901 38.3701C55.7468 40.3701 58.5031 42.3731 61.2591 44.3791C63.1131 45.7281 63.1161 47.3791 61.2591 48.7241C55.2164 53.1194 49.1714 57.5111 43.1241 61.8991C42.8628 62.0981 42.5871 62.2772 42.2991 62.4351C41.9667 62.6257 41.5908 62.7274 41.2076 62.7301C40.8244 62.7329 40.447 62.6367 40.1119 62.4508C39.7768 62.265 39.4954 61.9958 39.2948 61.6693C39.0943 61.3428 38.9814 60.97 38.9671 60.5871C38.8871 58.7961 38.9291 56.9991 38.9261 55.2051C38.9214 52.3338 38.9214 49.4621 38.9261 46.5901" fill="white"/>
</svg>
