<svg width="29" height="28" viewBox="0 0 29 28" fill="none" xmlns="http://www.w3.org/2000/svg">
<path d="M26.7999 28C26.6377 28.0001 26.4772 27.9672 26.3281 27.9033C26.179 27.8393 26.0446 27.7457 25.9329 27.628L18.1999 19.821C16.0548 21.5589 13.3424 22.4414 10.5854 22.2985C7.82839 22.1556 5.22181 20.9974 3.26789 19.047C1.70687 17.4863 0.643886 15.4976 0.213448 13.3326C-0.216991 11.1676 0.00446337 8.92354 0.849788 6.88442C1.69511 4.8453 3.12631 3.10275 4.96229 1.87729C6.79827 0.651818 8.9565 -0.00149746 11.1639 1.05325e-05C13.2653 -0.00287745 15.3248 0.588201 17.1048 1.7051C18.8849 2.82199 20.313 4.41922 21.2246 6.31264C22.1362 8.20606 22.4941 10.3186 22.2571 12.4066C22.02 14.4946 21.1977 16.4731 19.8849 18.114L27.6729 25.973C27.8911 26.205 28.0089 26.5137 28.0007 26.8321C27.9925 27.1504 27.8588 27.4527 27.6289 27.673C27.4063 27.8867 27.1085 28.0042 26.7999 28ZM11.1639 2.40601C9.72424 2.40709 8.30707 2.76317 7.03789 3.44272C5.76871 4.12227 4.6867 5.10432 3.88768 6.30188C3.08865 7.49945 2.59728 8.87558 2.45707 10.3084C2.31687 11.7412 2.53216 13.1865 3.08389 14.5162C3.63561 15.8459 4.50673 17.0191 5.62011 17.9318C6.73348 18.8445 8.05474 19.4685 9.46688 19.7487C10.879 20.0288 12.3384 19.9564 13.7159 19.5378C15.0934 19.1192 16.3464 18.3674 17.3639 17.349C18.5879 16.1239 19.4211 14.5633 19.7581 12.8646C20.0951 11.1659 19.9207 9.4054 19.257 7.80581C18.5933 6.20622 17.4702 4.8394 16.0296 3.87822C14.589 2.91705 12.8957 2.40471 11.1639 2.40601Z" fill="#9AA4AF"/>
</svg>
