<svg width="33" height="12" viewBox="0 0 33 12" fill="none" xmlns="http://www.w3.org/2000/svg">
<path d="M21.468 11.3851H1.65501C1.30967 11.3663 0.984671 11.2158 0.746862 10.9647C0.509053 10.7136 0.376517 10.3809 0.376517 10.0351C0.376517 9.68922 0.509053 9.35652 0.746862 9.10541C0.984671 8.8543 1.30967 8.70387 1.65501 8.68507H21.468C21.8133 8.70387 22.1383 8.8543 22.3761 9.10541C22.614 9.35652 22.7465 9.68922 22.7465 10.0351C22.7465 10.3809 22.614 10.7136 22.3761 10.9647C22.1383 11.2158 21.8133 11.3663 21.468 11.3851ZM30.931 3.27007H1.65501C1.30004 3.2669 0.960758 3.12332 0.711344 2.87072C0.461931 2.61812 0.322669 2.27705 0.324005 1.92207C0.321607 1.5664 0.460399 1.2243 0.709927 0.970832C0.959455 0.717368 1.29934 0.573238 1.65501 0.570068L30.931 0.570068C31.2867 0.573238 31.6266 0.717368 31.8761 0.970832C32.1256 1.2243 32.2644 1.5664 32.262 1.92207C32.2633 2.27705 32.1241 2.61812 31.8747 2.87072C31.6253 3.12332 31.286 3.2669 30.931 3.27007Z" fill="black"/>
</svg>
