<svg width="56" height="57" viewBox="0 0 56 57" fill="none" xmlns="http://www.w3.org/2000/svg">
<path d="M48 0.51709H8C3.58172 0.51709 0 4.09881 0 8.51709V48.5171C0 52.9354 3.58172 56.5171 8 56.5171H48C52.4183 56.5171 56 52.9354 56 48.5171V8.51709C56 4.09881 52.4183 0.51709 48 0.51709Z" fill="#9B9B9B"/>
<path d="M22.1832 41.8501H22.0502C19.3641 41.8265 16.7168 41.2058 14.3002 40.0331C13.8556 39.8243 13.4896 39.4786 13.2557 39.0468C13.0217 38.6149 12.9322 38.1195 13.0002 37.6331C13.074 37.1434 13.3006 36.6895 13.6478 36.3362C13.9949 35.983 14.4448 35.7484 14.9332 35.6661C16.4312 35.4658 17.8722 34.9604 19.1672 34.1811C16.9196 32.4237 15.1892 30.091 14.1593 27.4303C13.1294 24.7695 12.8384 21.8797 13.3172 19.0671C13.382 18.6215 13.5735 18.204 13.8689 17.8641C14.1642 17.5243 14.551 17.2764 14.9832 17.1501C15.4036 17.0181 15.8536 17.0124 16.2772 17.1338C16.7008 17.2552 17.0795 17.4984 17.3662 17.8331C18.3398 19.1095 19.5634 20.1742 20.9622 20.9621C22.3604 21.7499 23.9044 22.2446 25.5002 22.4161C25.5763 20.4524 26.4201 18.597 27.8502 17.2491C28.5642 16.5653 29.4072 16.0306 30.33 15.6759C31.2527 15.3212 32.2369 15.1537 33.2251 15.1833C34.2132 15.2128 35.1856 15.4386 36.0856 15.8477C36.9856 16.2568 37.7952 16.841 38.4672 17.5661C38.6422 17.7209 38.8597 17.8196 39.0915 17.8493C39.3233 17.8791 39.5586 17.8386 39.7672 17.7331C40.1646 17.5459 40.607 17.4755 41.0429 17.5301C41.4788 17.5848 41.8901 17.7623 42.229 18.0418C42.5679 18.3214 42.8203 18.6915 42.9569 19.109C43.0934 19.5266 43.1084 19.9743 43.0002 20.4001C42.6158 21.9835 41.8876 23.4628 40.8672 24.7331C40.6424 29.4745 38.5521 33.9348 35.052 37.1413C31.552 40.3478 26.9261 42.0404 22.1832 41.8501ZM22.1832 38.5171H22.3162C24.254 38.5839 26.1859 38.2653 27.9998 37.5798C29.8136 36.8943 31.4733 35.8556 32.8826 34.5238C34.292 33.192 35.4229 31.5937 36.2099 29.8216C36.9969 28.0494 37.4242 26.1387 37.4672 24.2001C37.4939 23.6681 37.7128 23.1639 38.0832 22.7811C38.4896 22.2664 38.8361 21.7071 39.1162 21.1141C38.5158 21.1151 37.9219 20.9894 37.3734 20.7453C36.8249 20.5011 36.3342 20.1439 35.9332 19.6971C35.5475 19.3148 35.0895 19.0132 34.5858 18.8101C34.0822 18.6069 33.5431 18.5063 33.0002 18.5141C32.4517 18.5 31.9059 18.5943 31.394 18.7916C30.8821 18.989 30.4142 19.2855 30.0172 19.6641C29.4815 20.1724 29.0888 20.8125 28.8782 21.5202C28.6676 22.228 28.6466 22.9786 28.8172 23.6971L29.2502 25.5971L27.3002 25.7301C25.302 25.8934 23.2923 25.6204 21.4102 24.9301C19.528 24.2391 17.8185 23.1472 16.4002 21.7301C16.3388 23.9247 16.8874 26.0933 17.9849 27.9946C19.0825 29.896 20.686 31.4557 22.6172 32.5001L24.2002 33.4001L23.1502 34.9001C22.0145 36.3893 20.4586 37.504 18.6832 38.1001C19.8219 38.3856 20.9922 38.5257 22.1662 38.5171H22.1832Z" fill="#FAFAFA"/>
</svg>
