<svg width="21" height="20" viewBox="0 0 21 20" fill="none" xmlns="http://www.w3.org/2000/svg">
<path d="M17.911 11.0001C17.684 10.9845 17.4594 10.9442 17.241 10.8801C16.7955 10.7819 16.3577 10.6516 15.931 10.4901C15.4671 10.3213 14.9572 10.3301 14.4994 10.5147C14.0415 10.6993 13.6681 11.0467 13.451 11.4901L13.231 11.9401C12.257 11.3983 11.362 10.7253 10.571 9.94011C9.78582 9.14913 9.11287 8.25411 8.57105 7.28011L8.99105 7.00011C9.43441 6.78303 9.78183 6.40964 9.96644 5.9518C10.1511 5.49396 10.1598 4.98402 9.99105 4.52011C9.83227 4.09253 9.70198 3.65491 9.60105 3.21011C9.55105 2.99011 9.51105 2.76011 9.48105 2.53011C9.35961 1.82573 8.99067 1.18785 8.44067 0.731351C7.89067 0.274849 7.19574 0.0297211 6.48105 0.0401122H3.48105C3.05008 0.0360657 2.6233 0.124926 2.22976 0.300643C1.83622 0.47636 1.48516 0.734808 1.20048 1.05839C0.915799 1.38198 0.704183 1.76311 0.580036 2.17583C0.45589 2.58855 0.422127 3.02317 0.481048 3.45011C1.01379 7.63949 2.92708 11.532 5.9187 14.5127C8.91032 17.4935 12.8098 19.3926 17.001 19.9101H17.381C17.7759 19.9101 18.1668 19.8322 18.5314 19.6808C18.896 19.5294 19.2272 19.3075 19.5059 19.0279C19.7846 18.7483 20.0054 18.4164 20.1556 18.0512C20.3057 17.6861 20.3824 17.2949 20.381 16.9001V13.9001C20.3688 13.2055 20.1159 12.5367 19.6654 12.0078C19.2149 11.4789 18.5949 11.1227 17.911 11.0001ZM18.411 17.0001C18.4109 17.1421 18.3805 17.2824 18.3218 17.4117C18.2632 17.5411 18.1777 17.6564 18.071 17.7501C17.9593 17.8466 17.8287 17.9187 17.6874 17.9617C17.5462 18.0048 17.3976 18.0178 17.251 18.0001C13.5059 17.5199 10.0273 15.8066 7.36376 13.1304C4.70024 10.4542 3.00346 6.96745 2.54105 3.22011C2.52513 3.07363 2.53908 2.92544 2.58205 2.7845C2.62502 2.64356 2.69612 2.5128 2.79105 2.40011C2.88476 2.29344 3.00011 2.20795 3.12943 2.14933C3.25874 2.09071 3.39906 2.06029 3.54105 2.06011H6.54105C6.77359 2.05494 7.00067 2.13099 7.18319 2.27518C7.36571 2.41937 7.49226 2.62268 7.54105 2.85011C7.58105 3.12345 7.63105 3.39345 7.69105 3.66011C7.80722 4.18731 7.96163 4.70534 8.15305 5.21011L6.75305 5.86011C6.63335 5.91503 6.52567 5.99306 6.43621 6.08971C6.34674 6.18636 6.27725 6.29973 6.23172 6.42331C6.18619 6.54689 6.16552 6.67824 6.1709 6.80983C6.17627 6.94143 6.20759 7.07066 6.26305 7.19011C7.70225 10.2729 10.1803 12.7509 13.263 14.1901C13.5093 14.2891 13.784 14.2904 14.0311 14.1938C14.2783 14.0971 14.4793 13.9099 14.593 13.6701L15.213 12.2701C15.73 12.455 16.2576 12.6086 16.793 12.7301C17.0597 12.7901 17.3297 12.8401 17.603 12.8801C17.8305 12.9289 18.0338 13.0554 18.178 13.238C18.3222 13.4205 18.3982 13.6476 18.393 13.8801L18.411 17.0001Z" fill="#FF7E2E"/>
</svg>
