<svg width="23" height="16" viewBox="0 0 23 16" fill="none" xmlns="http://www.w3.org/2000/svg">
<path d="M19.97 0H3.96997C3.17432 0 2.41126 0.31607 1.84865 0.87868C1.28604 1.44129 0.969971 2.20435 0.969971 3L0.969971 13C0.969971 13.7956 1.28604 14.5587 1.84865 15.1213C2.41126 15.6839 3.17432 16 3.96997 16H19.97C20.7656 16 21.5287 15.6839 22.0913 15.1213C22.6539 14.5587 22.97 13.7956 22.97 13V3C22.97 2.20435 22.6539 1.44129 22.0913 0.87868C21.5287 0.31607 20.7656 0 19.97 0V0ZM20.97 12.75L16.07 8.35L20.97 4.92V12.75ZM2.96997 4.92L7.86997 8.35L2.96997 12.75V4.92ZM9.54997 9.53L11.4 10.82C11.5674 10.9361 11.7662 10.9984 11.97 10.9984C12.1737 10.9984 12.3726 10.9361 12.54 10.82L14.39 9.53L19.39 14H4.56997L9.54997 9.53ZM3.96997 2H19.97C20.1557 2.00149 20.3373 2.05467 20.4945 2.15358C20.6517 2.25249 20.7783 2.39322 20.86 2.56L11.97 8.78L3.07997 2.56C3.16168 2.39322 3.28823 2.25249 3.44542 2.15358C3.60262 2.05467 3.78425 2.00149 3.96997 2Z" fill="#FF7E2E"/>
</svg>
