<svg width="21" height="20" viewBox="0 0 21 20" fill="none" xmlns="http://www.w3.org/2000/svg">
<path d="M19.792 0H1.99197C1.70023 0 1.42044 0.115893 1.21415 0.322183C1.00786 0.528473 0.891968 0.808262 0.891968 1.1L0.891968 18.9C0.891968 19.1917 1.00786 19.4715 1.21415 19.6778C1.42044 19.8841 1.70023 20 1.99197 20H11.572V12.25H8.97197V9.25H11.572V7C11.5181 6.47176 11.5805 5.93813 11.7547 5.43654C11.9289 4.93495 12.2107 4.47755 12.5804 4.09641C12.9501 3.71528 13.3987 3.41964 13.8948 3.23024C14.3908 3.04083 14.9223 2.96225 15.452 3C16.2303 2.99521 17.0083 3.03528 17.782 3.12V5.82H16.192C14.932 5.82 14.692 6.42 14.692 7.29V9.22H17.692L17.302 12.22H14.692V20H19.792C20.0837 20 20.3635 19.8841 20.5698 19.6778C20.7761 19.4715 20.892 19.1917 20.892 18.9V1.1C20.892 0.808262 20.7761 0.528473 20.5698 0.322183C20.3635 0.115893 20.0837 0 19.792 0V0Z" fill="#A7A7A7"/>
</svg>
