<svg width="21" height="20" viewBox="0 0 21 20" fill="none" xmlns="http://www.w3.org/2000/svg">
<path d="M16.232 3.46C15.9544 3.46022 15.6854 3.55668 15.4709 3.73296C15.2565 3.90924 15.1098 4.15443 15.0558 4.42675C15.0018 4.69907 15.044 4.98167 15.175 5.22642C15.306 5.47116 15.5179 5.6629 15.7744 5.76896C16.031 5.87503 16.3164 5.88886 16.582 5.8081C16.8476 5.72735 17.077 5.55699 17.2311 5.32607C17.3852 5.09515 17.4544 4.81794 17.4271 4.54168C17.3997 4.26542 17.2774 4.00719 17.081 3.811C16.9694 3.6996 16.8371 3.61126 16.6914 3.55104C16.5457 3.49081 16.3896 3.45988 16.232 3.46ZM20.832 5.88C20.8125 5.0503 20.6571 4.2294 20.372 3.45C20.1177 2.78313 19.722 2.17928 19.212 1.68C18.7168 1.16743 18.1115 0.774176 17.442 0.53C16.6646 0.236161 15.8428 0.0772101 15.012 0.06C13.952 0 13.612 0 10.892 0C8.17197 0 7.83197 0 6.77197 0.06C5.94112 0.0772101 5.11931 0.236161 4.34197 0.53C3.67364 0.776649 3.0689 1.16956 2.57197 1.68C2.05939 2.17518 1.66614 2.78044 1.42197 3.45C1.12813 4.22734 0.969178 5.04915 0.951968 5.88C0.891968 6.94 0.891968 7.28 0.891968 10C0.891968 12.72 0.891968 13.06 0.951968 14.12C0.969178 14.9508 1.12813 15.7727 1.42197 16.55C1.66614 17.2196 2.05939 17.8248 2.57197 18.32C3.0689 18.8304 3.67364 19.2234 4.34197 19.47C5.11931 19.7638 5.94112 19.9228 6.77197 19.94C7.83197 20 8.17197 20 10.892 20C13.612 20 13.952 20 15.012 19.94C15.8428 19.9228 16.6646 19.7638 17.442 19.47C18.1115 19.2258 18.7168 18.8326 19.212 18.32C19.7242 17.8226 20.1203 17.2182 20.372 16.55C20.6571 15.7706 20.8125 14.9497 20.832 14.12C20.832 13.06 20.892 12.72 20.892 10C20.892 7.28 20.892 6.94 20.832 5.88ZM19.032 14C19.0247 14.6348 18.9097 15.2637 18.692 15.86C18.5323 16.2952 18.2758 16.6884 17.942 17.01C17.6176 17.3405 17.2252 17.5964 16.792 17.76C16.1957 17.9778 15.5667 18.0927 14.932 18.1C13.932 18.15 13.562 18.16 10.932 18.16C8.30197 18.16 7.93197 18.16 6.93197 18.1C6.27286 18.1123 5.61656 18.0109 4.99197 17.8C4.57775 17.6281 4.20332 17.3728 3.89197 17.05C3.56006 16.7287 3.30681 16.3352 3.15197 15.9C2.90782 15.2952 2.77241 14.6519 2.75197 14C2.75197 13 2.69197 12.63 2.69197 10C2.69197 7.37 2.69197 7 2.75197 6C2.75645 5.35106 2.87492 4.70795 3.10197 4.1C3.27801 3.67791 3.54823 3.30166 3.89197 3C4.19578 2.65617 4.57126 2.3831 4.99197 2.2C5.60152 1.98004 6.24397 1.86508 6.89197 1.86C7.89197 1.86 8.26197 1.8 10.892 1.8C13.522 1.8 13.892 1.8 14.892 1.86C15.5267 1.86728 16.1557 1.98225 16.752 2.2C17.2064 2.36865 17.6143 2.64285 17.942 3C18.2697 3.30718 18.5257 3.68273 18.692 4.1C18.9142 4.70893 19.0293 5.35178 19.032 6C19.082 7 19.092 7.37 19.092 10C19.092 12.63 19.082 13 19.032 14ZM10.892 4.87C9.62129 4.87497 8.39785 5.35228 7.45952 6.20913C6.52118 7.06597 5.935 8.24113 5.81492 9.50614C5.69484 10.7711 6.04946 12.0356 6.80982 13.0537C7.57018 14.0718 8.68196 14.7708 9.92902 15.0147C11.1761 15.2587 12.4693 15.0302 13.5572 14.3737C14.6452 13.7172 15.4502 12.6796 15.8157 11.4626C16.1811 10.2456 16.081 8.93616 15.5347 7.78888C14.9885 6.6416 14.0351 5.73845 12.86 5.255C12.2357 4.99845 11.5669 4.86762 10.892 4.87ZM10.892 13.33C10.0653 13.3298 9.26823 13.0221 8.65585 12.4668C8.04347 11.9114 7.65954 11.1482 7.57874 10.3255C7.49794 9.50274 7.72605 8.67938 8.2187 8.01553C8.71135 7.35168 9.43332 6.89481 10.2442 6.73378C11.055 6.57276 11.8968 6.71909 12.6057 7.14433C13.3146 7.56956 13.84 8.24328 14.0797 9.03445C14.3194 9.82562 14.2563 10.6777 13.9026 11.4248C13.5488 12.172 12.9298 12.7609 12.166 13.077C11.762 13.2441 11.3291 13.3301 10.892 13.33Z" fill="#A7A7A7"/>
</svg>
