<svg width="24" height="21" viewBox="0 0 24 21" fill="none" xmlns="http://www.w3.org/2000/svg">
<path d="M16.4775 2.49902C15.091 2.54405 13.9866 3.07202 13.1945 4.06851L11.7107 5.93516L10.1308 4.14915C9.78454 3.7577 9.39441 3.425 9.00232 3.18675C8.26676 2.74639 7.43377 2.53231 6.45593 2.53231C6.30569 2.53231 6.15027 2.53753 5.99342 2.54784C4.82266 2.67998 3.89899 3.17455 3.17157 4.05859C2.35492 5.14939 1.96173 6.33284 2.0026 7.57223C2.0452 8.77948 2.41747 9.90443 3.14067 11.0114L3.14548 11.0188C4.0823 12.4666 5.29085 13.5651 6.23906 14.3604L6.28046 14.3961C7.71922 15.6714 9.40126 16.8421 11.5538 18.0649C13.4655 16.9773 15.0802 15.8649 16.4815 14.6706L16.5068 14.6494C17.9979 13.4205 19.1126 12.2178 20.0147 10.8646L20.035 10.8348C21.0119 9.42526 21.3451 8.00388 21.0819 6.36521C20.8356 5.23384 20.472 4.44144 19.9394 3.87413L19.913 3.84548C19.0951 2.93945 18.0413 2.49902 16.6913 2.49902H16.4775ZM16.4476 0.499023H16.6913C18.5851 0.499023 20.1788 1.15527 21.3976 2.50527C22.2601 3.42402 22.7476 4.58652 23.0476 5.99277C23.4038 8.13027 22.9913 10.0803 21.6788 11.974C20.7038 13.4365 19.4851 14.7865 17.7788 16.1928C16.1288 17.599 14.3101 18.8178 12.2288 19.9803C11.9851 20.1115 11.7976 20.1678 11.5538 20.1678C11.3101 20.1678 11.1226 20.1115 10.8788 19.9803C8.49759 18.649 6.60384 17.3553 4.95384 15.8928C3.79134 14.9178 2.49759 13.699 1.46634 12.1053C0.547587 10.699 0.0600879 9.23652 0.0038383 7.64277C-0.0524228 5.93652 0.491338 4.28652 1.59759 2.82402C2.64759 1.53027 4.05384 0.742773 5.81634 0.555273C7.4101 0.442785 8.81634 0.742775 10.0351 1.47402C10.6538 1.84902 11.1976 2.33652 11.6288 2.82402C12.7913 1.36152 14.4413 0.555273 16.4476 0.499023Z" fill="#383838"/>
</svg>
