<svg width="24" height="21" viewBox="0 0 24 21" fill="none" xmlns="http://www.w3.org/2000/svg">
<path d="M11.554 19.3338C11.5082 19.3338 11.4803 19.3338 11.3597 19.2694C9.00099 17.9502 7.17608 16.6921 5.6173 15.3104L5.60707 15.3014L5.5966 15.2926C4.59473 14.4523 3.31531 13.2878 2.30606 11.728C1.47792 10.4605 1.05259 9.16813 1.00337 7.77352C0.954509 6.29166 1.41922 4.88927 2.38488 3.60709C3.28008 2.51059 4.46423 1.87491 5.90476 1.71757C6.09128 1.7048 6.27666 1.69833 6.45608 1.69833C7.62197 1.69833 8.62443 1.95975 9.52073 2.49753C9.99535 2.78519 10.4667 3.1854 10.88 3.65261L11.6699 4.5456L12.4118 3.61228C13.3984 2.37107 14.7611 1.71596 16.4623 1.66504H16.6915C18.3405 1.66504 19.6371 2.21338 20.6555 3.34139L20.662 3.34862L20.6687 3.35573C21.3347 4.06522 21.7787 5.01555 22.065 6.34529C22.3801 8.26611 21.996 9.92712 20.8571 11.5704L20.8519 11.5778L20.8469 11.5853C19.8889 13.0224 18.7119 14.294 17.143 15.5871L17.1366 15.5923L17.1303 15.5977C15.6075 16.8956 13.847 18.0966 11.7486 19.2692C11.6277 19.3338 11.5998 19.3338 11.554 19.3338Z" fill="#FF7E2E"/>
<path d="M16.4777 2.66504C15.0912 2.71007 13.9867 3.23803 13.1946 4.23453L11.7108 6.10118L10.1309 4.31517C9.78466 3.92372 9.39453 3.59102 9.00244 3.35276C8.26688 2.91241 7.4339 2.69833 6.45605 2.69833C6.30581 2.69833 6.15039 2.70355 5.99354 2.71385C4.82279 2.84599 3.89911 3.34057 3.17169 4.22461C2.35505 5.31541 1.96185 6.49885 2.00272 7.73825C2.04532 8.9455 2.41759 10.0704 3.14079 11.1774L3.1456 11.1848C4.08242 12.6326 5.29097 13.7311 6.23918 14.5264L6.28058 14.5621C7.71934 15.8374 9.40139 17.0082 11.5539 18.231C13.4656 17.1434 15.0803 16.031 16.4817 14.8366L16.5069 14.8154C17.9981 13.5865 19.1127 12.3838 20.0149 11.0306L20.0352 11.0008C21.012 9.59128 21.3452 8.1699 21.0821 6.53123C20.8357 5.39986 20.4721 4.60746 19.9396 4.04015L19.9132 4.0115C19.0952 3.10547 18.0414 2.66504 16.6914 2.66504H16.4777ZM16.4477 0.665039H16.6914C18.5852 0.665039 20.179 1.32129 21.3977 2.67129C22.2602 3.59004 22.7477 4.75254 23.0477 6.15879C23.4039 8.29629 22.9915 10.2463 21.679 12.14C20.704 13.6025 19.4852 14.9525 17.779 16.3588C16.1289 17.765 14.3102 18.9838 12.229 20.1463C11.9852 20.2775 11.7977 20.3338 11.554 20.3338C11.3102 20.3338 11.1227 20.2775 10.879 20.1463C8.49771 18.815 6.60396 17.5213 4.95396 16.0588C3.79146 15.0838 2.49771 13.865 1.46646 12.2713C0.547709 10.865 0.06021 9.40254 0.00396037 7.80879C-0.0523007 6.10254 0.49146 4.45254 1.59771 2.99004C2.64771 1.69629 4.05396 0.908789 5.81646 0.721289C7.41022 0.608801 8.81646 0.908791 10.0352 1.64004C10.654 2.01504 11.1977 2.50254 11.629 2.99004C12.7915 1.52754 14.4415 0.721289 16.4477 0.665039Z" fill="#FF7E2E"/>
</svg>
