<svg width="23" height="22" viewBox="0 0 23 22" fill="none" xmlns="http://www.w3.org/2000/svg">
<path d="M20.978 0.345974H2.57797C2.37119 0.342267 2.16571 0.379397 1.97331 0.455238C1.78091 0.531079 1.60536 0.64414 1.45673 0.787942C1.30809 0.931744 1.1893 1.10346 1.10714 1.29325C1.02499 1.48305 0.98109 1.68719 0.977966 1.89397L0.977966 20.394C0.9807 20.6011 1.0243 20.8056 1.10627 20.9958C1.18824 21.186 1.30696 21.3581 1.45562 21.5023C1.60427 21.6465 1.77995 21.7599 1.97255 21.8361C2.16515 21.9122 2.37089 21.9495 2.57797 21.946H20.978C21.1847 21.9497 21.3902 21.9126 21.5826 21.8367C21.775 21.7609 21.9506 21.6478 22.0992 21.504C22.2478 21.3602 22.3666 21.1885 22.4488 20.9987C22.5309 20.8089 22.5748 20.6048 22.578 20.398V1.89397C22.575 1.68715 22.5312 1.48295 22.4491 1.29309C22.3669 1.10324 22.2482 0.931471 22.0995 0.787643C21.9508 0.643815 21.7752 0.53076 21.5828 0.454967C21.3903 0.379173 21.1848 0.342134 20.978 0.345974ZM7.52597 18.427H4.26297V8.67397H7.52597V18.426V18.427ZM5.89497 7.34597H5.87797C5.6457 7.36073 5.41289 7.32736 5.19412 7.24795C4.97535 7.16853 4.77534 7.04479 4.60663 6.88447C4.43792 6.72415 4.30414 6.53071 4.21367 6.31628C4.12321 6.10184 4.07801 5.87103 4.08091 5.63832C4.08381 5.4056 4.13475 5.17599 4.23053 4.96387C4.32631 4.75176 4.46487 4.56172 4.63752 4.40565C4.81018 4.24959 5.01321 4.13086 5.23389 4.05693C5.45457 3.98299 5.68814 3.95543 5.91997 3.97597C6.1533 3.95808 6.3878 3.98882 6.60864 4.06623C6.82948 4.14365 7.03184 4.26606 7.20293 4.42572C7.37403 4.58538 7.51012 4.77881 7.60259 4.99377C7.69507 5.20874 7.74193 5.44056 7.74019 5.67457C7.73845 5.90858 7.68817 6.13968 7.59251 6.35325C7.49685 6.56682 7.35791 6.75821 7.18447 6.91531C7.01103 7.07242 6.80686 7.19181 6.5849 7.26594C6.36294 7.34007 6.12801 7.36732 5.89497 7.34597ZM19.295 18.43H16.028V13.209C16.028 11.898 15.555 11.003 14.375 11.003C14.0077 11.0041 13.6498 11.1186 13.3502 11.3309C13.0505 11.5432 12.8238 11.8429 12.701 12.189C12.6163 12.4433 12.5793 12.7112 12.592 12.979V18.426H9.33097C9.33097 18.426 9.37397 9.58797 9.33097 8.67397H12.593V10.057C12.8895 9.54588 13.3202 9.12562 13.8384 8.84167C14.3566 8.55771 14.9426 8.42088 15.533 8.44597C17.68 8.44597 19.29 9.83897 19.29 12.836V18.428L19.295 18.43ZM12.572 10.088L12.593 10.057V10.088H12.572Z" fill="#A7A7A7"/>
</svg>
