<svg width="157" height="47" viewBox="0 0 157 47" fill="none" xmlns="http://www.w3.org/2000/svg">
<path d="M0.89209 2.45622V23.2422C0.89209 23.2422 16.1731 28.1542 35.5701 23.2422V2.45622C35.5701 2.45622 20.3781 -2.58578 0.89209 2.45622ZM28.6561 18.0652C28.6561 18.0652 17.8831 20.1112 7.79209 18.0652V7.70122C14.689 6.43372 21.7592 6.43372 28.6561 7.70122V18.0652Z" fill="#FF7E2E"/>
<path d="M80.417 2.45602V23.242C80.417 23.242 95.697 28.154 115.095 23.242V2.45602C115.095 2.45602 99.903 -2.58498 80.417 2.45602ZM108.181 18.065C108.181 18.065 97.407 20.111 87.317 18.065V7.70102C94.2139 6.43359 101.284 6.43359 108.181 7.70102V18.065Z" fill="#FF7E2E"/>
<path d="M40.4512 2.1781C51.9512 -0.544392 63.9281 -0.544392 75.4282 2.1781V8.8601C70.8368 7.76505 66.1606 7.06252 61.4502 6.7601V25.4831H54.5652V6.7611C54.5652 6.7611 45.9062 7.1551 40.4512 9.0611V2.1781Z" fill="#FF7E2E"/>
<path d="M156.497 1.42812V8.17812C146.657 6.72279 136.683 6.40269 126.77 7.22412V25.4831H120.088V1.42812C120.088 1.42812 134.406 -1.23088 156.497 1.42812Z" fill="#FF7E2E"/>
<path d="M10.3521 46.8672C9.21036 46.88 8.07402 46.7081 6.98712 46.3582C6.04416 46.0585 5.15842 45.6021 4.36713 45.0082C3.67642 44.4909 3.10117 43.8353 2.67813 43.0832C2.29183 42.408 2.08524 41.645 2.07812 40.8672C2.08202 40.0675 2.30213 39.2839 2.71512 38.5991C3.16334 37.8485 3.75898 37.1963 4.46613 36.6822C5.26536 36.0994 6.15486 35.6517 7.09912 35.3572C8.15909 35.0217 9.26538 34.8556 10.3771 34.8652C11.5205 34.8523 12.658 35.0297 13.7431 35.3902C14.6835 35.6993 15.5651 36.1645 16.3511 36.7661C17.033 37.2892 17.6029 37.9438 18.0271 38.6912C18.4123 39.3581 18.6189 40.1131 18.6271 40.8832C18.6246 41.6821 18.4058 42.4654 17.9941 43.1502C17.5493 43.8974 16.9577 44.5468 16.2551 45.0592C15.4598 45.6384 14.5746 46.083 13.6351 46.3752C12.5749 46.7111 11.4682 46.8771 10.3561 46.8672H10.3521ZM3.82513 40.8672C3.8263 41.516 3.98848 42.1544 4.29712 42.7252C4.62861 43.341 5.08542 43.8806 5.63812 44.3092C6.25697 44.7913 6.95414 45.1634 7.69913 45.4092C8.55618 45.691 9.454 45.8288 10.3561 45.8172C11.2767 45.8296 12.1924 45.6832 13.0631 45.3841C13.8117 45.1301 14.5097 44.7463 15.1251 44.2502C15.6604 43.8152 16.1026 43.2768 16.4251 42.6672C16.7309 42.105 16.889 41.4744 16.8846 40.8344C16.8802 40.1945 16.7135 39.5661 16.4001 39.0082C16.0619 38.3953 15.601 37.8588 15.0461 37.4322C14.4256 36.9549 13.7287 36.586 12.9851 36.3412C12.1361 36.0602 11.2463 35.9223 10.3521 35.9331C9.43229 35.9212 8.51706 36.0649 7.64512 36.3582C6.89634 36.6068 6.19828 36.9879 5.58413 37.4832C5.04899 37.9183 4.60688 38.4566 4.28412 39.0662C3.98668 39.6198 3.82879 40.2377 3.82412 40.8662" fill="#848484"/>
<path d="M31.5372 45.8172C32.4783 45.8444 33.4165 45.7004 34.3062 45.3922C34.9694 45.1552 35.5716 44.7737 36.0692 44.2752C36.4975 43.8318 36.8124 43.2915 36.9872 42.7002C37.16 42.1213 37.2479 41.5204 37.2482 40.9162V34.9492H38.9872V40.9162C38.9901 41.6926 38.8546 42.4633 38.5872 43.1922C38.3175 43.9157 37.879 44.5644 37.3082 45.0842C36.641 45.6739 35.8574 46.1168 35.0082 46.3842C33.8916 46.7326 32.7255 46.8961 31.5562 46.8682C30.3645 46.8984 29.1763 46.7263 28.0422 46.3592C27.189 46.08 26.405 45.6226 25.7422 45.0172C25.1824 44.4924 24.7568 43.8408 24.5012 43.1172C24.2532 42.4103 24.1271 41.6664 24.1282 40.9172V34.9492H25.8422V40.9162C25.8409 41.5325 25.933 42.1455 26.1152 42.7342C26.2969 43.3232 26.6164 43.8604 27.0472 44.3012C27.5419 44.7929 28.1396 45.1686 28.7972 45.4012C29.6755 45.7027 30.6009 45.8436 31.5292 45.8172" fill="#848484"/>
<path d="M58.1351 35.9822H51.8481V46.7822H50.1131V35.9822H43.8301V34.9492H58.1351V35.9822Z" fill="#848484"/>
<path d="M63.251 46.7841V34.9481H69.236C70.4813 34.9273 71.7232 35.0846 72.924 35.4151C73.8703 35.6759 74.7619 36.1051 75.556 36.6821C76.2248 37.1751 76.7692 37.8175 77.146 38.5581C77.5005 39.2699 77.6834 40.0549 77.68 40.8501C77.6908 41.7019 77.4843 42.5423 77.08 43.2921C76.6663 44.0383 76.0842 44.6776 75.38 45.1591C74.5695 45.7089 73.6704 46.1149 72.722 46.3591C71.583 46.6552 70.4097 46.7982 69.233 46.7841H63.251ZM75.941 40.8491C75.9483 40.1705 75.7955 39.4996 75.495 38.8911C75.1867 38.2838 74.7417 37.7562 74.195 37.3501C73.5634 36.8868 72.8514 36.5447 72.095 36.3411C71.1645 36.0884 70.2031 35.9675 69.239 35.9821H64.99V45.7511H69.237C70.2144 45.7665 71.1888 45.6402 72.13 45.3761C72.8881 45.1654 73.6003 44.8151 74.23 44.3431C74.7701 43.9366 75.2068 43.4085 75.5047 42.8016C75.8025 42.1947 75.953 41.5261 75.944 40.8501" fill="#848484"/>
<path d="M90.5941 46.8671C89.4526 46.8799 88.3166 46.708 87.2301 46.3581C86.2869 46.0584 85.4008 45.602 84.6091 45.0081C83.9185 44.4907 83.3433 43.8351 82.9201 43.0831C82.5337 42.408 82.3271 41.645 82.3201 40.8671C82.3227 40.0679 82.5414 39.2842 82.9531 38.5991C83.4015 37.8486 83.9971 37.1965 84.7041 36.6821C85.5036 36.0992 86.3934 35.6516 87.3381 35.3571C88.398 35.0216 89.5043 34.8556 90.6161 34.8651C91.7591 34.8524 92.8963 35.0298 93.9811 35.3901C94.9214 35.6993 95.803 36.1645 96.5891 36.7661C97.271 37.2891 97.8409 37.9438 98.2651 38.6911C98.6502 39.3581 98.8568 40.113 98.8651 40.8831C98.8622 41.6822 98.6431 42.4655 98.2311 43.1501C97.7867 43.8977 97.195 44.5472 96.4921 45.0591C95.6967 45.6384 94.8116 46.0829 93.8721 46.3751C92.8122 46.711 91.7058 46.8771 90.5941 46.8671ZM84.0631 40.8671C84.0639 41.516 84.2261 42.1545 84.5351 42.7251C84.8665 43.341 85.3233 43.8806 85.8761 44.3091C86.4946 44.7912 87.1914 45.1633 87.9361 45.4091C88.7931 45.6909 89.6909 45.8288 90.5931 45.8171C91.5136 45.8296 92.4294 45.6832 93.3001 45.3841C94.049 45.1302 94.7473 44.7463 95.3631 44.2501C95.8982 43.815 96.3403 43.2767 96.6631 42.6671C96.9688 42.1049 97.1269 41.4744 97.1225 40.8344C97.1182 40.1945 96.9515 39.5661 96.6381 39.0081C96.2999 38.3953 95.8389 37.8588 95.2841 37.4321C94.6636 36.9544 93.9668 36.5852 93.2231 36.3401C92.3741 36.0592 91.4843 35.9213 90.5901 35.9321C89.6702 35.9203 88.755 36.064 87.8831 36.3571C87.1346 36.6058 86.4369 36.9869 85.8231 37.4821C85.2877 37.9171 84.8456 38.4554 84.5231 39.0651C84.2256 39.6188 84.0677 40.2367 84.0631 40.8651" fill="#848484"/>
<path d="M111.729 46.8672C110.587 46.8798 109.451 46.708 108.364 46.3582C107.421 46.0582 106.536 45.6018 105.744 45.0082C105.053 44.4909 104.478 43.8353 104.055 43.0832C103.669 42.408 103.462 41.645 103.455 40.8672C103.458 40.0679 103.676 39.2843 104.088 38.5991C104.537 37.8486 105.132 37.1965 105.839 36.6822C106.638 36.0994 107.528 35.6517 108.472 35.3572C109.532 35.0217 110.638 34.8557 111.75 34.8652C112.893 34.8523 114.031 35.0297 115.116 35.3902C116.056 35.6992 116.938 36.1643 117.724 36.7661C118.406 37.2892 118.976 37.9438 119.4 38.6912C119.785 39.3581 119.992 40.1131 120 40.8832C119.998 41.6821 119.779 42.4654 119.367 43.1502C118.922 43.8971 118.331 44.5465 117.629 45.0592C116.833 45.6382 115.948 46.0827 115.008 46.3752C113.948 46.711 112.842 46.877 111.73 46.8672H111.729ZM105.199 40.8672C105.2 41.5159 105.362 42.1543 105.67 42.7252C106.002 43.3411 106.459 43.8806 107.012 44.3092C107.63 44.7914 108.327 45.1635 109.072 45.4092C109.929 45.691 110.827 45.8288 111.729 45.8172C112.65 45.8296 113.565 45.6832 114.436 45.3841C115.185 45.1303 115.883 44.7464 116.498 44.2502C117.033 43.8151 117.475 43.2768 117.798 42.6672C118.104 42.105 118.262 41.4743 118.257 40.8343C118.253 40.1943 118.086 39.5659 117.772 39.0082C117.434 38.3952 116.973 37.8586 116.418 37.4322C115.798 36.9549 115.101 36.586 114.357 36.3412C113.508 36.0601 112.618 35.9222 111.724 35.9331C110.804 35.9212 109.889 36.0649 109.017 36.3582C108.268 36.6068 107.57 36.9879 106.956 37.4832C106.421 37.9182 105.979 38.4566 105.656 39.0662C105.359 39.6198 105.201 40.2377 105.196 40.8662" fill="#848484"/>
<path d="M125.761 46.7841V34.9491H133.212C133.925 34.9411 134.635 35.0509 135.312 35.2741C135.904 35.4678 136.461 35.7547 136.963 36.1241C137.4 36.4447 137.767 36.8502 138.044 37.3161C138.29 37.724 138.423 38.19 138.429 38.6661C138.429 39.0964 138.332 39.5211 138.144 39.9081C137.946 40.3104 137.675 40.6723 137.344 40.9751C136.981 41.3071 136.566 41.5773 136.115 41.7751C135.601 42.001 135.057 42.1499 134.5 42.2171L138.822 46.7841H136.86L132.712 42.4161H127.497V46.7841H125.761ZM127.5 41.3841H133.262C133.738 41.3898 134.212 41.3137 134.662 41.1591C135.057 41.0251 135.423 40.8189 135.742 40.5511C136.03 40.3113 136.268 40.017 136.442 39.6851C136.605 39.371 136.69 39.0222 136.69 38.6681C136.688 38.307 136.589 37.9531 136.404 37.6431C136.208 37.3083 135.946 37.0164 135.634 36.7851C135.288 36.5288 134.902 36.3318 134.491 36.2021C134.046 36.0562 133.58 35.9829 133.112 35.9851H127.497L127.5 41.3841Z" fill="#848484"/>
<path d="M154.768 37.1651C154.169 36.7392 153.495 36.4286 152.782 36.2491C151.859 36.0035 150.906 35.8854 149.951 35.8981C148.787 35.823 147.621 36.0259 146.551 36.4901C146.238 36.628 145.97 36.8528 145.78 37.1379C145.59 37.4231 145.486 37.7566 145.48 38.0991C145.467 38.4157 145.568 38.7265 145.766 38.9741C146.009 39.2382 146.311 39.4408 146.647 39.5651C147.141 39.7598 147.652 39.9052 148.174 39.9991C148.795 40.1218 149.529 40.2438 150.374 40.3651C151.317 40.4984 152.166 40.6484 152.92 40.8151C153.583 40.9521 154.228 41.1617 154.845 41.4401C155.315 41.6455 155.731 41.9562 156.062 42.3481C156.352 42.7311 156.5 43.2023 156.483 43.6821C156.494 44.1947 156.327 44.6953 156.011 45.0991C155.656 45.5305 155.206 45.873 154.695 46.0991C154.056 46.3895 153.379 46.5887 152.684 46.6911C151.838 46.8241 150.983 46.8883 150.126 46.8831C147.656 46.9481 145.214 46.3556 143.048 45.1661L143.917 44.2161C144.273 44.4616 144.652 44.6735 145.047 44.8491C145.521 45.062 146.011 45.2375 146.513 45.3741C147.08 45.53 147.656 45.6469 148.239 45.7241C148.881 45.8095 149.528 45.8512 150.175 45.8491C151.295 45.8967 152.414 45.7237 153.467 45.3401C153.801 45.2405 154.095 45.0377 154.307 44.7607C154.519 44.4837 154.638 44.1467 154.646 43.7981C154.656 43.4582 154.536 43.1273 154.31 42.8731C154.028 42.5839 153.684 42.3617 153.304 42.2231C152.765 42.0128 152.208 41.8538 151.639 41.7481C150.977 41.6148 150.207 41.4814 149.33 41.3481C148.402 41.2034 147.591 41.0534 146.896 40.8981C146.288 40.7719 145.697 40.5763 145.133 40.3151C144.71 40.1269 144.339 39.8378 144.053 39.4731C143.805 39.12 143.678 38.6956 143.692 38.2641C143.685 37.7414 143.847 37.2304 144.152 36.8061C144.492 36.3496 144.938 35.9832 145.452 35.7391C146.082 35.4335 146.75 35.2148 147.439 35.0891C148.274 34.9322 149.122 34.8569 149.972 34.8641C151.03 34.8503 152.085 34.9706 153.113 35.2221C153.989 35.4426 154.83 35.7821 155.613 36.2311L154.768 37.1651Z" fill="#848484"/>
</svg>
