<svg width="19" height="19" viewBox="0 0 19 19" fill="none" xmlns="http://www.w3.org/2000/svg">
<path d="M18.689 16.29L15.289 12.9C16.386 11.5025 16.9812 9.77666 16.979 8C16.979 6.41775 16.5098 4.87103 15.6308 3.55544C14.7517 2.23985 13.5023 1.21447 12.0405 0.608967C10.5787 0.00346625 8.97013 -0.15496 7.41829 0.153721C5.86644 0.462403 4.44097 1.22433 3.32215 2.34315C2.20333 3.46197 1.44141 4.88743 1.13273 6.43928C0.824043 7.99113 0.98247 9.59966 1.58797 11.0615C2.19347 12.5233 3.21885 13.7727 4.53445 14.6518C5.85004 15.5308 7.39676 16 8.97901 16C10.7557 16.0022 12.4815 15.407 13.879 14.31L17.269 17.71C17.4573 17.8983 17.7127 18.0041 17.979 18.0041C18.2453 18.0041 18.5007 17.8983 18.689 17.71C18.8773 17.5217 18.9831 17.2663 18.9831 17C18.9831 16.7337 18.8773 16.4783 18.689 16.29ZM2.97901 8C2.97917 6.61188 3.46064 5.26676 4.34138 4.19383C5.22212 3.1209 6.44764 2.38654 7.80912 2.11588C9.1706 1.84522 10.5838 2.05501 11.808 2.7095C13.0321 3.36398 13.9914 4.42268 14.5225 5.70519C15.0536 6.9877 15.1236 8.41468 14.7205 9.74299C14.3174 11.0713 13.4662 12.2188 12.312 12.9899C11.1577 13.7609 9.7718 14.108 8.39037 13.9718C7.00895 13.8356 5.71748 13.2246 4.73601 12.243C4.17888 11.6858 3.73696 11.0243 3.4355 10.2963C3.13403 9.56824 2.97891 8.78797 2.97901 8Z" fill="white"/>
</svg>
