<svg width="23" height="19" viewBox="0 0 23 19" fill="none" xmlns="http://www.w3.org/2000/svg">
<path d="M22.954 3.13296C22.1255 3.4993 21.2473 3.74092 20.348 3.84996C21.2977 3.28297 22.0086 2.38971 22.348 1.33696C21.4573 1.86654 20.482 2.23865 19.465 2.43696C18.8433 1.77159 18.0357 1.30872 17.1473 1.10854C16.259 0.908357 15.3309 0.980138 14.4839 1.31454C13.6369 1.64895 12.9101 2.2305 12.3981 2.98356C11.8861 3.73661 11.6125 4.62632 11.613 5.53696C11.6112 5.88569 11.6505 6.23341 11.73 6.57296C9.92443 6.48445 8.15781 6.01631 6.54536 5.19906C4.93292 4.38181 3.51087 3.23381 2.37198 1.82996C1.78987 2.83103 1.61164 4.01649 1.87366 5.14448C2.13568 6.27246 2.81821 7.25798 3.78198 7.89996C3.05825 7.88053 2.3503 7.68415 1.71998 7.32796V7.38396C1.71974 8.43252 2.0823 9.44887 2.74614 10.2605C3.40998 11.0722 4.33421 11.6292 5.36198 11.837C4.97081 11.943 4.56727 11.9964 4.16198 11.996C3.87556 11.9966 3.58979 11.9684 3.30898 11.912C3.59873 12.8145 4.16344 13.6039 4.92408 14.1697C5.68471 14.7354 6.6032 15.0491 7.55098 15.067C5.94323 16.3304 3.95679 17.0156 1.91198 17.012C1.55169 17.0114 1.19173 16.9897 0.833984 16.947C2.90087 18.292 5.31499 19.0054 7.78098 19C9.48171 19.0115 11.1678 18.685 12.7412 18.0393C14.3147 17.3937 15.7441 16.4418 16.9465 15.2389C18.1489 14.0361 19.1002 12.6063 19.7453 11.0326C20.3903 9.45887 20.7162 7.77268 20.704 6.07196C20.704 5.87196 20.704 5.67796 20.69 5.48596C21.5784 4.84228 22.345 4.0455 22.954 3.13296Z" fill="#A7A7A7"/>
</svg>
