<svg width="19" height="22" viewBox="0 0 19 22" fill="none" xmlns="http://www.w3.org/2000/svg">
<path d="M15.8031 6.125C15.8031 4.93831 15.4512 3.77828 14.7919 2.79158C14.1326 1.80489 13.1955 1.03585 12.0992 0.581726C11.0028 0.1276 9.7964 0.00877969 8.63251 0.240291C7.46863 0.471802 6.39953 1.04325 5.56041 1.88236C4.7213 2.72148 4.14985 3.79058 3.91834 4.95446C3.68683 6.11835 3.80565 7.32475 4.25978 8.4211C4.7139 9.51746 5.48294 10.4545 6.46963 11.1138C7.45633 11.7731 8.61637 12.125 9.80305 12.125C11.3937 12.1229 12.9186 11.4901 14.0434 10.3653C15.1681 9.24055 15.8009 7.71565 15.8031 6.125ZM6.05305 6.125C6.05305 5.38332 6.27299 4.6583 6.68504 4.04161C7.0971 3.42493 7.68277 2.94428 8.36799 2.66045C9.05321 2.37663 9.80721 2.30236 10.5346 2.44706C11.2621 2.59175 11.9303 2.94891 12.4547 3.47335C12.9792 3.9978 13.3363 4.66599 13.481 5.39341C13.6257 6.12084 13.5514 6.87484 13.2676 7.56007C12.9838 8.24529 12.5031 8.83096 11.8864 9.24301C11.2698 9.65507 10.5447 9.875 9.80305 9.875C8.80857 9.87474 7.8549 9.47956 7.1517 8.77636C6.44849 8.07316 6.05332 7.11948 6.05305 6.125ZM11.6031 13.625H8.00305C6.11387 13.6266 4.30252 14.3778 2.96667 15.7136C1.63082 17.0495 0.879642 18.8608 0.878054 20.75C0.87779 20.8978 0.906709 21.0442 0.963152 21.1808C1.0196 21.3174 1.10245 21.4416 1.20697 21.5461C1.31149 21.6506 1.43561 21.7335 1.57222 21.7899C1.70883 21.8463 1.85524 21.8753 2.00305 21.875H17.6031C17.7509 21.8753 17.8973 21.8463 18.0339 21.7899C18.1705 21.7335 18.2946 21.6506 18.3991 21.5461C18.5037 21.4416 18.5865 21.3174 18.643 21.1808C18.6994 21.0442 18.7283 20.8978 18.7281 20.75C18.7265 18.8608 17.9753 17.0495 16.6394 15.7136C15.3036 14.3778 13.4922 13.6266 11.6031 13.625ZM3.25605 19.625C3.51185 18.558 4.11908 17.608 4.98008 16.9278C5.84107 16.2477 6.90581 15.8769 8.00305 15.875H11.6031C12.7005 15.8766 13.7654 16.2474 14.6266 16.9275C15.4878 17.6077 16.0952 18.5578 16.3511 19.625H3.25605Z" fill="#383838"/>
</svg>
