<svg width="18" height="22" viewBox="0 0 18 22" fill="none" xmlns="http://www.w3.org/2000/svg">
<path d="M15 6.125C15 4.93831 14.6481 3.77828 13.9888 2.79158C13.3295 1.80489 12.3924 1.03585 11.2961 0.581726C10.1997 0.1276 8.9933 0.00877969 7.82941 0.240291C6.66552 0.471802 5.59643 1.04325 4.75731 1.88236C3.9182 2.72148 3.34675 3.79058 3.11524 4.95446C2.88373 6.11835 3.00255 7.32475 3.45668 8.4211C3.9108 9.51746 4.67984 10.4545 5.66653 11.1138C6.65323 11.7731 7.81327 12.125 8.99995 12.125C10.5906 12.1229 12.1155 11.4901 13.2403 10.3653C14.365 9.24055 14.9978 7.71565 15 6.125ZM5.24995 6.125C5.24995 5.38332 5.46989 4.6583 5.88194 4.04161C6.294 3.42493 6.87967 2.94428 7.56489 2.66045C8.25011 2.37663 9.00411 2.30236 9.73154 2.44706C10.459 2.59175 11.1272 2.94891 11.6516 3.47335C12.1761 3.9978 12.5332 4.66599 12.6779 5.39341C12.8226 6.12084 12.7483 6.87484 12.4645 7.56007C12.1807 8.24529 11.7 8.83096 11.0833 9.24301C10.4667 9.65507 9.74163 9.875 8.99995 9.875C8.00547 9.87474 7.0518 9.47956 6.3486 8.77636C5.64539 8.07316 5.25022 7.11948 5.24995 6.125ZM10.8 13.625H7.19995C5.31077 13.6266 3.49942 14.3778 2.16357 15.7136C0.827719 17.0495 0.0765418 18.8608 0.074953 20.75C0.0746895 20.8978 0.103609 21.0442 0.160052 21.1808C0.216495 21.3174 0.299352 21.4416 0.40387 21.5461C0.508389 21.6506 0.632512 21.7335 0.769123 21.7899C0.905733 21.8463 1.05214 21.8753 1.19995 21.875H16.8C16.9478 21.8753 17.0942 21.8463 17.2308 21.7899C17.3674 21.7335 17.4915 21.6506 17.596 21.5461C17.7006 21.4416 17.7834 21.3174 17.8399 21.1808C17.8963 21.0442 17.9252 20.8978 17.925 20.75C17.9234 18.8608 17.1722 17.0495 15.8363 15.7136C14.5005 14.3778 12.6891 13.6266 10.8 13.625ZM2.45295 19.625C2.70875 18.558 3.31598 17.608 4.17698 16.9278C5.03797 16.2477 6.10271 15.8769 7.19995 15.875H10.8C11.8974 15.8766 12.9623 16.2474 13.8235 16.9275C14.6847 17.6077 15.2921 18.5578 15.548 19.625H2.45295Z" fill="#FF7E2E"/>
</svg>
